<?xml version="1.0" encoding="utf-8" standalone="no"?>
<!DOCTYPE svg PUBLIC "-//W3C//DTD SVG 1.1//EN"
  "http://www.w3.org/Graphics/SVG/1.1/DTD/svg11.dtd">
<svg xmlns:xlink="http://www.w3.org/1999/xlink" width="469.336208pt" height="464.759434pt" viewBox="0 0 469.336208 464.759434" xmlns="http://www.w3.org/2000/svg" version="1.1">
 <metadata>
  <rdf:RDF xmlns:dc="http://purl.org/dc/elements/1.1/" xmlns:cc="http://creativecommons.org/ns#" xmlns:rdf="http://www.w3.org/1999/02/22-rdf-syntax-ns#">
   <cc:Work>
    <dc:type rdf:resource="http://purl.org/dc/dcmitype/StillImage"/>
    <dc:date>2025-10-30T15:54:31.275654</dc:date>
    <dc:format>image/svg+xml</dc:format>
    <dc:creator>
     <cc:Agent>
      <dc:title>Matplotlib v3.10.6, https://matplotlib.org/</dc:title>
     </cc:Agent>
    </dc:creator>
   </cc:Work>
  </rdf:RDF>
 </metadata>
 <defs>
  <style type="text/css">*{stroke-linejoin: round; stroke-linecap: butt}</style>
 </defs>
 <g id="figure_1">
  <g id="patch_1">
   <path d="M 0 464.759434 
L 469.336208 464.759434 
L 469.336208 0 
L 0 0 
L 0 464.759434 
z
" style="fill: none"/>
  </g>
  <g id="patch_2">
   <path d="M 7.2 450.72 
L 450.72 450.72 
L 450.72 7.2 
L 7.2 7.2 
L 7.2 450.72 
z
" style="fill: none"/>
  </g>
  <g id="pane3d_1">
   <g id="patch_3">
    <path d="M 40.688819 341.362182 
L 187.153607 218.592492 
L 185.117607 41.536652 
L 31.643723 153.534902 
" style="fill: #ffffff; opacity: 0.5; stroke: #f2f2f2; stroke-linejoin: miter"/>
   </g>
  </g>
  <g id="pane3d_2">
   <g id="patch_4">
    <path d="M 187.153607 218.592492 
L 422.177334 286.90461 
L 430.564503 103.750285 
L 185.117607 41.536652 
" style="fill: #ffffff; opacity: 0.5; stroke: #e6e6e6; stroke-linejoin: miter"/>
   </g>
  </g>
  <g id="pane3d_3">
   <g id="patch_5">
    <path d="M 40.688819 341.362182 
L 289.825448 422.730204 
L 422.177334 286.90461 
L 187.153607 218.592492 
" style="fill: #ffffff; opacity: 0.5; stroke: #ececec; stroke-linejoin: miter"/>
   </g>
  </g>
  <g id="grid3d_1">
   <g id="Line3DCollection_1">
    <path d="M 40.688819 341.362182 
L 187.153607 218.592492 
L 185.117607 41.536652 
" style="fill: none; stroke: #b0b0b0; stroke-width: 0.8"/>
    <path d="M 100.542021 360.910238 
L 243.805905 235.059078 
L 244.18766 56.509188 
" style="fill: none; stroke: #b0b0b0; stroke-width: 0.8"/>
    <path d="M 161.973136 380.973639 
L 301.826747 251.923446 
L 304.746975 71.859209 
" style="fill: none; stroke: #b0b0b0; stroke-width: 0.8"/>
    <path d="M 225.045393 401.573038 
L 361.26633 269.200186 
L 366.852593 87.601173 
" style="fill: none; stroke: #b0b0b0; stroke-width: 0.8"/>
    <path d="M 289.825448 422.730204 
L 422.177334 286.90461 
L 430.564503 103.750285 
" style="fill: none; stroke: #b0b0b0; stroke-width: 0.8"/>
   </g>
  </g>
  <g id="grid3d_2">
   <g id="Line3DCollection_2">
    <path d="M 31.643723 153.534902 
L 40.688819 341.362182 
L 289.825448 422.730204 
" style="fill: none; stroke: #b0b0b0; stroke-width: 0.8"/>
    <path d="M 72.630922 123.624311 
L 79.695383 308.666106 
L 325.187752 386.439781 
" style="fill: none; stroke: #b0b0b0; stroke-width: 0.8"/>
    <path d="M 111.794632 95.044419 
L 117.040492 277.362695 
L 358.965911 351.77508 
" style="fill: none; stroke: #b0b0b0; stroke-width: 0.8"/>
    <path d="M 149.253894 67.708356 
L 152.828084 247.364826 
L 391.264043 318.629252 
" style="fill: none; stroke: #b0b0b0; stroke-width: 0.8"/>
    <path d="M 185.117607 41.536652 
L 187.153607 218.592492 
L 422.177334 286.90461 
" style="fill: none; stroke: #b0b0b0; stroke-width: 0.8"/>
   </g>
  </g>
  <g id="grid3d_3">
   <g id="Line3DCollection_3">
    <path d="M 422.177334 286.90461 
L 187.153607 218.592492 
L 40.688819 341.362182 
" style="fill: none; stroke: #b0b0b0; stroke-width: 0.8"/>
    <path d="M 424.205968 242.604433 
L 186.660364 175.6988 
L 38.503845 295.989789 
" style="fill: none; stroke: #b0b0b0; stroke-width: 0.8"/>
    <path d="M 426.279045 197.333726 
L 186.156835 131.910645 
L 36.269162 249.585142 
" style="fill: none; stroke: #b0b0b0; stroke-width: 0.8"/>
    <path d="M 428.398042 151.06024 
L 185.642696 87.199755 
L 33.983053 202.11261 
" style="fill: none; stroke: #b0b0b0; stroke-width: 0.8"/>
    <path d="M 430.564503 103.750285 
L 185.117607 41.536652 
L 31.643723 153.534902 
" style="fill: none; stroke: #b0b0b0; stroke-width: 0.8"/>
   </g>
  </g>
  <g id="axis3d_1">
   <g id="line2d_1">
    <path d="M 40.688819 341.362182 
L 289.825448 422.730204 
" style="fill: none; stroke: #000000; stroke-width: 0.8; stroke-linecap: square"/>
   </g>
   <g id="xtick_1">
    <g id="line2d_2">
     <path d="M 41.963887 340.293394 
L 38.133228 343.504328 
" style="fill: none; stroke: #000000; stroke-width: 0.8; stroke-linecap: square"/>
    </g>
    <g id="text_1">
     <!-- −1.0 -->
     <g transform="translate(15.023022 370.874731) scale(0.2 -0.2)">
      <defs>
       <path id="TimesNewRomanPSMT-2212" d="M 3484 2000 
L 116 2000 
L 116 2256 
L 3484 2256 
L 3484 2000 
z
" transform="scale(0.015625)"/>
       <path id="TimesNewRomanPSMT-31" d="M 750 3822 
L 1781 4325 
L 1884 4325 
L 1884 747 
Q 1884 391 1914 303 
Q 1944 216 2037 169 
Q 2131 122 2419 116 
L 2419 0 
L 825 0 
L 825 116 
Q 1125 122 1212 167 
Q 1300 213 1334 289 
Q 1369 366 1369 747 
L 1369 3034 
Q 1369 3497 1338 3628 
Q 1316 3728 1258 3775 
Q 1200 3822 1119 3822 
Q 1003 3822 797 3725 
L 750 3822 
z
" transform="scale(0.015625)"/>
       <path id="TimesNewRomanPSMT-2e" d="M 800 606 
Q 947 606 1047 504 
Q 1147 403 1147 259 
Q 1147 116 1045 14 
Q 944 -88 800 -88 
Q 656 -88 554 14 
Q 453 116 453 259 
Q 453 406 554 506 
Q 656 606 800 606 
z
" transform="scale(0.015625)"/>
       <path id="TimesNewRomanPSMT-30" d="M 231 2094 
Q 231 2819 450 3342 
Q 669 3866 1031 4122 
Q 1313 4325 1613 4325 
Q 2100 4325 2488 3828 
Q 2972 3213 2972 2159 
Q 2972 1422 2759 906 
Q 2547 391 2217 158 
Q 1888 -75 1581 -75 
Q 975 -75 572 641 
Q 231 1244 231 2094 
z
M 844 2016 
Q 844 1141 1059 588 
Q 1238 122 1591 122 
Q 1759 122 1940 273 
Q 2122 425 2216 781 
Q 2359 1319 2359 2297 
Q 2359 3022 2209 3506 
Q 2097 3866 1919 4016 
Q 1791 4119 1609 4119 
Q 1397 4119 1231 3928 
Q 1006 3669 925 3112 
Q 844 2556 844 2016 
z
" transform="scale(0.015625)"/>
      </defs>
      <use xlink:href="#TimesNewRomanPSMT-2212"/>
      <use xlink:href="#TimesNewRomanPSMT-31" transform="translate(56.396484 0)"/>
      <use xlink:href="#TimesNewRomanPSMT-2e" transform="translate(106.396484 0)"/>
      <use xlink:href="#TimesNewRomanPSMT-30" transform="translate(131.396484 0)"/>
     </g>
    </g>
   </g>
   <g id="xtick_2">
    <g id="line2d_3">
     <path d="M 101.790538 359.813469 
L 98.039578 363.108526 
" style="fill: none; stroke: #000000; stroke-width: 0.8; stroke-linecap: square"/>
    </g>
    <g id="text_2">
     <!-- −0.5 -->
     <g transform="translate(74.912673 390.670484) scale(0.2 -0.2)">
      <defs>
       <path id="TimesNewRomanPSMT-35" d="M 2778 4238 
L 2534 3706 
L 1259 3706 
L 981 3138 
Q 1809 3016 2294 2522 
Q 2709 2097 2709 1522 
Q 2709 1188 2573 903 
Q 2438 619 2231 419 
Q 2025 219 1772 97 
Q 1413 -75 1034 -75 
Q 653 -75 479 54 
Q 306 184 306 341 
Q 306 428 378 495 
Q 450 563 559 563 
Q 641 563 702 538 
Q 763 513 909 409 
Q 1144 247 1384 247 
Q 1750 247 2026 523 
Q 2303 800 2303 1197 
Q 2303 1581 2056 1914 
Q 1809 2247 1375 2428 
Q 1034 2569 447 2591 
L 1259 4238 
L 2778 4238 
z
" transform="scale(0.015625)"/>
      </defs>
      <use xlink:href="#TimesNewRomanPSMT-2212"/>
      <use xlink:href="#TimesNewRomanPSMT-30" transform="translate(56.396484 0)"/>
      <use xlink:href="#TimesNewRomanPSMT-2e" transform="translate(106.396484 0)"/>
      <use xlink:href="#TimesNewRomanPSMT-35" transform="translate(131.396484 0)"/>
     </g>
    </g>
   </g>
   <g id="xtick_3">
    <g id="line2d_4">
     <path d="M 163.193249 379.847777 
L 159.527552 383.230306 
" style="fill: none; stroke: #000000; stroke-width: 0.8; stroke-linecap: square"/>
    </g>
    <g id="text_3">
     <!-- 0.0 -->
     <g transform="translate(142.023857 410.989301) scale(0.2 -0.2)">
      <use xlink:href="#TimesNewRomanPSMT-30"/>
      <use xlink:href="#TimesNewRomanPSMT-2e" transform="translate(50 0)"/>
      <use xlink:href="#TimesNewRomanPSMT-30" transform="translate(75 0)"/>
     </g>
    </g>
   </g>
   <g id="xtick_4">
    <g id="line2d_5">
     <path d="M 226.235131 400.416909 
L 222.660624 403.890441 
" style="fill: none; stroke: #000000; stroke-width: 0.8; stroke-linecap: square"/>
    </g>
    <g id="text_4">
     <!-- 0.5 -->
     <g transform="translate(205.142008 431.852193) scale(0.2 -0.2)">
      <use xlink:href="#TimesNewRomanPSMT-30"/>
      <use xlink:href="#TimesNewRomanPSMT-2e" transform="translate(50 0)"/>
      <use xlink:href="#TimesNewRomanPSMT-35" transform="translate(75 0)"/>
     </g>
    </g>
   </g>
   <g id="xtick_5">
    <g id="line2d_6">
     <path d="M 290.982709 421.542571 
L 287.505709 425.110827 
" style="fill: none; stroke: #000000; stroke-width: 0.8; stroke-linecap: square"/>
    </g>
    <g id="text_5">
     <!-- 1.0 -->
     <g transform="translate(269.973199 453.281309) scale(0.2 -0.2)">
      <use xlink:href="#TimesNewRomanPSMT-31"/>
      <use xlink:href="#TimesNewRomanPSMT-2e" transform="translate(50 0)"/>
      <use xlink:href="#TimesNewRomanPSMT-30" transform="translate(75 0)"/>
     </g>
    </g>
   </g>
  </g>
  <g id="axis3d_2">
   <g id="line2d_7">
    <path d="M 422.177334 286.90461 
L 289.825448 422.730204 
" style="fill: none; stroke: #000000; stroke-width: 0.8; stroke-linecap: square"/>
   </g>
   <g id="xtick_6">
    <g id="line2d_8">
     <path d="M 287.725332 422.044306 
L 294.031145 424.103785 
" style="fill: none; stroke: #000000; stroke-width: 0.8; stroke-linecap: square"/>
    </g>
    <g id="text_6">
     <!-- −1.0 -->
     <g transform="translate(284.637519 450.12131) scale(0.2 -0.2)">
      <use xlink:href="#TimesNewRomanPSMT-2212"/>
      <use xlink:href="#TimesNewRomanPSMT-31" transform="translate(56.396484 0)"/>
      <use xlink:href="#TimesNewRomanPSMT-2e" transform="translate(106.396484 0)"/>
      <use xlink:href="#TimesNewRomanPSMT-30" transform="translate(131.396484 0)"/>
     </g>
    </g>
   </g>
   <g id="xtick_7">
    <g id="line2d_9">
     <path d="M 323.12077 385.784947 
L 329.32697 387.751114 
" style="fill: none; stroke: #000000; stroke-width: 0.8; stroke-linecap: square"/>
    </g>
    <g id="text_7">
     <!-- −0.5 -->
     <g transform="translate(319.715467 413.508572) scale(0.2 -0.2)">
      <use xlink:href="#TimesNewRomanPSMT-2212"/>
      <use xlink:href="#TimesNewRomanPSMT-30" transform="translate(56.396484 0)"/>
      <use xlink:href="#TimesNewRomanPSMT-2e" transform="translate(106.396484 0)"/>
      <use xlink:href="#TimesNewRomanPSMT-35" transform="translate(131.396484 0)"/>
     </g>
    </g>
   </g>
   <g id="xtick_8">
    <g id="line2d_10">
     <path d="M 356.931236 351.149247 
L 363.040318 353.028303 
" style="fill: none; stroke: #000000; stroke-width: 0.8; stroke-linecap: square"/>
    </g>
    <g id="text_8">
     <!-- 0.0 -->
     <g transform="translate(358.860528 378.536561) scale(0.2 -0.2)">
      <use xlink:href="#TimesNewRomanPSMT-30"/>
      <use xlink:href="#TimesNewRomanPSMT-2e" transform="translate(50 0)"/>
      <use xlink:href="#TimesNewRomanPSMT-30" transform="translate(75 0)"/>
     </g>
    </g>
   </g>
   <g id="xtick_9">
    <g id="line2d_11">
     <path d="M 389.260857 318.030535 
L 395.275282 319.828143 
" style="fill: none; stroke: #000000; stroke-width: 0.8; stroke-linecap: square"/>
    </g>
    <g id="text_9">
     <!-- 0.5 -->
     <g transform="translate(390.897928 345.097404) scale(0.2 -0.2)">
      <use xlink:href="#TimesNewRomanPSMT-30"/>
      <use xlink:href="#TimesNewRomanPSMT-2e" transform="translate(50 0)"/>
      <use xlink:href="#TimesNewRomanPSMT-35" transform="translate(75 0)"/>
     </g>
    </g>
   </g>
   <g id="xtick_10">
    <g id="line2d_12">
     <path d="M 420.204838 286.331283 
L 426.127018 288.052628 
" style="fill: none; stroke: #000000; stroke-width: 0.8; stroke-linecap: square"/>
    </g>
    <g id="text_10">
     <!-- 1.0 -->
     <g transform="translate(421.561214 313.092485) scale(0.2 -0.2)">
      <use xlink:href="#TimesNewRomanPSMT-31"/>
      <use xlink:href="#TimesNewRomanPSMT-2e" transform="translate(50 0)"/>
      <use xlink:href="#TimesNewRomanPSMT-30" transform="translate(75 0)"/>
     </g>
    </g>
   </g>
  </g>
  <g id="axis3d_3">
   <g id="line2d_13">
    <path d="M 422.177334 286.90461 
L 430.564503 103.750285 
" style="fill: none; stroke: #000000; stroke-width: 0.8; stroke-linecap: square"/>
   </g>
   <g id="xtick_11">
    <g id="line2d_14">
     <path d="M 420.204838 286.331283 
L 426.127018 288.052628 
" style="fill: none; stroke: #000000; stroke-width: 0.8; stroke-linecap: square"/>
    </g>
    <g id="text_11">
     <!-- −1.0 -->
     <g transform="translate(422.308823 298.183985) scale(0.2 -0.2)">
      <use xlink:href="#TimesNewRomanPSMT-2212"/>
      <use xlink:href="#TimesNewRomanPSMT-31" transform="translate(56.396484 0)"/>
      <use xlink:href="#TimesNewRomanPSMT-2e" transform="translate(106.396484 0)"/>
      <use xlink:href="#TimesNewRomanPSMT-30" transform="translate(131.396484 0)"/>
     </g>
    </g>
   </g>
   <g id="xtick_12">
    <g id="line2d_15">
     <path d="M 422.211296 242.042626 
L 428.200108 243.729398 
" style="fill: none; stroke: #000000; stroke-width: 0.8; stroke-linecap: square"/>
    </g>
    <g id="text_12">
     <!-- −0.5 -->
     <g transform="translate(424.53137 253.936251) scale(0.2 -0.2)">
      <use xlink:href="#TimesNewRomanPSMT-2212"/>
      <use xlink:href="#TimesNewRomanPSMT-30" transform="translate(56.396484 0)"/>
      <use xlink:href="#TimesNewRomanPSMT-2e" transform="translate(106.396484 0)"/>
      <use xlink:href="#TimesNewRomanPSMT-35" transform="translate(131.396484 0)"/>
     </g>
    </g>
   </g>
   <g id="xtick_13">
    <g id="line2d_16">
     <path d="M 424.261693 196.784083 
L 430.318652 198.434347 
" style="fill: none; stroke: #000000; stroke-width: 0.8; stroke-linecap: square"/>
    </g>
    <g id="text_13">
     <!-- 0.0 -->
     <g transform="translate(432.441583 208.72092) scale(0.2 -0.2)">
      <use xlink:href="#TimesNewRomanPSMT-30"/>
      <use xlink:href="#TimesNewRomanPSMT-2e" transform="translate(50 0)"/>
      <use xlink:href="#TimesNewRomanPSMT-30" transform="translate(75 0)"/>
     </g>
    </g>
   </g>
   <g id="xtick_14">
    <g id="line2d_17">
     <path d="M 426.35749 150.523442 
L 432.484162 152.135156 
" style="fill: none; stroke: #000000; stroke-width: 0.8; stroke-linecap: square"/>
    </g>
    <g id="text_14">
     <!-- 0.5 -->
     <g transform="translate(434.762946 162.505901) scale(0.2 -0.2)">
      <use xlink:href="#TimesNewRomanPSMT-30"/>
      <use xlink:href="#TimesNewRomanPSMT-2e" transform="translate(50 0)"/>
      <use xlink:href="#TimesNewRomanPSMT-35" transform="translate(75 0)"/>
     </g>
    </g>
   </g>
   <g id="xtick_15">
    <g id="line2d_18">
     <path d="M 428.50021 103.227047 
L 434.698217 104.798061 
" style="fill: none; stroke: #000000; stroke-width: 0.8; stroke-linecap: square"/>
    </g>
    <g id="text_15">
     <!-- 1.0 -->
     <g transform="translate(437.136208 115.257669) scale(0.2 -0.2)">
      <use xlink:href="#TimesNewRomanPSMT-31"/>
      <use xlink:href="#TimesNewRomanPSMT-2e" transform="translate(50 0)"/>
      <use xlink:href="#TimesNewRomanPSMT-30" transform="translate(75 0)"/>
     </g>
    </g>
   </g>
  </g>
  <g id="axes_1">
   <g id="line2d_19">
    <path d="M 361.80728 259.586015 
L 361.80728 259.586015 
L 361.80728 259.586015 
L 361.80728 259.586015 
L 361.80728 259.586015 
L 361.80728 259.586015 
L 361.80728 259.586015 
L 361.80728 259.586015 
L 361.80728 259.586015 
L 361.80728 259.586015 
L 361.80728 259.586015 
L 361.80728 259.586015 
L 361.80728 259.586015 
L 361.80728 259.586015 
L 361.80728 259.586015 
L 361.80728 259.586015 
L 361.80728 259.586015 
L 361.80728 259.586015 
L 361.80728 259.586015 
L 361.80728 259.586015 
L 361.80728 259.586015 
L 361.80728 259.586015 
L 361.80728 259.586015 
L 361.80728 259.586015 
L 361.80728 259.586015 
L 361.80728 259.586015 
L 361.80728 259.586015 
L 361.80728 259.586015 
L 361.80728 259.586015 
L 361.80728 259.586015 
L 361.80728 259.586015 
L 361.80728 259.586015 
L 361.80728 259.586015 
L 361.80728 259.586015 
L 361.80728 259.586015 
L 361.80728 259.586015 
L 361.80728 259.586015 
L 361.80728 259.586015 
L 361.80728 259.586015 
L 361.80728 259.586015 
L 303.255662 163.815091 
L 303.255662 163.815091 
L 303.255662 163.815091 
L 303.255662 163.815091 
L 303.255662 163.815091 
L 303.255662 163.815091 
L 303.255662 163.815091 
L 303.255662 163.815091 
L 303.255662 163.815091 
L 303.255662 163.815091 
L 303.255662 163.815091 
L 303.255662 163.815091 
L 303.255662 163.815091 
L 303.255662 163.815091 
L 303.255662 163.815091 
L 303.255662 163.815091 
L 303.255662 163.815091 
L 303.255662 163.815091 
L 303.255662 163.815091 
L 303.255662 163.815091 
L 303.255662 163.815091 
L 303.255662 163.815091 
L 303.255662 163.815091 
L 303.255662 163.815091 
L 303.255662 163.815091 
L 303.255662 163.815091 
L 303.255662 163.815091 
L 303.255662 163.815091 
L 303.255662 163.815091 
L 303.255662 163.815091 
L 303.255662 163.815091 
L 303.255662 163.815091 
L 303.255662 163.815091 
L 303.255662 163.815091 
L 303.255662 163.815091 
L 303.255662 163.815091 
L 303.255662 163.815091 
L 303.255662 163.815091 
L 303.255662 163.815091 
L 303.255662 163.815091 
L 234.953514 128.162195 
L 234.953514 128.162195 
L 234.953514 128.162195 
L 234.953514 128.162195 
L 234.953514 128.162195 
L 234.953514 128.162195 
L 234.953514 128.162195 
L 234.953514 128.162195 
L 234.953514 128.162195 
L 234.953514 128.162195 
L 234.953514 128.162195 
L 234.953514 128.162195 
L 234.953514 128.162195 
L 234.953514 128.162195 
L 234.953514 128.162195 
L 234.953514 128.162195 
L 234.953514 128.162195 
L 234.953514 128.162195 
L 234.953514 128.162195 
L 234.953514 128.162195 
L 234.953514 128.162195 
L 234.953514 128.162195 
L 234.953514 128.162195 
L 234.953514 128.162195 
L 234.953514 128.162195 
L 234.953514 128.162195 
L 234.953514 128.162195 
L 234.953514 128.162195 
L 234.953514 128.162195 
L 234.953514 128.162195 
L 234.953514 128.162195 
L 234.953514 128.162195 
L 234.953514 128.162195 
L 234.953514 128.162195 
L 234.953514 128.162195 
L 234.953514 128.162195 
L 234.953514 128.162195 
L 234.953514 128.162195 
L 234.953514 128.162195 
L 234.953514 128.162195 
" clip-path="url(#p0fa483e737)" style="fill: none; stroke: #000000; stroke-width: 3; stroke-linecap: square"/>
   </g>
   <g id="Path3DCollection_1">
    <defs>
     <path id="C0_0_09a53d6514" d="M 0 2.236068 
C 0.593012 2.236068 1.161816 2.000462 1.581139 1.581139 
C 2.000462 1.161816 2.236068 0.593012 2.236068 -0 
C 2.236068 -0.593012 2.000462 -1.161816 1.581139 -1.581139 
C 1.161816 -2.000462 0.593012 -2.236068 0 -2.236068 
C -0.593012 -2.236068 -1.161816 -2.000462 -1.581139 -1.581139 
C -2.000462 -1.161816 -2.236068 -0.593012 -2.236068 0 
C -2.236068 0.593012 -2.000462 1.161816 -1.581139 1.581139 
C -1.161816 2.000462 -0.593012 2.236068 0 2.236068 
z
"/>
    </defs>
    <g clip-path="url(#p0fa483e737)">
     <use xlink:href="#C0_0_09a53d6514" x="303.255662" y="163.815091" style="fill: #77ff80; fill-opacity: 0.3; stroke: #77ff80; stroke-opacity: 0.3; stroke-width: 5"/>
    </g>
    <g clip-path="url(#p0fa483e737)">
     <use xlink:href="#C0_0_09a53d6514" x="303.255662" y="163.815091" style="fill: #fbf100; fill-opacity: 0.3; stroke: #fbf100; stroke-opacity: 0.3; stroke-width: 5"/>
    </g>
    <g clip-path="url(#p0fa483e737)">
     <use xlink:href="#C0_0_09a53d6514" x="303.255662" y="163.815091" style="fill: #87ff70; fill-opacity: 0.3; stroke: #87ff70; stroke-opacity: 0.3; stroke-width: 5"/>
    </g>
    <g clip-path="url(#p0fa483e737)">
     <use xlink:href="#C0_0_09a53d6514" x="303.255662" y="163.815091" style="fill: #8dff6a; fill-opacity: 0.3; stroke: #8dff6a; stroke-opacity: 0.3; stroke-width: 5"/>
    </g>
    <g clip-path="url(#p0fa483e737)">
     <use xlink:href="#C0_0_09a53d6514" x="303.255662" y="163.815091" style="fill: #94ff63; fill-opacity: 0.3; stroke: #94ff63; stroke-opacity: 0.3; stroke-width: 5"/>
    </g>
    <g clip-path="url(#p0fa483e737)">
     <use xlink:href="#C0_0_09a53d6514" x="303.255662" y="163.815091" style="fill: #9aff5d; fill-opacity: 0.3; stroke: #9aff5d; stroke-opacity: 0.3; stroke-width: 5"/>
    </g>
    <g clip-path="url(#p0fa483e737)">
     <use xlink:href="#C0_0_09a53d6514" x="303.255662" y="163.815091" style="fill: #a0ff56; fill-opacity: 0.3; stroke: #a0ff56; stroke-opacity: 0.3; stroke-width: 5"/>
    </g>
    <g clip-path="url(#p0fa483e737)">
     <use xlink:href="#C0_0_09a53d6514" x="303.255662" y="163.815091" style="fill: #a7ff50; fill-opacity: 0.3; stroke: #a7ff50; stroke-opacity: 0.3; stroke-width: 5"/>
    </g>
    <g clip-path="url(#p0fa483e737)">
     <use xlink:href="#C0_0_09a53d6514" x="303.255662" y="163.815091" style="fill: #b1ff46; fill-opacity: 0.3; stroke: #b1ff46; stroke-opacity: 0.3; stroke-width: 5"/>
    </g>
    <g clip-path="url(#p0fa483e737)">
     <use xlink:href="#C0_0_09a53d6514" x="303.255662" y="163.815091" style="fill: #b7ff40; fill-opacity: 0.3; stroke: #b7ff40; stroke-opacity: 0.3; stroke-width: 5"/>
    </g>
    <g clip-path="url(#p0fa483e737)">
     <use xlink:href="#C0_0_09a53d6514" x="303.255662" y="163.815091" style="fill: #beff39; fill-opacity: 0.3; stroke: #beff39; stroke-opacity: 0.3; stroke-width: 5"/>
    </g>
    <g clip-path="url(#p0fa483e737)">
     <use xlink:href="#C0_0_09a53d6514" x="303.255662" y="163.815091" style="fill: #c4ff33; fill-opacity: 0.3; stroke: #c4ff33; stroke-opacity: 0.3; stroke-width: 5"/>
    </g>
    <g clip-path="url(#p0fa483e737)">
     <use xlink:href="#C0_0_09a53d6514" x="303.255662" y="163.815091" style="fill: #caff2c; fill-opacity: 0.3; stroke: #caff2c; stroke-opacity: 0.3; stroke-width: 5"/>
    </g>
    <g clip-path="url(#p0fa483e737)">
     <use xlink:href="#C0_0_09a53d6514" x="303.255662" y="163.815091" style="fill: #d1ff26; fill-opacity: 0.3; stroke: #d1ff26; stroke-opacity: 0.3; stroke-width: 5"/>
    </g>
    <g clip-path="url(#p0fa483e737)">
     <use xlink:href="#C0_0_09a53d6514" x="303.255662" y="163.815091" style="fill: #dbff1c; fill-opacity: 0.3; stroke: #dbff1c; stroke-opacity: 0.3; stroke-width: 5"/>
    </g>
    <g clip-path="url(#p0fa483e737)">
     <use xlink:href="#C0_0_09a53d6514" x="303.255662" y="163.815091" style="fill: #e1ff16; fill-opacity: 0.3; stroke: #e1ff16; stroke-opacity: 0.3; stroke-width: 5"/>
    </g>
    <g clip-path="url(#p0fa483e737)">
     <use xlink:href="#C0_0_09a53d6514" x="303.255662" y="163.815091" style="fill: #e7ff0f; fill-opacity: 0.3; stroke: #e7ff0f; stroke-opacity: 0.3; stroke-width: 5"/>
    </g>
    <g clip-path="url(#p0fa483e737)">
     <use xlink:href="#C0_0_09a53d6514" x="303.255662" y="163.815091" style="fill: #eeff09; fill-opacity: 0.3; stroke: #eeff09; stroke-opacity: 0.3; stroke-width: 5"/>
    </g>
    <g clip-path="url(#p0fa483e737)">
     <use xlink:href="#C0_0_09a53d6514" x="303.255662" y="163.815091" style="fill: #f4f802; fill-opacity: 0.3; stroke: #f4f802; stroke-opacity: 0.3; stroke-width: 5"/>
    </g>
    <g clip-path="url(#p0fa483e737)">
     <use xlink:href="#C0_0_09a53d6514" x="303.255662" y="163.815091" style="fill: #80ff77; fill-opacity: 0.3; stroke: #80ff77; stroke-opacity: 0.3; stroke-width: 5"/>
    </g>
    <g clip-path="url(#p0fa483e737)">
     <use xlink:href="#C0_0_09a53d6514" x="303.255662" y="163.815091" style="fill: #70ff87; fill-opacity: 0.3; stroke: #70ff87; stroke-opacity: 0.3; stroke-width: 5"/>
    </g>
    <g clip-path="url(#p0fa483e737)">
     <use xlink:href="#C0_0_09a53d6514" x="303.255662" y="163.815091" style="fill: #2cffca; fill-opacity: 0.3; stroke: #2cffca; stroke-opacity: 0.3; stroke-width: 5"/>
    </g>
    <g clip-path="url(#p0fa483e737)">
     <use xlink:href="#C0_0_09a53d6514" x="303.255662" y="163.815091" style="fill: #6aff8d; fill-opacity: 0.3; stroke: #6aff8d; stroke-opacity: 0.3; stroke-width: 5"/>
    </g>
    <g clip-path="url(#p0fa483e737)">
     <use xlink:href="#C0_0_09a53d6514" x="303.255662" y="163.815091" style="fill: #00d8ff; fill-opacity: 0.3; stroke: #00d8ff; stroke-opacity: 0.3; stroke-width: 5"/>
    </g>
    <g clip-path="url(#p0fa483e737)">
     <use xlink:href="#C0_0_09a53d6514" x="303.255662" y="163.815091" style="fill: #00e0fb; fill-opacity: 0.3; stroke: #00e0fb; stroke-opacity: 0.3; stroke-width: 5"/>
    </g>
    <g clip-path="url(#p0fa483e737)">
     <use xlink:href="#C0_0_09a53d6514" x="303.255662" y="163.815091" style="fill: #02e8f4; fill-opacity: 0.3; stroke: #02e8f4; stroke-opacity: 0.3; stroke-width: 5"/>
    </g>
    <g clip-path="url(#p0fa483e737)">
     <use xlink:href="#C0_0_09a53d6514" x="303.255662" y="163.815091" style="fill: #09f0ee; fill-opacity: 0.3; stroke: #09f0ee; stroke-opacity: 0.3; stroke-width: 5"/>
    </g>
    <g clip-path="url(#p0fa483e737)">
     <use xlink:href="#C0_0_09a53d6514" x="303.255662" y="163.815091" style="fill: #0ff8e7; fill-opacity: 0.3; stroke: #0ff8e7; stroke-opacity: 0.3; stroke-width: 5"/>
    </g>
    <g clip-path="url(#p0fa483e737)">
     <use xlink:href="#C0_0_09a53d6514" x="303.255662" y="163.815091" style="fill: #16ffe1; fill-opacity: 0.3; stroke: #16ffe1; stroke-opacity: 0.3; stroke-width: 5"/>
    </g>
    <g clip-path="url(#p0fa483e737)">
     <use xlink:href="#C0_0_09a53d6514" x="303.255662" y="163.815091" style="fill: #1cffdb; fill-opacity: 0.3; stroke: #1cffdb; stroke-opacity: 0.3; stroke-width: 5"/>
    </g>
    <g clip-path="url(#p0fa483e737)">
     <use xlink:href="#C0_0_09a53d6514" x="303.255662" y="163.815091" style="fill: #26ffd1; fill-opacity: 0.3; stroke: #26ffd1; stroke-opacity: 0.3; stroke-width: 5"/>
    </g>
    <g clip-path="url(#p0fa483e737)">
     <use xlink:href="#C0_0_09a53d6514" x="303.255662" y="163.815091" style="fill: #ffea00; fill-opacity: 0.3; stroke: #ffea00; stroke-opacity: 0.3; stroke-width: 5"/>
    </g>
    <g clip-path="url(#p0fa483e737)">
     <use xlink:href="#C0_0_09a53d6514" x="303.255662" y="163.815091" style="fill: #33ffc4; fill-opacity: 0.3; stroke: #33ffc4; stroke-opacity: 0.3; stroke-width: 5"/>
    </g>
    <g clip-path="url(#p0fa483e737)">
     <use xlink:href="#C0_0_09a53d6514" x="303.255662" y="163.815091" style="fill: #39ffbe; fill-opacity: 0.3; stroke: #39ffbe; stroke-opacity: 0.3; stroke-width: 5"/>
    </g>
    <g clip-path="url(#p0fa483e737)">
     <use xlink:href="#C0_0_09a53d6514" x="303.255662" y="163.815091" style="fill: #40ffb7; fill-opacity: 0.3; stroke: #40ffb7; stroke-opacity: 0.3; stroke-width: 5"/>
    </g>
    <g clip-path="url(#p0fa483e737)">
     <use xlink:href="#C0_0_09a53d6514" x="303.255662" y="163.815091" style="fill: #46ffb1; fill-opacity: 0.3; stroke: #46ffb1; stroke-opacity: 0.3; stroke-width: 5"/>
    </g>
    <g clip-path="url(#p0fa483e737)">
     <use xlink:href="#C0_0_09a53d6514" x="303.255662" y="163.815091" style="fill: #50ffa7; fill-opacity: 0.3; stroke: #50ffa7; stroke-opacity: 0.3; stroke-width: 5"/>
    </g>
    <g clip-path="url(#p0fa483e737)">
     <use xlink:href="#C0_0_09a53d6514" x="303.255662" y="163.815091" style="fill: #56ffa0; fill-opacity: 0.3; stroke: #56ffa0; stroke-opacity: 0.3; stroke-width: 5"/>
    </g>
    <g clip-path="url(#p0fa483e737)">
     <use xlink:href="#C0_0_09a53d6514" x="303.255662" y="163.815091" style="fill: #5dff9a; fill-opacity: 0.3; stroke: #5dff9a; stroke-opacity: 0.3; stroke-width: 5"/>
    </g>
    <g clip-path="url(#p0fa483e737)">
     <use xlink:href="#C0_0_09a53d6514" x="303.255662" y="163.815091" style="fill: #63ff94; fill-opacity: 0.3; stroke: #63ff94; stroke-opacity: 0.3; stroke-width: 5"/>
    </g>
    <g clip-path="url(#p0fa483e737)">
     <use xlink:href="#C0_0_09a53d6514" x="234.953514" y="128.162195" style="fill: #890000; fill-opacity: 0.963322; stroke: #890000; stroke-opacity: 0.963322; stroke-width: 5"/>
    </g>
    <g clip-path="url(#p0fa483e737)">
     <use xlink:href="#C0_0_09a53d6514" x="234.953514" y="128.162195" style="fill: #800000; fill-opacity: 0.963322; stroke: #800000; stroke-opacity: 0.963322; stroke-width: 5"/>
    </g>
    <g clip-path="url(#p0fa483e737)">
     <use xlink:href="#C0_0_09a53d6514" x="234.953514" y="128.162195" style="fill: #ffde00; fill-opacity: 0.963322; stroke: #ffde00; stroke-opacity: 0.963322; stroke-width: 5"/>
    </g>
    <g clip-path="url(#p0fa483e737)">
     <use xlink:href="#C0_0_09a53d6514" x="234.953514" y="128.162195" style="fill: #d60000; fill-opacity: 0.963322; stroke: #d60000; stroke-opacity: 0.963322; stroke-width: 5"/>
    </g>
    <g clip-path="url(#p0fa483e737)">
     <use xlink:href="#C0_0_09a53d6514" x="234.953514" y="128.162195" style="fill: #ff3000; fill-opacity: 0.963322; stroke: #ff3000; stroke-opacity: 0.963322; stroke-width: 5"/>
    </g>
    <g clip-path="url(#p0fa483e737)">
     <use xlink:href="#C0_0_09a53d6514" x="234.953514" y="128.162195" style="fill: #ff2900; fill-opacity: 0.963322; stroke: #ff2900; stroke-opacity: 0.963322; stroke-width: 5"/>
    </g>
    <g clip-path="url(#p0fa483e737)">
     <use xlink:href="#C0_0_09a53d6514" x="234.953514" y="128.162195" style="fill: #ff2200; fill-opacity: 0.963322; stroke: #ff2200; stroke-opacity: 0.963322; stroke-width: 5"/>
    </g>
    <g clip-path="url(#p0fa483e737)">
     <use xlink:href="#C0_0_09a53d6514" x="234.953514" y="128.162195" style="fill: #ff1a00; fill-opacity: 0.963322; stroke: #ff1a00; stroke-opacity: 0.963322; stroke-width: 5"/>
    </g>
    <g clip-path="url(#p0fa483e737)">
     <use xlink:href="#C0_0_09a53d6514" x="234.953514" y="128.162195" style="fill: #fa0f00; fill-opacity: 0.963322; stroke: #fa0f00; stroke-opacity: 0.963322; stroke-width: 5"/>
    </g>
    <g clip-path="url(#p0fa483e737)">
     <use xlink:href="#C0_0_09a53d6514" x="234.953514" y="128.162195" style="fill: #f10800; fill-opacity: 0.963322; stroke: #f10800; stroke-opacity: 0.963322; stroke-width: 5"/>
    </g>
    <g clip-path="url(#p0fa483e737)">
     <use xlink:href="#C0_0_09a53d6514" x="234.953514" y="128.162195" style="fill: #df0000; fill-opacity: 0.963322; stroke: #df0000; stroke-opacity: 0.963322; stroke-width: 5"/>
    </g>
    <g clip-path="url(#p0fa483e737)">
     <use xlink:href="#C0_0_09a53d6514" x="234.953514" y="128.162195" style="fill: #cd0000; fill-opacity: 0.963322; stroke: #cd0000; stroke-opacity: 0.963322; stroke-width: 5"/>
    </g>
    <g clip-path="url(#p0fa483e737)">
     <use xlink:href="#C0_0_09a53d6514" x="234.953514" y="128.162195" style="fill: #ff3f00; fill-opacity: 0.963322; stroke: #ff3f00; stroke-opacity: 0.963322; stroke-width: 5"/>
    </g>
    <g clip-path="url(#p0fa483e737)">
     <use xlink:href="#C0_0_09a53d6514" x="234.953514" y="128.162195" style="fill: #c40000; fill-opacity: 0.963322; stroke: #c40000; stroke-opacity: 0.963322; stroke-width: 5"/>
    </g>
    <g clip-path="url(#p0fa483e737)">
     <use xlink:href="#C0_0_09a53d6514" x="234.953514" y="128.162195" style="fill: #b60000; fill-opacity: 0.963322; stroke: #b60000; stroke-opacity: 0.963322; stroke-width: 5"/>
    </g>
    <g clip-path="url(#p0fa483e737)">
     <use xlink:href="#C0_0_09a53d6514" x="234.953514" y="128.162195" style="fill: #ad0000; fill-opacity: 0.963322; stroke: #ad0000; stroke-opacity: 0.963322; stroke-width: 5"/>
    </g>
    <g clip-path="url(#p0fa483e737)">
     <use xlink:href="#C0_0_09a53d6514" x="234.953514" y="128.162195" style="fill: #a40000; fill-opacity: 0.963322; stroke: #a40000; stroke-opacity: 0.963322; stroke-width: 5"/>
    </g>
    <g clip-path="url(#p0fa483e737)">
     <use xlink:href="#C0_0_09a53d6514" x="234.953514" y="128.162195" style="fill: #9b0000; fill-opacity: 0.963322; stroke: #9b0000; stroke-opacity: 0.963322; stroke-width: 5"/>
    </g>
    <g clip-path="url(#p0fa483e737)">
     <use xlink:href="#C0_0_09a53d6514" x="234.953514" y="128.162195" style="fill: #920000; fill-opacity: 0.963322; stroke: #920000; stroke-opacity: 0.963322; stroke-width: 5"/>
    </g>
    <g clip-path="url(#p0fa483e737)">
     <use xlink:href="#C0_0_09a53d6514" x="234.953514" y="128.162195" style="fill: #ffd700; fill-opacity: 0.963322; stroke: #ffd700; stroke-opacity: 0.963322; stroke-width: 5"/>
    </g>
    <g clip-path="url(#p0fa483e737)">
     <use xlink:href="#C0_0_09a53d6514" x="234.953514" y="128.162195" style="fill: #ff3800; fill-opacity: 0.963322; stroke: #ff3800; stroke-opacity: 0.963322; stroke-width: 5"/>
    </g>
    <g clip-path="url(#p0fa483e737)">
     <use xlink:href="#C0_0_09a53d6514" x="234.953514" y="128.162195" style="fill: #e80000; fill-opacity: 0.963322; stroke: #e80000; stroke-opacity: 0.963322; stroke-width: 5"/>
    </g>
    <g clip-path="url(#p0fa483e737)">
     <use xlink:href="#C0_0_09a53d6514" x="234.953514" y="128.162195" style="fill: #ff4a00; fill-opacity: 0.963322; stroke: #ff4a00; stroke-opacity: 0.963322; stroke-width: 5"/>
    </g>
    <g clip-path="url(#p0fa483e737)">
     <use xlink:href="#C0_0_09a53d6514" x="234.953514" y="128.162195" style="fill: #ff9100; fill-opacity: 0.963322; stroke: #ff9100; stroke-opacity: 0.963322; stroke-width: 5"/>
    </g>
    <g clip-path="url(#p0fa483e737)">
     <use xlink:href="#C0_0_09a53d6514" x="234.953514" y="128.162195" style="fill: #ffd000; fill-opacity: 0.963322; stroke: #ffd000; stroke-opacity: 0.963322; stroke-width: 5"/>
    </g>
    <g clip-path="url(#p0fa483e737)">
     <use xlink:href="#C0_0_09a53d6514" x="234.953514" y="128.162195" style="fill: #ff5200; fill-opacity: 0.963322; stroke: #ff5200; stroke-opacity: 0.963322; stroke-width: 5"/>
    </g>
    <g clip-path="url(#p0fa483e737)">
     <use xlink:href="#C0_0_09a53d6514" x="234.953514" y="128.162195" style="fill: #ffc800; fill-opacity: 0.963322; stroke: #ffc800; stroke-opacity: 0.963322; stroke-width: 5"/>
    </g>
    <g clip-path="url(#p0fa483e737)">
     <use xlink:href="#C0_0_09a53d6514" x="234.953514" y="128.162195" style="fill: #ffc100; fill-opacity: 0.963322; stroke: #ffc100; stroke-opacity: 0.963322; stroke-width: 5"/>
    </g>
    <g clip-path="url(#p0fa483e737)">
     <use xlink:href="#C0_0_09a53d6514" x="234.953514" y="128.162195" style="fill: #ffb900; fill-opacity: 0.963322; stroke: #ffb900; stroke-opacity: 0.963322; stroke-width: 5"/>
    </g>
    <g clip-path="url(#p0fa483e737)">
     <use xlink:href="#C0_0_09a53d6514" x="234.953514" y="128.162195" style="fill: #ffae00; fill-opacity: 0.963322; stroke: #ffae00; stroke-opacity: 0.963322; stroke-width: 5"/>
    </g>
    <g clip-path="url(#p0fa483e737)">
     <use xlink:href="#C0_0_09a53d6514" x="234.953514" y="128.162195" style="fill: #ff9f00; fill-opacity: 0.963322; stroke: #ff9f00; stroke-opacity: 0.963322; stroke-width: 5"/>
    </g>
    <g clip-path="url(#p0fa483e737)">
     <use xlink:href="#C0_0_09a53d6514" x="234.953514" y="128.162195" style="fill: #ff9800; fill-opacity: 0.963322; stroke: #ff9800; stroke-opacity: 0.963322; stroke-width: 5"/>
    </g>
    <g clip-path="url(#p0fa483e737)">
     <use xlink:href="#C0_0_09a53d6514" x="234.953514" y="128.162195" style="fill: #ffa700; fill-opacity: 0.963322; stroke: #ffa700; stroke-opacity: 0.963322; stroke-width: 5"/>
    </g>
    <g clip-path="url(#p0fa483e737)">
     <use xlink:href="#C0_0_09a53d6514" x="234.953514" y="128.162195" style="fill: #ff8900; fill-opacity: 0.963322; stroke: #ff8900; stroke-opacity: 0.963322; stroke-width: 5"/>
    </g>
    <g clip-path="url(#p0fa483e737)">
     <use xlink:href="#C0_0_09a53d6514" x="234.953514" y="128.162195" style="fill: #ff8200; fill-opacity: 0.963322; stroke: #ff8200; stroke-opacity: 0.963322; stroke-width: 5"/>
    </g>
    <g clip-path="url(#p0fa483e737)">
     <use xlink:href="#C0_0_09a53d6514" x="234.953514" y="128.162195" style="fill: #ff7700; fill-opacity: 0.963322; stroke: #ff7700; stroke-opacity: 0.963322; stroke-width: 5"/>
    </g>
    <g clip-path="url(#p0fa483e737)">
     <use xlink:href="#C0_0_09a53d6514" x="234.953514" y="128.162195" style="fill: #ff6f00; fill-opacity: 0.963322; stroke: #ff6f00; stroke-opacity: 0.963322; stroke-width: 5"/>
    </g>
    <g clip-path="url(#p0fa483e737)">
     <use xlink:href="#C0_0_09a53d6514" x="234.953514" y="128.162195" style="fill: #ff6800; fill-opacity: 0.963322; stroke: #ff6800; stroke-opacity: 0.963322; stroke-width: 5"/>
    </g>
    <g clip-path="url(#p0fa483e737)">
     <use xlink:href="#C0_0_09a53d6514" x="234.953514" y="128.162195" style="fill: #ff6000; fill-opacity: 0.963322; stroke: #ff6000; stroke-opacity: 0.963322; stroke-width: 5"/>
    </g>
    <g clip-path="url(#p0fa483e737)">
     <use xlink:href="#C0_0_09a53d6514" x="234.953514" y="128.162195" style="fill: #ff5900; fill-opacity: 0.963322; stroke: #ff5900; stroke-opacity: 0.963322; stroke-width: 5"/>
    </g>
    <g clip-path="url(#p0fa483e737)">
     <use xlink:href="#C0_0_09a53d6514" x="361.80728" y="259.586015" style="fill: #0010ff; stroke: #0010ff; stroke-width: 5"/>
    </g>
    <g clip-path="url(#p0fa483e737)">
     <use xlink:href="#C0_0_09a53d6514" x="361.80728" y="259.586015" style="fill: #0000d6; stroke: #0000d6; stroke-width: 5"/>
    </g>
    <g clip-path="url(#p0fa483e737)">
     <use xlink:href="#C0_0_09a53d6514" x="361.80728" y="259.586015" style="fill: #0008ff; stroke: #0008ff; stroke-width: 5"/>
    </g>
    <g clip-path="url(#p0fa483e737)">
     <use xlink:href="#C0_0_09a53d6514" x="361.80728" y="259.586015" style="fill: #0000ff; stroke: #0000ff; stroke-width: 5"/>
    </g>
    <g clip-path="url(#p0fa483e737)">
     <use xlink:href="#C0_0_09a53d6514" x="361.80728" y="259.586015" style="fill: #0000ff; stroke: #0000ff; stroke-width: 5"/>
    </g>
    <g clip-path="url(#p0fa483e737)">
     <use xlink:href="#C0_0_09a53d6514" x="361.80728" y="259.586015" style="fill: #0000fa; stroke: #0000fa; stroke-width: 5"/>
    </g>
    <g clip-path="url(#p0fa483e737)">
     <use xlink:href="#C0_0_09a53d6514" x="361.80728" y="259.586015" style="fill: #0000f1; stroke: #0000f1; stroke-width: 5"/>
    </g>
    <g clip-path="url(#p0fa483e737)">
     <use xlink:href="#C0_0_09a53d6514" x="361.80728" y="259.586015" style="fill: #0000e8; stroke: #0000e8; stroke-width: 5"/>
    </g>
    <g clip-path="url(#p0fa483e737)">
     <use xlink:href="#C0_0_09a53d6514" x="361.80728" y="259.586015" style="fill: #0000df; stroke: #0000df; stroke-width: 5"/>
    </g>
    <g clip-path="url(#p0fa483e737)">
     <use xlink:href="#C0_0_09a53d6514" x="361.80728" y="259.586015" style="fill: #000089; stroke: #000089; stroke-width: 5"/>
    </g>
    <g clip-path="url(#p0fa483e737)">
     <use xlink:href="#C0_0_09a53d6514" x="361.80728" y="259.586015" style="fill: #0000cd; stroke: #0000cd; stroke-width: 5"/>
    </g>
    <g clip-path="url(#p0fa483e737)">
     <use xlink:href="#C0_0_09a53d6514" x="361.80728" y="259.586015" style="fill: #0000c4; stroke: #0000c4; stroke-width: 5"/>
    </g>
    <g clip-path="url(#p0fa483e737)">
     <use xlink:href="#C0_0_09a53d6514" x="361.80728" y="259.586015" style="fill: #0000b6; stroke: #0000b6; stroke-width: 5"/>
    </g>
    <g clip-path="url(#p0fa483e737)">
     <use xlink:href="#C0_0_09a53d6514" x="361.80728" y="259.586015" style="fill: #0000ad; stroke: #0000ad; stroke-width: 5"/>
    </g>
    <g clip-path="url(#p0fa483e737)">
     <use xlink:href="#C0_0_09a53d6514" x="361.80728" y="259.586015" style="fill: #0000a4; stroke: #0000a4; stroke-width: 5"/>
    </g>
    <g clip-path="url(#p0fa483e737)">
     <use xlink:href="#C0_0_09a53d6514" x="361.80728" y="259.586015" style="fill: #00009b; stroke: #00009b; stroke-width: 5"/>
    </g>
    <g clip-path="url(#p0fa483e737)">
     <use xlink:href="#C0_0_09a53d6514" x="361.80728" y="259.586015" style="fill: #000092; stroke: #000092; stroke-width: 5"/>
    </g>
    <g clip-path="url(#p0fa483e737)">
     <use xlink:href="#C0_0_09a53d6514" x="361.80728" y="259.586015" style="fill: #0020ff; stroke: #0020ff; stroke-width: 5"/>
    </g>
    <g clip-path="url(#p0fa483e737)">
     <use xlink:href="#C0_0_09a53d6514" x="361.80728" y="259.586015" style="fill: #0018ff; stroke: #0018ff; stroke-width: 5"/>
    </g>
    <g clip-path="url(#p0fa483e737)">
     <use xlink:href="#C0_0_09a53d6514" x="361.80728" y="259.586015" style="fill: #00c4ff; stroke: #00c4ff; stroke-width: 5"/>
    </g>
    <g clip-path="url(#p0fa483e737)">
     <use xlink:href="#C0_0_09a53d6514" x="361.80728" y="259.586015" style="fill: #002cff; stroke: #002cff; stroke-width: 5"/>
    </g>
    <g clip-path="url(#p0fa483e737)">
     <use xlink:href="#C0_0_09a53d6514" x="361.80728" y="259.586015" style="fill: #0034ff; stroke: #0034ff; stroke-width: 5"/>
    </g>
    <g clip-path="url(#p0fa483e737)">
     <use xlink:href="#C0_0_09a53d6514" x="361.80728" y="259.586015" style="fill: #00ccff; stroke: #00ccff; stroke-width: 5"/>
    </g>
    <g clip-path="url(#p0fa483e737)">
     <use xlink:href="#C0_0_09a53d6514" x="361.80728" y="259.586015" style="fill: #00bcff; stroke: #00bcff; stroke-width: 5"/>
    </g>
    <g clip-path="url(#p0fa483e737)">
     <use xlink:href="#C0_0_09a53d6514" x="361.80728" y="259.586015" style="fill: #00b4ff; stroke: #00b4ff; stroke-width: 5"/>
    </g>
    <g clip-path="url(#p0fa483e737)">
     <use xlink:href="#C0_0_09a53d6514" x="361.80728" y="259.586015" style="fill: #00acff; stroke: #00acff; stroke-width: 5"/>
    </g>
    <g clip-path="url(#p0fa483e737)">
     <use xlink:href="#C0_0_09a53d6514" x="361.80728" y="259.586015" style="fill: #00a4ff; stroke: #00a4ff; stroke-width: 5"/>
    </g>
    <g clip-path="url(#p0fa483e737)">
     <use xlink:href="#C0_0_09a53d6514" x="361.80728" y="259.586015" style="fill: #0098ff; stroke: #0098ff; stroke-width: 5"/>
    </g>
    <g clip-path="url(#p0fa483e737)">
     <use xlink:href="#C0_0_09a53d6514" x="361.80728" y="259.586015" style="fill: #0090ff; stroke: #0090ff; stroke-width: 5"/>
    </g>
    <g clip-path="url(#p0fa483e737)">
     <use xlink:href="#C0_0_09a53d6514" x="361.80728" y="259.586015" style="fill: #0088ff; stroke: #0088ff; stroke-width: 5"/>
    </g>
    <g clip-path="url(#p0fa483e737)">
     <use xlink:href="#C0_0_09a53d6514" x="361.80728" y="259.586015" style="fill: #0080ff; stroke: #0080ff; stroke-width: 5"/>
    </g>
    <g clip-path="url(#p0fa483e737)">
     <use xlink:href="#C0_0_09a53d6514" x="361.80728" y="259.586015" style="fill: #0078ff; stroke: #0078ff; stroke-width: 5"/>
    </g>
    <g clip-path="url(#p0fa483e737)">
     <use xlink:href="#C0_0_09a53d6514" x="361.80728" y="259.586015" style="fill: #0070ff; stroke: #0070ff; stroke-width: 5"/>
    </g>
    <g clip-path="url(#p0fa483e737)">
     <use xlink:href="#C0_0_09a53d6514" x="361.80728" y="259.586015" style="fill: #0068ff; stroke: #0068ff; stroke-width: 5"/>
    </g>
    <g clip-path="url(#p0fa483e737)">
     <use xlink:href="#C0_0_09a53d6514" x="361.80728" y="259.586015" style="fill: #005cff; stroke: #005cff; stroke-width: 5"/>
    </g>
    <g clip-path="url(#p0fa483e737)">
     <use xlink:href="#C0_0_09a53d6514" x="361.80728" y="259.586015" style="fill: #0054ff; stroke: #0054ff; stroke-width: 5"/>
    </g>
    <g clip-path="url(#p0fa483e737)">
     <use xlink:href="#C0_0_09a53d6514" x="361.80728" y="259.586015" style="fill: #004cff; stroke: #004cff; stroke-width: 5"/>
    </g>
    <g clip-path="url(#p0fa483e737)">
     <use xlink:href="#C0_0_09a53d6514" x="361.80728" y="259.586015" style="fill: #0044ff; stroke: #0044ff; stroke-width: 5"/>
    </g>
    <g clip-path="url(#p0fa483e737)">
     <use xlink:href="#C0_0_09a53d6514" x="361.80728" y="259.586015" style="fill: #003cff; stroke: #003cff; stroke-width: 5"/>
    </g>
    <g clip-path="url(#p0fa483e737)">
     <use xlink:href="#C0_0_09a53d6514" x="361.80728" y="259.586015" style="fill: #000080; stroke: #000080; stroke-width: 5"/>
    </g>
   </g>
  </g>
 </g>
 <defs>
  <clipPath id="p0fa483e737">
   <rect x="7.2" y="7.2" width="443.52" height="443.52"/>
  </clipPath>
 </defs>
</svg>
