<?xml version="1.0" encoding="utf-8" standalone="no"?>
<!DOCTYPE svg PUBLIC "-//W3C//DTD SVG 1.1//EN"
  "http://www.w3.org/Graphics/SVG/1.1/DTD/svg11.dtd">
<svg xmlns:xlink="http://www.w3.org/1999/xlink" width="469.336208pt" height="464.759434pt" viewBox="0 0 469.336208 464.759434" xmlns="http://www.w3.org/2000/svg" version="1.1">
 <metadata>
  <rdf:RDF xmlns:dc="http://purl.org/dc/elements/1.1/" xmlns:cc="http://creativecommons.org/ns#" xmlns:rdf="http://www.w3.org/1999/02/22-rdf-syntax-ns#">
   <cc:Work>
    <dc:type rdf:resource="http://purl.org/dc/dcmitype/StillImage"/>
    <dc:date>2025-10-30T15:54:31.212711</dc:date>
    <dc:format>image/svg+xml</dc:format>
    <dc:creator>
     <cc:Agent>
      <dc:title>Matplotlib v3.10.6, https://matplotlib.org/</dc:title>
     </cc:Agent>
    </dc:creator>
   </cc:Work>
  </rdf:RDF>
 </metadata>
 <defs>
  <style type="text/css">*{stroke-linejoin: round; stroke-linecap: butt}</style>
 </defs>
 <g id="figure_1">
  <g id="patch_1">
   <path d="M 0 464.759434 
L 469.336208 464.759434 
L 469.336208 0 
L 0 0 
L 0 464.759434 
z
" style="fill: none"/>
  </g>
  <g id="patch_2">
   <path d="M 7.2 450.72 
L 450.72 450.72 
L 450.72 7.2 
L 7.2 7.2 
L 7.2 450.72 
z
" style="fill: none"/>
  </g>
  <g id="pane3d_1">
   <g id="patch_3">
    <path d="M 40.688819 341.362182 
L 187.153607 218.592492 
L 185.117607 41.536652 
L 31.643723 153.534902 
" style="fill: #ffffff; opacity: 0.5; stroke: #f2f2f2; stroke-linejoin: miter"/>
   </g>
  </g>
  <g id="pane3d_2">
   <g id="patch_4">
    <path d="M 187.153607 218.592492 
L 422.177334 286.90461 
L 430.564503 103.750285 
L 185.117607 41.536652 
" style="fill: #ffffff; opacity: 0.5; stroke: #e6e6e6; stroke-linejoin: miter"/>
   </g>
  </g>
  <g id="pane3d_3">
   <g id="patch_5">
    <path d="M 40.688819 341.362182 
L 289.825448 422.730204 
L 422.177334 286.90461 
L 187.153607 218.592492 
" style="fill: #ffffff; opacity: 0.5; stroke: #ececec; stroke-linejoin: miter"/>
   </g>
  </g>
  <g id="grid3d_1">
   <g id="Line3DCollection_1">
    <path d="M 40.688819 341.362182 
L 187.153607 218.592492 
L 185.117607 41.536652 
" style="fill: none; stroke: #b0b0b0; stroke-width: 0.8"/>
    <path d="M 100.542021 360.910238 
L 243.805905 235.059078 
L 244.18766 56.509188 
" style="fill: none; stroke: #b0b0b0; stroke-width: 0.8"/>
    <path d="M 161.973136 380.973639 
L 301.826747 251.923446 
L 304.746975 71.859209 
" style="fill: none; stroke: #b0b0b0; stroke-width: 0.8"/>
    <path d="M 225.045393 401.573038 
L 361.26633 269.200186 
L 366.852593 87.601173 
" style="fill: none; stroke: #b0b0b0; stroke-width: 0.8"/>
    <path d="M 289.825448 422.730204 
L 422.177334 286.90461 
L 430.564503 103.750285 
" style="fill: none; stroke: #b0b0b0; stroke-width: 0.8"/>
   </g>
  </g>
  <g id="grid3d_2">
   <g id="Line3DCollection_2">
    <path d="M 31.643723 153.534902 
L 40.688819 341.362182 
L 289.825448 422.730204 
" style="fill: none; stroke: #b0b0b0; stroke-width: 0.8"/>
    <path d="M 72.630922 123.624311 
L 79.695383 308.666106 
L 325.187752 386.439781 
" style="fill: none; stroke: #b0b0b0; stroke-width: 0.8"/>
    <path d="M 111.794632 95.044419 
L 117.040492 277.362695 
L 358.965911 351.77508 
" style="fill: none; stroke: #b0b0b0; stroke-width: 0.8"/>
    <path d="M 149.253894 67.708356 
L 152.828084 247.364826 
L 391.264043 318.629252 
" style="fill: none; stroke: #b0b0b0; stroke-width: 0.8"/>
    <path d="M 185.117607 41.536652 
L 187.153607 218.592492 
L 422.177334 286.90461 
" style="fill: none; stroke: #b0b0b0; stroke-width: 0.8"/>
   </g>
  </g>
  <g id="grid3d_3">
   <g id="Line3DCollection_3">
    <path d="M 422.177334 286.90461 
L 187.153607 218.592492 
L 40.688819 341.362182 
" style="fill: none; stroke: #b0b0b0; stroke-width: 0.8"/>
    <path d="M 424.205968 242.604433 
L 186.660364 175.6988 
L 38.503845 295.989789 
" style="fill: none; stroke: #b0b0b0; stroke-width: 0.8"/>
    <path d="M 426.279045 197.333726 
L 186.156835 131.910645 
L 36.269162 249.585142 
" style="fill: none; stroke: #b0b0b0; stroke-width: 0.8"/>
    <path d="M 428.398042 151.06024 
L 185.642696 87.199755 
L 33.983053 202.11261 
" style="fill: none; stroke: #b0b0b0; stroke-width: 0.8"/>
    <path d="M 430.564503 103.750285 
L 185.117607 41.536652 
L 31.643723 153.534902 
" style="fill: none; stroke: #b0b0b0; stroke-width: 0.8"/>
   </g>
  </g>
  <g id="axis3d_1">
   <g id="line2d_1">
    <path d="M 40.688819 341.362182 
L 289.825448 422.730204 
" style="fill: none; stroke: #000000; stroke-width: 0.8; stroke-linecap: square"/>
   </g>
   <g id="xtick_1">
    <g id="line2d_2">
     <path d="M 41.963887 340.293394 
L 38.133228 343.504328 
" style="fill: none; stroke: #000000; stroke-width: 0.8; stroke-linecap: square"/>
    </g>
    <g id="text_1">
     <!-- −1.0 -->
     <g transform="translate(15.023022 370.874731) scale(0.2 -0.2)">
      <defs>
       <path id="TimesNewRomanPSMT-2212" d="M 3484 2000 
L 116 2000 
L 116 2256 
L 3484 2256 
L 3484 2000 
z
" transform="scale(0.015625)"/>
       <path id="TimesNewRomanPSMT-31" d="M 750 3822 
L 1781 4325 
L 1884 4325 
L 1884 747 
Q 1884 391 1914 303 
Q 1944 216 2037 169 
Q 2131 122 2419 116 
L 2419 0 
L 825 0 
L 825 116 
Q 1125 122 1212 167 
Q 1300 213 1334 289 
Q 1369 366 1369 747 
L 1369 3034 
Q 1369 3497 1338 3628 
Q 1316 3728 1258 3775 
Q 1200 3822 1119 3822 
Q 1003 3822 797 3725 
L 750 3822 
z
" transform="scale(0.015625)"/>
       <path id="TimesNewRomanPSMT-2e" d="M 800 606 
Q 947 606 1047 504 
Q 1147 403 1147 259 
Q 1147 116 1045 14 
Q 944 -88 800 -88 
Q 656 -88 554 14 
Q 453 116 453 259 
Q 453 406 554 506 
Q 656 606 800 606 
z
" transform="scale(0.015625)"/>
       <path id="TimesNewRomanPSMT-30" d="M 231 2094 
Q 231 2819 450 3342 
Q 669 3866 1031 4122 
Q 1313 4325 1613 4325 
Q 2100 4325 2488 3828 
Q 2972 3213 2972 2159 
Q 2972 1422 2759 906 
Q 2547 391 2217 158 
Q 1888 -75 1581 -75 
Q 975 -75 572 641 
Q 231 1244 231 2094 
z
M 844 2016 
Q 844 1141 1059 588 
Q 1238 122 1591 122 
Q 1759 122 1940 273 
Q 2122 425 2216 781 
Q 2359 1319 2359 2297 
Q 2359 3022 2209 3506 
Q 2097 3866 1919 4016 
Q 1791 4119 1609 4119 
Q 1397 4119 1231 3928 
Q 1006 3669 925 3112 
Q 844 2556 844 2016 
z
" transform="scale(0.015625)"/>
      </defs>
      <use xlink:href="#TimesNewRomanPSMT-2212"/>
      <use xlink:href="#TimesNewRomanPSMT-31" transform="translate(56.396484 0)"/>
      <use xlink:href="#TimesNewRomanPSMT-2e" transform="translate(106.396484 0)"/>
      <use xlink:href="#TimesNewRomanPSMT-30" transform="translate(131.396484 0)"/>
     </g>
    </g>
   </g>
   <g id="xtick_2">
    <g id="line2d_3">
     <path d="M 101.790538 359.813469 
L 98.039578 363.108526 
" style="fill: none; stroke: #000000; stroke-width: 0.8; stroke-linecap: square"/>
    </g>
    <g id="text_2">
     <!-- −0.5 -->
     <g transform="translate(74.912673 390.670484) scale(0.2 -0.2)">
      <defs>
       <path id="TimesNewRomanPSMT-35" d="M 2778 4238 
L 2534 3706 
L 1259 3706 
L 981 3138 
Q 1809 3016 2294 2522 
Q 2709 2097 2709 1522 
Q 2709 1188 2573 903 
Q 2438 619 2231 419 
Q 2025 219 1772 97 
Q 1413 -75 1034 -75 
Q 653 -75 479 54 
Q 306 184 306 341 
Q 306 428 378 495 
Q 450 563 559 563 
Q 641 563 702 538 
Q 763 513 909 409 
Q 1144 247 1384 247 
Q 1750 247 2026 523 
Q 2303 800 2303 1197 
Q 2303 1581 2056 1914 
Q 1809 2247 1375 2428 
Q 1034 2569 447 2591 
L 1259 4238 
L 2778 4238 
z
" transform="scale(0.015625)"/>
      </defs>
      <use xlink:href="#TimesNewRomanPSMT-2212"/>
      <use xlink:href="#TimesNewRomanPSMT-30" transform="translate(56.396484 0)"/>
      <use xlink:href="#TimesNewRomanPSMT-2e" transform="translate(106.396484 0)"/>
      <use xlink:href="#TimesNewRomanPSMT-35" transform="translate(131.396484 0)"/>
     </g>
    </g>
   </g>
   <g id="xtick_3">
    <g id="line2d_4">
     <path d="M 163.193249 379.847777 
L 159.527552 383.230306 
" style="fill: none; stroke: #000000; stroke-width: 0.8; stroke-linecap: square"/>
    </g>
    <g id="text_3">
     <!-- 0.0 -->
     <g transform="translate(142.023857 410.989301) scale(0.2 -0.2)">
      <use xlink:href="#TimesNewRomanPSMT-30"/>
      <use xlink:href="#TimesNewRomanPSMT-2e" transform="translate(50 0)"/>
      <use xlink:href="#TimesNewRomanPSMT-30" transform="translate(75 0)"/>
     </g>
    </g>
   </g>
   <g id="xtick_4">
    <g id="line2d_5">
     <path d="M 226.235131 400.416909 
L 222.660624 403.890441 
" style="fill: none; stroke: #000000; stroke-width: 0.8; stroke-linecap: square"/>
    </g>
    <g id="text_4">
     <!-- 0.5 -->
     <g transform="translate(205.142008 431.852193) scale(0.2 -0.2)">
      <use xlink:href="#TimesNewRomanPSMT-30"/>
      <use xlink:href="#TimesNewRomanPSMT-2e" transform="translate(50 0)"/>
      <use xlink:href="#TimesNewRomanPSMT-35" transform="translate(75 0)"/>
     </g>
    </g>
   </g>
   <g id="xtick_5">
    <g id="line2d_6">
     <path d="M 290.982709 421.542571 
L 287.505709 425.110827 
" style="fill: none; stroke: #000000; stroke-width: 0.8; stroke-linecap: square"/>
    </g>
    <g id="text_5">
     <!-- 1.0 -->
     <g transform="translate(269.973199 453.281309) scale(0.2 -0.2)">
      <use xlink:href="#TimesNewRomanPSMT-31"/>
      <use xlink:href="#TimesNewRomanPSMT-2e" transform="translate(50 0)"/>
      <use xlink:href="#TimesNewRomanPSMT-30" transform="translate(75 0)"/>
     </g>
    </g>
   </g>
  </g>
  <g id="axis3d_2">
   <g id="line2d_7">
    <path d="M 422.177334 286.90461 
L 289.825448 422.730204 
" style="fill: none; stroke: #000000; stroke-width: 0.8; stroke-linecap: square"/>
   </g>
   <g id="xtick_6">
    <g id="line2d_8">
     <path d="M 287.725332 422.044306 
L 294.031145 424.103785 
" style="fill: none; stroke: #000000; stroke-width: 0.8; stroke-linecap: square"/>
    </g>
    <g id="text_6">
     <!-- −1.0 -->
     <g transform="translate(284.637519 450.12131) scale(0.2 -0.2)">
      <use xlink:href="#TimesNewRomanPSMT-2212"/>
      <use xlink:href="#TimesNewRomanPSMT-31" transform="translate(56.396484 0)"/>
      <use xlink:href="#TimesNewRomanPSMT-2e" transform="translate(106.396484 0)"/>
      <use xlink:href="#TimesNewRomanPSMT-30" transform="translate(131.396484 0)"/>
     </g>
    </g>
   </g>
   <g id="xtick_7">
    <g id="line2d_9">
     <path d="M 323.12077 385.784947 
L 329.32697 387.751114 
" style="fill: none; stroke: #000000; stroke-width: 0.8; stroke-linecap: square"/>
    </g>
    <g id="text_7">
     <!-- −0.5 -->
     <g transform="translate(319.715467 413.508572) scale(0.2 -0.2)">
      <use xlink:href="#TimesNewRomanPSMT-2212"/>
      <use xlink:href="#TimesNewRomanPSMT-30" transform="translate(56.396484 0)"/>
      <use xlink:href="#TimesNewRomanPSMT-2e" transform="translate(106.396484 0)"/>
      <use xlink:href="#TimesNewRomanPSMT-35" transform="translate(131.396484 0)"/>
     </g>
    </g>
   </g>
   <g id="xtick_8">
    <g id="line2d_10">
     <path d="M 356.931236 351.149247 
L 363.040318 353.028303 
" style="fill: none; stroke: #000000; stroke-width: 0.8; stroke-linecap: square"/>
    </g>
    <g id="text_8">
     <!-- 0.0 -->
     <g transform="translate(358.860528 378.536561) scale(0.2 -0.2)">
      <use xlink:href="#TimesNewRomanPSMT-30"/>
      <use xlink:href="#TimesNewRomanPSMT-2e" transform="translate(50 0)"/>
      <use xlink:href="#TimesNewRomanPSMT-30" transform="translate(75 0)"/>
     </g>
    </g>
   </g>
   <g id="xtick_9">
    <g id="line2d_11">
     <path d="M 389.260857 318.030535 
L 395.275282 319.828143 
" style="fill: none; stroke: #000000; stroke-width: 0.8; stroke-linecap: square"/>
    </g>
    <g id="text_9">
     <!-- 0.5 -->
     <g transform="translate(390.897928 345.097404) scale(0.2 -0.2)">
      <use xlink:href="#TimesNewRomanPSMT-30"/>
      <use xlink:href="#TimesNewRomanPSMT-2e" transform="translate(50 0)"/>
      <use xlink:href="#TimesNewRomanPSMT-35" transform="translate(75 0)"/>
     </g>
    </g>
   </g>
   <g id="xtick_10">
    <g id="line2d_12">
     <path d="M 420.204838 286.331283 
L 426.127018 288.052628 
" style="fill: none; stroke: #000000; stroke-width: 0.8; stroke-linecap: square"/>
    </g>
    <g id="text_10">
     <!-- 1.0 -->
     <g transform="translate(421.561214 313.092485) scale(0.2 -0.2)">
      <use xlink:href="#TimesNewRomanPSMT-31"/>
      <use xlink:href="#TimesNewRomanPSMT-2e" transform="translate(50 0)"/>
      <use xlink:href="#TimesNewRomanPSMT-30" transform="translate(75 0)"/>
     </g>
    </g>
   </g>
  </g>
  <g id="axis3d_3">
   <g id="line2d_13">
    <path d="M 422.177334 286.90461 
L 430.564503 103.750285 
" style="fill: none; stroke: #000000; stroke-width: 0.8; stroke-linecap: square"/>
   </g>
   <g id="xtick_11">
    <g id="line2d_14">
     <path d="M 420.204838 286.331283 
L 426.127018 288.052628 
" style="fill: none; stroke: #000000; stroke-width: 0.8; stroke-linecap: square"/>
    </g>
    <g id="text_11">
     <!-- −1.0 -->
     <g transform="translate(422.308823 298.183985) scale(0.2 -0.2)">
      <use xlink:href="#TimesNewRomanPSMT-2212"/>
      <use xlink:href="#TimesNewRomanPSMT-31" transform="translate(56.396484 0)"/>
      <use xlink:href="#TimesNewRomanPSMT-2e" transform="translate(106.396484 0)"/>
      <use xlink:href="#TimesNewRomanPSMT-30" transform="translate(131.396484 0)"/>
     </g>
    </g>
   </g>
   <g id="xtick_12">
    <g id="line2d_15">
     <path d="M 422.211296 242.042626 
L 428.200108 243.729398 
" style="fill: none; stroke: #000000; stroke-width: 0.8; stroke-linecap: square"/>
    </g>
    <g id="text_12">
     <!-- −0.5 -->
     <g transform="translate(424.53137 253.936251) scale(0.2 -0.2)">
      <use xlink:href="#TimesNewRomanPSMT-2212"/>
      <use xlink:href="#TimesNewRomanPSMT-30" transform="translate(56.396484 0)"/>
      <use xlink:href="#TimesNewRomanPSMT-2e" transform="translate(106.396484 0)"/>
      <use xlink:href="#TimesNewRomanPSMT-35" transform="translate(131.396484 0)"/>
     </g>
    </g>
   </g>
   <g id="xtick_13">
    <g id="line2d_16">
     <path d="M 424.261693 196.784083 
L 430.318652 198.434347 
" style="fill: none; stroke: #000000; stroke-width: 0.8; stroke-linecap: square"/>
    </g>
    <g id="text_13">
     <!-- 0.0 -->
     <g transform="translate(432.441583 208.72092) scale(0.2 -0.2)">
      <use xlink:href="#TimesNewRomanPSMT-30"/>
      <use xlink:href="#TimesNewRomanPSMT-2e" transform="translate(50 0)"/>
      <use xlink:href="#TimesNewRomanPSMT-30" transform="translate(75 0)"/>
     </g>
    </g>
   </g>
   <g id="xtick_14">
    <g id="line2d_17">
     <path d="M 426.35749 150.523442 
L 432.484162 152.135156 
" style="fill: none; stroke: #000000; stroke-width: 0.8; stroke-linecap: square"/>
    </g>
    <g id="text_14">
     <!-- 0.5 -->
     <g transform="translate(434.762946 162.505901) scale(0.2 -0.2)">
      <use xlink:href="#TimesNewRomanPSMT-30"/>
      <use xlink:href="#TimesNewRomanPSMT-2e" transform="translate(50 0)"/>
      <use xlink:href="#TimesNewRomanPSMT-35" transform="translate(75 0)"/>
     </g>
    </g>
   </g>
   <g id="xtick_15">
    <g id="line2d_18">
     <path d="M 428.50021 103.227047 
L 434.698217 104.798061 
" style="fill: none; stroke: #000000; stroke-width: 0.8; stroke-linecap: square"/>
    </g>
    <g id="text_15">
     <!-- 1.0 -->
     <g transform="translate(437.136208 115.257669) scale(0.2 -0.2)">
      <use xlink:href="#TimesNewRomanPSMT-31"/>
      <use xlink:href="#TimesNewRomanPSMT-2e" transform="translate(50 0)"/>
      <use xlink:href="#TimesNewRomanPSMT-30" transform="translate(75 0)"/>
     </g>
    </g>
   </g>
  </g>
  <g id="axes_1">
   <g id="line2d_19">
    <path d="M 40.688819 341.362182 
L 40.110925 329.361857 
L 39.529584 317.289922 
L 38.944763 305.145736 
L 38.356431 292.928646 
L 37.764557 280.637995 
L 37.169108 268.273116 
L 36.570052 255.833334 
L 35.967357 243.317968 
L 35.360988 230.726326 
L 34.750912 218.057708 
L 34.137096 205.311407 
L 33.519503 192.486706 
L 32.898101 179.58288 
L 32.272853 166.599193 
L 31.643723 153.534902 
L 42.759089 145.423413 
L 53.738138 137.411403 
L 64.583362 129.497053 
L 75.297192 121.678588 
L 85.882002 113.954276 
L 96.340109 106.322426 
L 106.673773 98.781388 
L 116.885204 91.329551 
L 126.976557 83.965341 
L 136.949938 76.687222 
L 146.807403 69.493693 
L 156.550962 62.383288 
L 166.182577 55.354574 
L 175.704167 48.406151 
L 185.117607 41.536652 
L 185.258721 53.808298 
L 185.399038 66.010645 
L 185.538565 78.144277 
L 185.677309 90.209773 
L 185.815275 102.207706 
L 185.952471 114.138641 
L 186.088904 126.003138 
L 186.224578 137.80175 
L 186.359502 149.535026 
L 186.49368 161.203505 
L 186.627119 172.807724 
L 186.759826 184.348211 
L 186.891805 195.82549 
L 187.023064 207.24008 
L 187.153607 218.592492 
L 202.129817 222.945485 
L 217.200823 227.326031 
L 232.367526 231.734393 
L 247.630841 236.170836 
L 262.991696 240.63563 
L 278.451026 245.129047 
L 294.009783 249.651363 
L 309.668929 254.202859 
L 325.429438 258.783816 
L 341.292298 263.394524 
L 357.25851 268.035271 
L 373.329085 272.706353 
L 389.505052 277.408068 
L 405.787451 282.140718 
L 422.177334 286.90461 
L 422.714039 275.184358 
L 423.253829 263.396717 
L 423.796732 251.541104 
L 424.342774 239.61693 
L 424.891984 227.623598 
L 425.444388 215.560505 
L 426.000015 203.42704 
L 426.558892 191.222586 
L 427.121049 178.946518 
L 427.686514 166.598204 
L 428.255317 154.177004 
L 428.827487 141.682271 
L 429.403054 129.11335 
L 429.982049 116.469578 
L 430.564503 103.750285 
L 422.136066 111.351099 
L 413.605727 119.04381 
L 404.971624 126.830094 
L 396.231854 134.711671 
L 387.384464 142.6903 
L 378.427454 150.767784 
L 369.358775 158.945973 
L 360.176325 167.22676 
L 350.87795 175.61209 
L 341.46144 184.103955 
L 331.924529 192.704398 
L 322.264894 201.415514 
L 312.48015 210.239454 
L 302.567851 219.178424 
L 292.525487 228.234688 
L 292.337244 241.794599 
L 292.150229 255.266126 
L 291.964429 268.650129 
L 291.779832 281.94746 
L 291.596426 295.158958 
L 291.414201 308.28545 
L 291.233144 321.327755 
L 291.053245 334.28668 
L 290.874492 347.163021 
L 290.696875 359.957567 
L 290.520382 372.671093 
L 290.345004 385.304367 
L 290.170729 397.858147 
L 289.997547 410.33318 
L 289.825448 422.730204 
L 272.379878 417.032481 
L 255.05937 411.375603 
L 237.862584 405.759133 
L 220.788201 400.182639 
L 203.834916 394.645697 
L 187.001448 389.147886 
L 170.286529 383.688794 
L 153.688913 378.268012 
L 137.207368 372.88514 
L 120.840681 367.53978 
L 104.587657 362.231542 
L 88.447114 356.960041 
L 72.417889 351.724896 
L 56.498834 346.525733 
" clip-path="url(#p54f2060f26)" style="fill: none; stroke: #000000; stroke-width: 3; stroke-linecap: square"/>
   </g>
  </g>
 </g>
 <defs>
  <clipPath id="p54f2060f26">
   <rect x="7.2" y="7.2" width="443.52" height="443.52"/>
  </clipPath>
 </defs>
</svg>
