<?xml version="1.0" encoding="utf-8" standalone="no"?>
<!DOCTYPE svg PUBLIC "-//W3C//DTD SVG 1.1//EN"
  "http://www.w3.org/Graphics/SVG/1.1/DTD/svg11.dtd">
<svg xmlns:xlink="http://www.w3.org/1999/xlink" width="228.49375pt" height="72.5425pt" viewBox="0 0 228.49375 72.5425" xmlns="http://www.w3.org/2000/svg" version="1.1">
 <metadata>
  <rdf:RDF xmlns:dc="http://purl.org/dc/elements/1.1/" xmlns:cc="http://creativecommons.org/ns#" xmlns:rdf="http://www.w3.org/1999/02/22-rdf-syntax-ns#">
   <cc:Work>
    <dc:type rdf:resource="http://purl.org/dc/dcmitype/StillImage"/>
    <dc:date>2025-10-30T14:18:23.612976</dc:date>
    <dc:format>image/svg+xml</dc:format>
    <dc:creator>
     <cc:Agent>
      <dc:title>Matplotlib v3.10.6, https://matplotlib.org/</dc:title>
     </cc:Agent>
    </dc:creator>
   </cc:Work>
  </rdf:RDF>
 </metadata>
 <defs>
  <style type="text/css">*{stroke-linejoin: round; stroke-linecap: butt}</style>
 </defs>
 <g id="figure_1">
  <g id="patch_1">
   <path d="M 0 72.5425 
L 228.49375 72.5425 
L 228.49375 0 
L 0 0 
L 0 72.5425 
z
" style="fill: none"/>
  </g>
  <g id="axes_1">
   <g id="patch_2">
    <path d="M 25.99375 63.159375 
L 221.29375 63.159375 
L 221.29375 7.719375 
L 25.99375 7.719375 
L 25.99375 63.159375 
z
" style="fill: none"/>
   </g>
   <g id="matplotlib.axis_1">
    <g id="xtick_1"/>
    <g id="xtick_2"/>
    <g id="xtick_3"/>
    <g id="xtick_4"/>
    <g id="xtick_5"/>
    <g id="xtick_6"/>
   </g>
   <g id="matplotlib.axis_2">
    <g id="ytick_1">
     <g id="line2d_1">
      <defs>
       <path id="mb1b4d30aad" d="M 0 0 
L -3.5 0 
" style="stroke: #000000; stroke-width: 0.8"/>
      </defs>
      <g>
       <use xlink:href="#mb1b4d30aad" x="25.99375" y="60.639375" style="stroke: #000000; stroke-width: 0.8"/>
      </g>
     </g>
     <g id="text_1">
      <!-- −1 -->
      <g transform="translate(7.2 63.67875) scale(0.08 -0.08)">
       <defs>
        <path id="DejaVuSans-2212" d="M 678 2272 
L 4684 2272 
L 4684 1741 
L 678 1741 
L 678 2272 
z
" transform="scale(0.015625)"/>
        <path id="DejaVuSans-31" d="M 794 531 
L 1825 531 
L 1825 4091 
L 703 3866 
L 703 4441 
L 1819 4666 
L 2450 4666 
L 2450 531 
L 3481 531 
L 3481 0 
L 794 0 
L 794 531 
z
" transform="scale(0.015625)"/>
       </defs>
       <use xlink:href="#DejaVuSans-2212"/>
       <use xlink:href="#DejaVuSans-31" transform="translate(83.789062 0)"/>
      </g>
     </g>
    </g>
    <g id="ytick_2">
     <g id="line2d_2">
      <g>
       <use xlink:href="#mb1b4d30aad" x="25.99375" y="35.439375" style="stroke: #000000; stroke-width: 0.8"/>
      </g>
     </g>
     <g id="text_2">
      <!-- 0 -->
      <g transform="translate(13.90375 38.47875) scale(0.08 -0.08)">
       <defs>
        <path id="DejaVuSans-30" d="M 2034 4250 
Q 1547 4250 1301 3770 
Q 1056 3291 1056 2328 
Q 1056 1369 1301 889 
Q 1547 409 2034 409 
Q 2525 409 2770 889 
Q 3016 1369 3016 2328 
Q 3016 3291 2770 3770 
Q 2525 4250 2034 4250 
z
M 2034 4750 
Q 2819 4750 3233 4129 
Q 3647 3509 3647 2328 
Q 3647 1150 3233 529 
Q 2819 -91 2034 -91 
Q 1250 -91 836 529 
Q 422 1150 422 2328 
Q 422 3509 836 4129 
Q 1250 4750 2034 4750 
z
" transform="scale(0.015625)"/>
       </defs>
       <use xlink:href="#DejaVuSans-30"/>
      </g>
     </g>
    </g>
    <g id="ytick_3">
     <g id="line2d_3">
      <g>
       <use xlink:href="#mb1b4d30aad" x="25.99375" y="10.239375" style="stroke: #000000; stroke-width: 0.8"/>
      </g>
     </g>
     <g id="text_3">
      <!-- 1 -->
      <g transform="translate(13.90375 13.27875) scale(0.08 -0.08)">
       <use xlink:href="#DejaVuSans-31"/>
      </g>
     </g>
    </g>
   </g>
   <g id="line2d_4">
    <path d="M 34.871023 10.239375 
L 37.474329 10.346036 
L 40.077634 10.665117 
L 42.854494 11.236526 
L 45.631353 12.041022 
L 48.408213 13.070856 
L 51.358626 14.40083 
L 54.482593 16.057971 
L 57.780114 18.062953 
L 61.424742 20.552231 
L 65.416477 23.560177 
L 70.102428 27.387924 
L 76.176808 32.661775 
L 89.713998 44.50873 
L 94.399948 48.261894 
L 98.391684 51.185835 
L 102.036312 53.583439 
L 105.333833 55.494466 
L 108.4578 57.054136 
L 111.408213 58.285587 
L 114.185072 59.21793 
L 116.961932 59.921274 
L 119.738791 60.388841 
L 122.342097 60.60902 
L 124.945403 60.616134 
L 127.548709 60.410122 
L 130.152014 59.992727 
L 132.928874 59.318532 
L 135.705733 58.414367 
L 138.656147 57.211491 
L 141.60656 55.771934 
L 144.730527 54.007153 
L 148.201601 51.781938 
L 152.019783 49.051695 
L 156.185072 45.792623 
L 161.21813 41.562476 
L 169.201601 34.511833 
L 177.53218 27.241556 
L 182.391684 23.288344 
L 186.556973 20.180496 
L 190.201601 17.729956 
L 193.499122 15.764797 
L 196.623089 14.149065 
L 199.573502 12.861026 
L 202.523915 11.818432 
L 205.300775 11.071568 
L 208.077634 10.559379 
L 210.68094 10.296754 
L 212.416477 10.23985 
L 212.416477 10.23985 
" clip-path="url(#pf6661c329d)" style="fill: none; stroke: #1f77b4; stroke-width: 2; stroke-linecap: square"/>
   </g>
   <g id="line2d_5">
    <path d="M 34.871023 35.439375 
L 44.06937 27.387924 
L 49.102428 23.288344 
L 53.267717 20.180496 
L 56.912345 17.729956 
L 60.209866 15.764797 
L 63.333833 14.149065 
L 66.284246 12.861026 
L 69.234659 11.818432 
L 72.011519 11.071568 
L 74.788378 10.559379 
L 77.391684 10.296754 
L 79.99499 10.246965 
L 82.598295 10.410434 
L 85.201601 10.785777 
L 87.978461 11.416063 
L 90.75532 12.277705 
L 93.705733 13.437382 
L 96.656147 14.836238 
L 99.780114 16.561138 
L 103.077634 18.630977 
L 106.722262 21.182933 
L 110.887552 24.386246 
L 115.747056 28.420679 
L 122.689205 34.511833 
L 133.102428 43.637194 
L 137.961932 47.590406 
L 142.127221 50.698254 
L 145.771849 53.148794 
L 149.06937 55.113953 
L 152.193337 56.729685 
L 155.14375 58.017724 
L 158.094163 59.060318 
L 160.871023 59.807182 
L 163.647882 60.319371 
L 166.251188 60.581996 
L 168.854494 60.631785 
L 171.4578 60.468316 
L 174.061105 60.092973 
L 176.837965 59.462687 
L 179.614824 58.601045 
L 182.565238 57.441368 
L 185.515651 56.042512 
L 188.639618 54.317612 
L 191.937138 52.247773 
L 195.581767 49.695817 
L 199.747056 46.492504 
L 204.60656 42.458071 
L 211.548709 36.366917 
L 212.416477 35.593999 
L 212.416477 35.593999 
" clip-path="url(#pf6661c329d)" style="fill: none; stroke: #ff7f0e; stroke-width: 2; stroke-linecap: square"/>
   </g>
   <g id="line2d_6">
    <path d="M 34.871023 10.239375 
L 36.259452 10.36072 
L 37.647882 10.723587 
L 39.036312 11.324478 
L 40.424742 12.157611 
L 41.986725 13.362409 
L 43.722262 15.015854 
L 45.4578 16.976487 
L 47.540444 19.692915 
L 49.796643 23.01834 
L 52.573502 27.534595 
L 56.565238 34.511833 
L 62.466064 44.796569 
L 65.242924 49.181565 
L 67.499122 52.362661 
L 69.581767 54.919238 
L 71.317304 56.729685 
L 73.052841 58.219906 
L 74.614824 59.268679 
L 76.003254 59.957462 
L 77.391684 60.410122 
L 78.780114 60.622298 
L 80.168543 60.591951 
L 81.556973 60.319371 
L 82.945403 59.807182 
L 84.333833 59.060318 
L 85.895816 57.948627 
L 87.4578 56.562638 
L 89.193337 54.721589 
L 91.102428 52.362661 
L 93.185072 49.439745 
L 95.788378 45.367974 
L 99.085899 39.747615 
L 108.110692 24.109169 
L 110.713998 20.180496 
L 112.796643 17.402958 
L 114.705733 15.198546 
L 116.441271 13.513183 
L 118.003254 12.277705 
L 119.565238 11.324478 
L 120.953667 10.723587 
L 122.342097 10.36072 
L 123.730527 10.239375 
L 125.118957 10.36072 
L 126.507386 10.723587 
L 127.895816 11.324478 
L 129.284246 12.157611 
L 130.846229 13.362409 
L 132.581767 15.015854 
L 134.317304 16.976487 
L 136.399948 19.692915 
L 138.656147 23.01834 
L 141.433006 27.534595 
L 145.424742 34.511833 
L 151.325568 44.796569 
L 154.102428 49.181565 
L 156.358626 52.362661 
L 158.441271 54.919238 
L 160.176808 56.729685 
L 161.912345 58.219906 
L 163.474329 59.268679 
L 164.862758 59.957462 
L 166.251188 60.410122 
L 167.639618 60.622298 
L 169.028048 60.591951 
L 170.416477 60.319371 
L 171.804907 59.807182 
L 173.193337 59.060318 
L 174.75532 57.948627 
L 176.317304 56.562638 
L 178.052841 54.721589 
L 179.961932 52.362661 
L 182.044576 49.439745 
L 184.647882 45.367974 
L 187.945403 39.747615 
L 196.970196 24.109169 
L 199.573502 20.180496 
L 201.656147 17.402958 
L 203.565238 15.198546 
L 205.300775 13.513183 
L 206.862758 12.277705 
L 208.424742 11.324478 
L 209.813171 10.723587 
L 211.201601 10.36072 
L 212.416477 10.241272 
L 212.416477 10.241272 
" clip-path="url(#pf6661c329d)" style="fill: none; stroke: #2ca02c; stroke-width: 2; stroke-linecap: square"/>
   </g>
   <g id="line2d_7">
    <path d="M 34.871023 35.439375 
L 40.077634 26.37002 
L 42.854494 21.957434 
L 45.110692 18.746497 
L 47.193337 16.157161 
L 49.102428 14.149065 
L 50.837965 12.658844 
L 52.399948 11.610071 
L 53.788378 10.921288 
L 55.176808 10.468628 
L 56.565238 10.256452 
L 57.953667 10.286799 
L 59.342097 10.559379 
L 60.730527 11.071568 
L 62.118957 11.818432 
L 63.68094 12.930123 
L 65.242924 14.316112 
L 66.978461 16.157161 
L 68.887552 18.516089 
L 70.970196 21.439005 
L 73.573502 25.510776 
L 76.871023 31.131135 
L 85.895816 46.769581 
L 88.499122 50.698254 
L 90.581767 53.475792 
L 92.490857 55.680204 
L 94.226395 57.365567 
L 95.788378 58.601045 
L 97.350362 59.554272 
L 98.738791 60.155163 
L 100.127221 60.51803 
L 101.515651 60.639375 
L 102.904081 60.51803 
L 104.29251 60.155163 
L 105.68094 59.554272 
L 107.06937 58.721139 
L 108.631353 57.516341 
L 110.36689 55.862896 
L 112.102428 53.902263 
L 114.185072 51.185835 
L 116.441271 47.86041 
L 119.21813 43.344155 
L 123.209866 36.366917 
L 129.110692 26.082181 
L 131.887552 21.697185 
L 134.14375 18.516089 
L 136.226395 15.959512 
L 137.961932 14.149065 
L 139.697469 12.658844 
L 141.259452 11.610071 
L 142.647882 10.921288 
L 144.036312 10.468628 
L 145.424742 10.256452 
L 146.813171 10.286799 
L 148.201601 10.559379 
L 149.590031 11.071568 
L 150.978461 11.818432 
L 152.540444 12.930123 
L 154.102428 14.316112 
L 155.837965 16.157161 
L 157.747056 18.516089 
L 159.8297 21.439005 
L 162.433006 25.510776 
L 165.730527 31.131135 
L 174.75532 46.769581 
L 177.358626 50.698254 
L 179.441271 53.475792 
L 181.350362 55.680204 
L 183.085899 57.365567 
L 184.647882 58.601045 
L 186.209866 59.554272 
L 187.598295 60.155163 
L 188.986725 60.51803 
L 190.375155 60.639375 
L 191.763585 60.51803 
L 193.152014 60.155163 
L 194.540444 59.554272 
L 195.928874 58.721139 
L 197.490857 57.516341 
L 199.226395 55.862896 
L 200.961932 53.902263 
L 203.044576 51.185835 
L 205.300775 47.86041 
L 208.077634 43.344155 
L 212.06937 36.366917 
L 212.416477 35.748618 
L 212.416477 35.748618 
" clip-path="url(#pf6661c329d)" style="fill: none; stroke: #d62728; stroke-width: 2; stroke-linecap: square"/>
   </g>
   <g id="line2d_8">
    <path d="M 34.871023 10.239375 
L 35.565238 10.36072 
L 36.259452 10.723587 
L 36.953667 11.324478 
L 37.821436 12.401288 
L 38.689205 13.824614 
L 39.730527 15.959512 
L 40.945403 18.979419 
L 42.507386 23.560177 
L 44.416477 29.918024 
L 49.970196 48.921316 
L 51.53218 53.258466 
L 52.747056 56.042512 
L 53.788378 57.948627 
L 54.656147 59.166285 
L 55.523915 60.027068 
L 56.21813 60.44986 
L 56.912345 60.631785 
L 57.60656 60.571094 
L 58.300775 60.268372 
L 58.99499 59.726532 
L 59.862758 58.721139 
L 60.730527 57.365567 
L 61.771849 55.305705 
L 62.986725 52.362661 
L 64.375155 48.394764 
L 66.284246 42.160536 
L 72.705733 20.427752 
L 74.094163 16.767407 
L 75.309039 14.149065 
L 76.350362 12.401288 
L 77.21813 11.324478 
L 78.085899 10.610378 
L 78.780114 10.307656 
L 79.474329 10.246965 
L 80.168543 10.42889 
L 80.862758 10.851682 
L 81.556973 11.511265 
L 82.424742 12.658844 
L 83.466064 14.486341 
L 84.507386 16.767407 
L 85.722262 19.935539 
L 87.284246 24.664987 
L 89.36689 31.741767 
L 93.879287 47.318573 
L 95.441271 51.899331 
L 96.8297 55.305705 
L 98.044576 57.663792 
L 99.085899 59.166285 
L 99.953667 60.027068 
L 100.647882 60.44986 
L 101.342097 60.631785 
L 102.036312 60.571094 
L 102.730527 60.268372 
L 103.424742 59.726532 
L 104.29251 58.721139 
L 105.160279 57.365567 
L 106.201601 55.305705 
L 107.416477 52.362661 
L 108.804907 48.394764 
L 110.713998 42.160536 
L 117.135486 20.427752 
L 118.523915 16.767407 
L 119.738791 14.149065 
L 120.780114 12.401288 
L 121.647882 11.324478 
L 122.515651 10.610378 
L 123.209866 10.307656 
L 123.904081 10.246965 
L 124.598295 10.42889 
L 125.29251 10.851682 
L 125.986725 11.511265 
L 126.854494 12.658844 
L 127.895816 14.486341 
L 128.937138 16.767407 
L 130.152014 19.935539 
L 131.713998 24.664987 
L 133.796643 31.741767 
L 138.309039 47.318573 
L 139.871023 51.899331 
L 141.259452 55.305705 
L 142.474329 57.663792 
L 143.515651 59.166285 
L 144.383419 60.027068 
L 145.077634 60.44986 
L 145.771849 60.631785 
L 146.466064 60.571094 
L 147.160279 60.268372 
L 147.854494 59.726532 
L 148.722262 58.721139 
L 149.590031 57.365567 
L 150.631353 55.305705 
L 151.846229 52.362661 
L 153.234659 48.394764 
L 155.14375 42.160536 
L 161.565238 20.427752 
L 162.953667 16.767407 
L 164.168543 14.149065 
L 165.209866 12.401288 
L 166.077634 11.324478 
L 166.945403 10.610378 
L 167.639618 10.307656 
L 168.333833 10.246965 
L 169.028048 10.42889 
L 169.722262 10.851682 
L 170.416477 11.511265 
L 171.284246 12.658844 
L 172.325568 14.486341 
L 173.36689 16.767407 
L 174.581767 19.935539 
L 176.14375 24.664987 
L 178.226395 31.741767 
L 182.738791 47.318573 
L 184.300775 51.899331 
L 185.689205 55.305705 
L 186.904081 57.663792 
L 187.945403 59.166285 
L 188.813171 60.027068 
L 189.507386 60.44986 
L 190.201601 60.631785 
L 190.895816 60.571094 
L 191.590031 60.268372 
L 192.284246 59.726532 
L 193.152014 58.721139 
L 194.019783 57.365567 
L 195.061105 55.305705 
L 196.275981 52.362661 
L 197.664411 48.394764 
L 199.573502 42.160536 
L 205.99499 20.427752 
L 207.383419 16.767407 
L 208.598295 14.149065 
L 209.639618 12.401288 
L 210.507386 11.324478 
L 211.375155 10.610378 
L 212.06937 10.307656 
L 212.416477 10.246965 
L 212.416477 10.246965 
" clip-path="url(#pf6661c329d)" style="fill: none; stroke: #9467bd; stroke-width: 2; stroke-linecap: square"/>
   </g>
   <g id="line2d_9">
    <path d="M 34.871023 35.439375 
L 37.99499 24.664987 
L 39.730527 19.452664 
L 41.118957 15.959512 
L 42.333833 13.513183 
L 43.375155 11.927956 
L 44.242924 10.994587 
L 44.937138 10.512127 
L 45.631353 10.26973 
L 46.325568 10.26973 
L 47.019783 10.512127 
L 47.713998 10.994587 
L 48.581767 11.927956 
L 49.449535 13.214958 
L 50.490857 15.198546 
L 51.705733 18.062953 
L 53.094163 21.957434 
L 54.8297 27.534595 
L 57.953667 38.524124 
L 60.556973 47.318573 
L 62.118957 51.899331 
L 63.507386 55.305705 
L 64.722262 57.663792 
L 65.763585 59.166285 
L 66.631353 60.027068 
L 67.325568 60.44986 
L 68.019783 60.631785 
L 68.713998 60.571094 
L 69.408213 60.268372 
L 70.102428 59.726532 
L 70.970196 58.721139 
L 71.837965 57.365567 
L 72.879287 55.305705 
L 74.094163 52.362661 
L 75.482593 48.394764 
L 77.391684 42.160536 
L 83.813171 20.427752 
L 85.201601 16.767407 
L 86.416477 14.149065 
L 87.4578 12.401288 
L 88.325568 11.324478 
L 89.193337 10.610378 
L 89.887552 10.307656 
L 90.581767 10.246965 
L 91.275981 10.42889 
L 91.970196 10.851682 
L 92.664411 11.511265 
L 93.53218 12.658844 
L 94.573502 14.486341 
L 95.614824 16.767407 
L 96.8297 19.935539 
L 98.391684 24.664987 
L 100.474329 31.741767 
L 104.986725 47.318573 
L 106.548709 51.899331 
L 107.937138 55.305705 
L 109.152014 57.663792 
L 110.193337 59.166285 
L 111.061105 60.027068 
L 111.75532 60.44986 
L 112.449535 60.631785 
L 113.14375 60.571094 
L 113.837965 60.268372 
L 114.53218 59.726532 
L 115.399948 58.721139 
L 116.267717 57.365567 
L 117.309039 55.305705 
L 118.523915 52.362661 
L 119.912345 48.394764 
L 121.821436 42.160536 
L 128.242924 20.427752 
L 129.631353 16.767407 
L 130.846229 14.149065 
L 131.887552 12.401288 
L 132.75532 11.324478 
L 133.623089 10.610378 
L 134.317304 10.307656 
L 135.011519 10.246965 
L 135.705733 10.42889 
L 136.399948 10.851682 
L 137.094163 11.511265 
L 137.961932 12.658844 
L 139.003254 14.486341 
L 140.044576 16.767407 
L 141.259452 19.935539 
L 142.821436 24.664987 
L 144.904081 31.741767 
L 149.416477 47.318573 
L 150.978461 51.899331 
L 152.36689 55.305705 
L 153.581767 57.663792 
L 154.623089 59.166285 
L 155.490857 60.027068 
L 156.185072 60.44986 
L 156.879287 60.631785 
L 157.573502 60.571094 
L 158.267717 60.268372 
L 158.961932 59.726532 
L 159.8297 58.721139 
L 160.697469 57.365567 
L 161.738791 55.305705 
L 162.953667 52.362661 
L 164.342097 48.394764 
L 166.251188 42.160536 
L 172.672676 20.427752 
L 174.061105 16.767407 
L 175.275981 14.149065 
L 176.317304 12.401288 
L 177.185072 11.324478 
L 178.052841 10.610378 
L 178.747056 10.307656 
L 179.441271 10.246965 
L 180.135486 10.42889 
L 180.8297 10.851682 
L 181.523915 11.511265 
L 182.391684 12.658844 
L 183.433006 14.486341 
L 184.474329 16.767407 
L 185.689205 19.935539 
L 187.251188 24.664987 
L 189.333833 31.741767 
L 193.846229 47.318573 
L 195.408213 51.899331 
L 196.796643 55.305705 
L 198.011519 57.663792 
L 199.052841 59.166285 
L 199.92061 60.027068 
L 200.614824 60.44986 
L 201.309039 60.631785 
L 202.003254 60.571094 
L 202.697469 60.268372 
L 203.391684 59.726532 
L 204.259452 58.721139 
L 205.127221 57.365567 
L 206.168543 55.305705 
L 207.383419 52.362661 
L 208.771849 48.394764 
L 210.68094 42.160536 
L 212.416477 36.057814 
L 212.416477 36.057814 
" clip-path="url(#pf6661c329d)" style="fill: none; stroke: #8c564b; stroke-width: 2; stroke-linecap: square"/>
   </g>
   <g id="line2d_10">
    <path d="M 34.871023 10.239375 
L 35.21813 10.36072 
L 35.565238 10.723587 
L 36.085899 11.712465 
L 36.60656 13.214958 
L 37.300775 15.959512 
L 38.168543 20.427752 
L 39.383419 28.124201 
L 42.854494 51.426086 
L 43.722262 55.680204 
L 44.416477 58.219906 
L 44.937138 59.554272 
L 45.4578 60.366623 
L 45.804907 60.60902 
L 46.152014 60.60902 
L 46.499122 60.366623 
L 46.846229 59.884163 
L 47.36689 58.721139 
L 48.061105 56.392409 
L 48.928874 52.362661 
L 49.970196 46.213763 
L 51.705733 34.20287 
L 53.441271 22.483986 
L 54.482593 16.767407 
L 55.350362 13.214958 
L 56.044576 11.324478 
L 56.565238 10.512127 
L 56.912345 10.26973 
L 57.259452 10.26973 
L 57.60656 10.512127 
L 57.953667 10.994587 
L 58.474329 12.157611 
L 59.168543 14.486341 
L 60.036312 18.516089 
L 61.077634 24.664987 
L 62.813171 36.67588 
L 64.548709 48.394764 
L 65.590031 54.111343 
L 66.4578 57.663792 
L 67.152014 59.554272 
L 67.672676 60.366623 
L 68.019783 60.60902 
L 68.36689 60.60902 
L 68.713998 60.366623 
L 69.061105 59.884163 
L 69.581767 58.721139 
L 70.275981 56.392409 
L 71.14375 52.362661 
L 72.185072 46.213763 
L 73.92061 34.20287 
L 75.656147 22.483986 
L 76.697469 16.767407 
L 77.565238 13.214958 
L 78.259452 11.324478 
L 78.780114 10.512127 
L 79.127221 10.26973 
L 79.474329 10.26973 
L 79.821436 10.512127 
L 80.168543 10.994587 
L 80.689205 12.157611 
L 81.383419 14.486341 
L 82.251188 18.516089 
L 83.29251 24.664987 
L 85.028048 36.67588 
L 86.763585 48.394764 
L 87.804907 54.111343 
L 88.672676 57.663792 
L 89.36689 59.554272 
L 89.887552 60.366623 
L 90.234659 60.60902 
L 90.581767 60.60902 
L 90.928874 60.366623 
L 91.275981 59.884163 
L 91.796643 58.721139 
L 92.490857 56.392409 
L 93.358626 52.362661 
L 94.399948 46.213763 
L 96.135486 34.20287 
L 97.871023 22.483986 
L 98.912345 16.767407 
L 99.780114 13.214958 
L 100.474329 11.324478 
L 100.99499 10.512127 
L 101.342097 10.26973 
L 101.689205 10.26973 
L 102.036312 10.512127 
L 102.383419 10.994587 
L 102.904081 12.157611 
L 103.598295 14.486341 
L 104.466064 18.516089 
L 105.507386 24.664987 
L 107.242924 36.67588 
L 108.978461 48.394764 
L 110.019783 54.111343 
L 110.887552 57.663792 
L 111.581767 59.554272 
L 112.102428 60.366623 
L 112.449535 60.60902 
L 112.796643 60.60902 
L 113.14375 60.366623 
L 113.490857 59.884163 
L 114.011519 58.721139 
L 114.705733 56.392409 
L 115.573502 52.362661 
L 116.614824 46.213763 
L 118.350362 34.20287 
L 120.085899 22.483986 
L 121.127221 16.767407 
L 121.99499 13.214958 
L 122.689205 11.324478 
L 123.209866 10.512127 
L 123.556973 10.26973 
L 123.904081 10.26973 
L 124.251188 10.512127 
L 124.598295 10.994587 
L 125.118957 12.157611 
L 125.813171 14.486341 
L 126.68094 18.516089 
L 127.722262 24.664987 
L 129.4578 36.67588 
L 131.193337 48.394764 
L 132.234659 54.111343 
L 133.102428 57.663792 
L 133.796643 59.554272 
L 134.317304 60.366623 
L 134.664411 60.60902 
L 135.011519 60.60902 
L 135.358626 60.366623 
L 135.705733 59.884163 
L 136.226395 58.721139 
L 136.92061 56.392409 
L 137.788378 52.362661 
L 138.8297 46.213763 
L 140.565238 34.20287 
L 142.300775 22.483986 
L 143.342097 16.767407 
L 144.209866 13.214958 
L 144.904081 11.324478 
L 145.424742 10.512127 
L 145.771849 10.26973 
L 146.118957 10.26973 
L 146.466064 10.512127 
L 146.813171 10.994587 
L 147.333833 12.157611 
L 148.028048 14.486341 
L 148.895816 18.516089 
L 149.937138 24.664987 
L 151.672676 36.67588 
L 153.408213 48.394764 
L 154.449535 54.111343 
L 155.317304 57.663792 
L 156.011519 59.554272 
L 156.53218 60.366623 
L 156.879287 60.60902 
L 157.226395 60.60902 
L 157.573502 60.366623 
L 157.92061 59.884163 
L 158.441271 58.721139 
L 159.135486 56.392409 
L 160.003254 52.362661 
L 161.044576 46.213763 
L 162.780114 34.20287 
L 164.515651 22.483986 
L 165.556973 16.767407 
L 166.424742 13.214958 
L 167.118957 11.324478 
L 167.639618 10.512127 
L 167.986725 10.26973 
L 168.333833 10.26973 
L 168.68094 10.512127 
L 169.028048 10.994587 
L 169.548709 12.157611 
L 170.242924 14.486341 
L 171.110692 18.516089 
L 172.152014 24.664987 
L 173.887552 36.67588 
L 175.623089 48.394764 
L 176.664411 54.111343 
L 177.53218 57.663792 
L 178.226395 59.554272 
L 178.747056 60.366623 
L 179.094163 60.60902 
L 179.441271 60.60902 
L 179.788378 60.366623 
L 180.135486 59.884163 
L 180.656147 58.721139 
L 181.350362 56.392409 
L 182.21813 52.362661 
L 183.259452 46.213763 
L 184.99499 34.20287 
L 186.730527 22.483986 
L 187.771849 16.767407 
L 188.639618 13.214958 
L 189.333833 11.324478 
L 189.854494 10.512127 
L 190.201601 10.26973 
L 190.548709 10.26973 
L 190.895816 10.512127 
L 191.242924 10.994587 
L 191.763585 12.157611 
L 192.4578 14.486341 
L 193.325568 18.516089 
L 194.36689 24.664987 
L 196.102428 36.67588 
L 197.837965 48.394764 
L 198.879287 54.111343 
L 199.747056 57.663792 
L 200.441271 59.554272 
L 200.961932 60.366623 
L 201.309039 60.60902 
L 201.656147 60.60902 
L 202.003254 60.366623 
L 202.350362 59.884163 
L 202.871023 58.721139 
L 203.565238 56.392409 
L 204.433006 52.362661 
L 205.474329 46.213763 
L 207.209866 34.20287 
L 208.945403 22.483986 
L 209.986725 16.767407 
L 210.854494 13.214958 
L 211.548709 11.324478 
L 212.06937 10.512127 
L 212.416477 10.26973 
L 212.416477 10.26973 
" clip-path="url(#pf6661c329d)" style="fill: none; stroke: #e377c2; stroke-width: 2; stroke-linecap: square"/>
   </g>
   <g id="line2d_11">
    <path d="M 34.871023 35.439375 
L 36.780114 22.483986 
L 37.821436 16.767407 
L 38.689205 13.214958 
L 39.383419 11.324478 
L 39.904081 10.512127 
L 40.251188 10.26973 
L 40.598295 10.26973 
L 40.945403 10.512127 
L 41.29251 10.994587 
L 41.813171 12.157611 
L 42.507386 14.486341 
L 43.375155 18.516089 
L 44.416477 24.664987 
L 46.152014 36.67588 
L 47.887552 48.394764 
L 48.928874 54.111343 
L 49.796643 57.663792 
L 50.490857 59.554272 
L 51.011519 60.366623 
L 51.358626 60.60902 
L 51.705733 60.60902 
L 52.052841 60.366623 
L 52.399948 59.884163 
L 52.92061 58.721139 
L 53.614824 56.392409 
L 54.482593 52.362661 
L 55.523915 46.213763 
L 57.259452 34.20287 
L 58.99499 22.483986 
L 60.036312 16.767407 
L 60.904081 13.214958 
L 61.598295 11.324478 
L 62.118957 10.512127 
L 62.466064 10.26973 
L 62.813171 10.26973 
L 63.160279 10.512127 
L 63.507386 10.994587 
L 64.028048 12.157611 
L 64.722262 14.486341 
L 65.590031 18.516089 
L 66.631353 24.664987 
L 68.36689 36.67588 
L 70.102428 48.394764 
L 71.14375 54.111343 
L 72.011519 57.663792 
L 72.705733 59.554272 
L 73.226395 60.366623 
L 73.573502 60.60902 
L 73.92061 60.60902 
L 74.267717 60.366623 
L 74.614824 59.884163 
L 75.135486 58.721139 
L 75.8297 56.392409 
L 76.697469 52.362661 
L 77.738791 46.213763 
L 79.474329 34.20287 
L 81.209866 22.483986 
L 82.251188 16.767407 
L 83.118957 13.214958 
L 83.813171 11.324478 
L 84.333833 10.512127 
L 84.68094 10.26973 
L 85.028048 10.26973 
L 85.375155 10.512127 
L 85.722262 10.994587 
L 86.242924 12.157611 
L 86.937138 14.486341 
L 87.804907 18.516089 
L 88.846229 24.664987 
L 90.581767 36.67588 
L 92.317304 48.394764 
L 93.358626 54.111343 
L 94.226395 57.663792 
L 94.92061 59.554272 
L 95.441271 60.366623 
L 95.788378 60.60902 
L 96.135486 60.60902 
L 96.482593 60.366623 
L 96.8297 59.884163 
L 97.350362 58.721139 
L 98.044576 56.392409 
L 98.912345 52.362661 
L 99.953667 46.213763 
L 101.689205 34.20287 
L 103.424742 22.483986 
L 104.466064 16.767407 
L 105.333833 13.214958 
L 106.028048 11.324478 
L 106.548709 10.512127 
L 106.895816 10.26973 
L 107.242924 10.26973 
L 107.590031 10.512127 
L 107.937138 10.994587 
L 108.4578 12.157611 
L 109.152014 14.486341 
L 110.019783 18.516089 
L 111.061105 24.664987 
L 112.796643 36.67588 
L 114.53218 48.394764 
L 115.573502 54.111343 
L 116.441271 57.663792 
L 117.135486 59.554272 
L 117.656147 60.366623 
L 118.003254 60.60902 
L 118.350362 60.60902 
L 118.697469 60.366623 
L 119.044576 59.884163 
L 119.565238 58.721139 
L 120.259452 56.392409 
L 121.127221 52.362661 
L 122.168543 46.213763 
L 123.904081 34.20287 
L 125.639618 22.483986 
L 126.68094 16.767407 
L 127.548709 13.214958 
L 128.242924 11.324478 
L 128.763585 10.512127 
L 129.110692 10.26973 
L 129.4578 10.26973 
L 129.804907 10.512127 
L 130.152014 10.994587 
L 130.672676 12.157611 
L 131.36689 14.486341 
L 132.234659 18.516089 
L 133.275981 24.664987 
L 135.011519 36.67588 
L 136.747056 48.394764 
L 137.788378 54.111343 
L 138.656147 57.663792 
L 139.350362 59.554272 
L 139.871023 60.366623 
L 140.21813 60.60902 
L 140.565238 60.60902 
L 140.912345 60.366623 
L 141.259452 59.884163 
L 141.780114 58.721139 
L 142.474329 56.392409 
L 143.342097 52.362661 
L 144.383419 46.213763 
L 146.118957 34.20287 
L 147.854494 22.483986 
L 148.895816 16.767407 
L 149.763585 13.214958 
L 150.4578 11.324478 
L 150.978461 10.512127 
L 151.325568 10.26973 
L 151.672676 10.26973 
L 152.019783 10.512127 
L 152.36689 10.994587 
L 152.887552 12.157611 
L 153.581767 14.486341 
L 154.449535 18.516089 
L 155.490857 24.664987 
L 157.226395 36.67588 
L 158.961932 48.394764 
L 160.003254 54.111343 
L 160.871023 57.663792 
L 161.565238 59.554272 
L 162.085899 60.366623 
L 162.433006 60.60902 
L 162.780114 60.60902 
L 163.127221 60.366623 
L 163.474329 59.884163 
L 163.99499 58.721139 
L 164.689205 56.392409 
L 165.556973 52.362661 
L 166.598295 46.213763 
L 168.333833 34.20287 
L 170.06937 22.483986 
L 171.110692 16.767407 
L 171.978461 13.214958 
L 172.672676 11.324478 
L 173.193337 10.512127 
L 173.540444 10.26973 
L 173.887552 10.26973 
L 174.234659 10.512127 
L 174.581767 10.994587 
L 175.102428 12.157611 
L 175.796643 14.486341 
L 176.664411 18.516089 
L 177.705733 24.664987 
L 179.441271 36.67588 
L 181.176808 48.394764 
L 182.21813 54.111343 
L 183.085899 57.663792 
L 183.780114 59.554272 
L 184.300775 60.366623 
L 184.647882 60.60902 
L 184.99499 60.60902 
L 185.342097 60.366623 
L 185.689205 59.884163 
L 186.209866 58.721139 
L 186.904081 56.392409 
L 187.771849 52.362661 
L 188.813171 46.213763 
L 190.548709 34.20287 
L 192.284246 22.483986 
L 193.325568 16.767407 
L 194.193337 13.214958 
L 194.887552 11.324478 
L 195.408213 10.512127 
L 195.75532 10.26973 
L 196.102428 10.26973 
L 196.449535 10.512127 
L 196.796643 10.994587 
L 197.317304 12.157611 
L 198.011519 14.486341 
L 198.879287 18.516089 
L 199.92061 24.664987 
L 201.656147 36.67588 
L 203.391684 48.394764 
L 204.433006 54.111343 
L 205.300775 57.663792 
L 205.99499 59.554272 
L 206.515651 60.366623 
L 206.862758 60.60902 
L 207.209866 60.60902 
L 207.556973 60.366623 
L 207.904081 59.884163 
L 208.424742 58.721139 
L 209.118957 56.392409 
L 209.986725 52.362661 
L 211.028048 46.213763 
L 212.416477 36.67588 
L 212.416477 36.67588 
" clip-path="url(#pf6661c329d)" style="fill: none; stroke: #7f7f7f; stroke-width: 2; stroke-linecap: square"/>
   </g>
   <g id="line2d_12">
    <path d="M 34.871023 10.239375 
L 35.044576 10.36072 
L 35.391684 11.324478 
L 35.738791 13.214958 
L 36.259452 17.620284 
L 36.953667 25.795753 
L 39.209866 54.919238 
L 39.730527 58.721139 
L 40.077634 60.155163 
L 40.424742 60.639375 
L 40.598295 60.51803 
L 40.945403 59.554272 
L 41.29251 57.663792 
L 41.813171 53.258466 
L 42.507386 45.082997 
L 44.763585 15.959512 
L 45.284246 12.157611 
L 45.631353 10.723587 
L 45.978461 10.239375 
L 46.152014 10.36072 
L 46.499122 11.324478 
L 46.846229 13.214958 
L 47.36689 17.620284 
L 48.061105 25.795753 
L 50.317304 54.919238 
L 50.837965 58.721139 
L 51.185072 60.155163 
L 51.53218 60.639375 
L 51.705733 60.51803 
L 52.052841 59.554272 
L 52.399948 57.663792 
L 52.92061 53.258466 
L 53.614824 45.082997 
L 55.871023 15.959512 
L 56.391684 12.157611 
L 56.738791 10.723587 
L 57.085899 10.239375 
L 57.259452 10.36072 
L 57.60656 11.324478 
L 57.953667 13.214958 
L 58.474329 17.620284 
L 59.168543 25.795753 
L 61.424742 54.919238 
L 61.945403 58.721139 
L 62.29251 60.155163 
L 62.639618 60.639375 
L 62.813171 60.51803 
L 63.160279 59.554272 
L 63.507386 57.663792 
L 64.028048 53.258466 
L 64.722262 45.082997 
L 66.978461 15.959512 
L 67.499122 12.157611 
L 67.846229 10.723587 
L 68.193337 10.239375 
L 68.36689 10.36072 
L 68.713998 11.324478 
L 69.061105 13.214958 
L 69.581767 17.620284 
L 70.275981 25.795753 
L 72.53218 54.919238 
L 73.052841 58.721139 
L 73.399948 60.155163 
L 73.747056 60.639375 
L 73.92061 60.51803 
L 74.267717 59.554272 
L 74.614824 57.663792 
L 75.135486 53.258466 
L 75.8297 45.082997 
L 78.085899 15.959512 
L 78.60656 12.157611 
L 78.953667 10.723587 
L 79.300775 10.239375 
L 79.474329 10.36072 
L 79.821436 11.324478 
L 80.168543 13.214958 
L 80.689205 17.620284 
L 81.383419 25.795753 
L 83.639618 54.919238 
L 84.160279 58.721139 
L 84.507386 60.155163 
L 84.854494 60.639375 
L 85.028048 60.51803 
L 85.375155 59.554272 
L 85.722262 57.663792 
L 86.242924 53.258466 
L 86.937138 45.082997 
L 89.193337 15.959512 
L 89.713998 12.157611 
L 90.061105 10.723587 
L 90.408213 10.239375 
L 90.581767 10.36072 
L 90.928874 11.324478 
L 91.275981 13.214958 
L 91.796643 17.620284 
L 92.490857 25.795753 
L 94.747056 54.919238 
L 95.267717 58.721139 
L 95.614824 60.155163 
L 95.961932 60.639375 
L 96.135486 60.51803 
L 96.482593 59.554272 
L 96.8297 57.663792 
L 97.350362 53.258466 
L 98.044576 45.082997 
L 100.300775 15.959512 
L 100.821436 12.157611 
L 101.168543 10.723587 
L 101.515651 10.239375 
L 101.689205 10.36072 
L 102.036312 11.324478 
L 102.383419 13.214958 
L 102.904081 17.620284 
L 103.598295 25.795753 
L 105.854494 54.919238 
L 106.375155 58.721139 
L 106.722262 60.155163 
L 107.06937 60.639375 
L 107.242924 60.51803 
L 107.590031 59.554272 
L 107.937138 57.663792 
L 108.4578 53.258466 
L 109.152014 45.082997 
L 111.408213 15.959512 
L 111.928874 12.157611 
L 112.275981 10.723587 
L 112.623089 10.239375 
L 112.796643 10.36072 
L 113.14375 11.324478 
L 113.490857 13.214958 
L 114.011519 17.620284 
L 114.705733 25.795753 
L 116.961932 54.919238 
L 117.482593 58.721139 
L 117.8297 60.155163 
L 118.176808 60.639375 
L 118.350362 60.51803 
L 118.697469 59.554272 
L 119.044576 57.663792 
L 119.565238 53.258466 
L 120.259452 45.082997 
L 122.515651 15.959512 
L 123.036312 12.157611 
L 123.383419 10.723587 
L 123.730527 10.239375 
L 123.904081 10.36072 
L 124.251188 11.324478 
L 124.598295 13.214958 
L 125.118957 17.620284 
L 125.813171 25.795753 
L 128.06937 54.919238 
L 128.590031 58.721139 
L 128.937138 60.155163 
L 129.284246 60.639375 
L 129.4578 60.51803 
L 129.804907 59.554272 
L 130.152014 57.663792 
L 130.672676 53.258466 
L 131.36689 45.082997 
L 133.623089 15.959512 
L 134.14375 12.157611 
L 134.490857 10.723587 
L 134.837965 10.239375 
L 135.011519 10.36072 
L 135.358626 11.324478 
L 135.705733 13.214958 
L 136.226395 17.620284 
L 136.92061 25.795753 
L 139.176808 54.919238 
L 139.697469 58.721139 
L 140.044576 60.155163 
L 140.391684 60.639375 
L 140.565238 60.51803 
L 140.912345 59.554272 
L 141.259452 57.663792 
L 141.780114 53.258466 
L 142.474329 45.082997 
L 144.730527 15.959512 
L 145.251188 12.157611 
L 145.598295 10.723587 
L 145.945403 10.239375 
L 146.118957 10.36072 
L 146.466064 11.324478 
L 146.813171 13.214958 
L 147.333833 17.620284 
L 148.028048 25.795753 
L 150.284246 54.919238 
L 150.804907 58.721139 
L 151.152014 60.155163 
L 151.499122 60.639375 
L 151.672676 60.51803 
L 152.019783 59.554272 
L 152.36689 57.663792 
L 152.887552 53.258466 
L 153.581767 45.082997 
L 155.837965 15.959512 
L 156.358626 12.157611 
L 156.705733 10.723587 
L 157.052841 10.239375 
L 157.226395 10.36072 
L 157.573502 11.324478 
L 157.92061 13.214958 
L 158.441271 17.620284 
L 159.135486 25.795753 
L 161.391684 54.919238 
L 161.912345 58.721139 
L 162.259452 60.155163 
L 162.60656 60.639375 
L 162.780114 60.51803 
L 163.127221 59.554272 
L 163.474329 57.663792 
L 163.99499 53.258466 
L 164.689205 45.082997 
L 166.945403 15.959512 
L 167.466064 12.157611 
L 167.813171 10.723587 
L 168.160279 10.239375 
L 168.333833 10.36072 
L 168.68094 11.324478 
L 169.028048 13.214958 
L 169.548709 17.620284 
L 170.242924 25.795753 
L 172.499122 54.919238 
L 173.019783 58.721139 
L 173.36689 60.155163 
L 173.713998 60.639375 
L 173.887552 60.51803 
L 174.234659 59.554272 
L 174.581767 57.663792 
L 175.102428 53.258466 
L 175.796643 45.082997 
L 178.052841 15.959512 
L 178.573502 12.157611 
L 178.92061 10.723587 
L 179.267717 10.239375 
L 179.441271 10.36072 
L 179.788378 11.324478 
L 180.135486 13.214958 
L 180.656147 17.620284 
L 181.350362 25.795753 
L 183.60656 54.919238 
L 184.127221 58.721139 
L 184.474329 60.155163 
L 184.821436 60.639375 
L 184.99499 60.51803 
L 185.342097 59.554272 
L 185.689205 57.663792 
L 186.209866 53.258466 
L 186.904081 45.082997 
L 189.160279 15.959512 
L 189.68094 12.157611 
L 190.028048 10.723587 
L 190.375155 10.239375 
L 190.548709 10.36072 
L 190.895816 11.324478 
L 191.242924 13.214958 
L 191.763585 17.620284 
L 192.4578 25.795753 
L 194.713998 54.919238 
L 195.234659 58.721139 
L 195.581767 60.155163 
L 195.928874 60.639375 
L 196.102428 60.51803 
L 196.449535 59.554272 
L 196.796643 57.663792 
L 197.317304 53.258466 
L 198.011519 45.082997 
L 200.267717 15.959512 
L 200.788378 12.157611 
L 201.135486 10.723587 
L 201.482593 10.239375 
L 201.656147 10.36072 
L 202.003254 11.324478 
L 202.350362 13.214958 
L 202.871023 17.620284 
L 203.565238 25.795753 
L 205.821436 54.919238 
L 206.342097 58.721139 
L 206.689205 60.155163 
L 207.036312 60.639375 
L 207.209866 60.51803 
L 207.556973 59.554272 
L 207.904081 57.663792 
L 208.424742 53.258466 
L 209.118957 45.082997 
L 211.375155 15.959512 
L 211.895816 12.157611 
L 212.242924 10.723587 
L 212.416477 10.36072 
L 212.416477 10.36072 
" clip-path="url(#pf6661c329d)" style="fill: none; stroke: #bcbd22; stroke-width: 2; stroke-linecap: square"/>
   </g>
   <g id="line2d_13">
    <path d="M 34.871023 35.439375 
L 36.085899 19.452664 
L 36.780114 13.214958 
L 37.300775 10.723587 
L 37.647882 10.239375 
L 37.821436 10.36072 
L 38.168543 11.324478 
L 38.515651 13.214958 
L 39.036312 17.620284 
L 39.730527 25.795753 
L 41.986725 54.919238 
L 42.507386 58.721139 
L 42.854494 60.155163 
L 43.201601 60.639375 
L 43.375155 60.51803 
L 43.722262 59.554272 
L 44.06937 57.663792 
L 44.590031 53.258466 
L 45.284246 45.082997 
L 47.540444 15.959512 
L 48.061105 12.157611 
L 48.408213 10.723587 
L 48.75532 10.239375 
L 48.928874 10.36072 
L 49.275981 11.324478 
L 49.623089 13.214958 
L 50.14375 17.620284 
L 50.837965 25.795753 
L 53.094163 54.919238 
L 53.614824 58.721139 
L 53.961932 60.155163 
L 54.309039 60.639375 
L 54.482593 60.51803 
L 54.8297 59.554272 
L 55.176808 57.663792 
L 55.697469 53.258466 
L 56.391684 45.082997 
L 58.647882 15.959512 
L 59.168543 12.157611 
L 59.515651 10.723587 
L 59.862758 10.239375 
L 60.036312 10.36072 
L 60.383419 11.324478 
L 60.730527 13.214958 
L 61.251188 17.620284 
L 61.945403 25.795753 
L 64.201601 54.919238 
L 64.722262 58.721139 
L 65.06937 60.155163 
L 65.416477 60.639375 
L 65.590031 60.51803 
L 65.937138 59.554272 
L 66.284246 57.663792 
L 66.804907 53.258466 
L 67.499122 45.082997 
L 69.75532 15.959512 
L 70.275981 12.157611 
L 70.623089 10.723587 
L 70.970196 10.239375 
L 71.14375 10.36072 
L 71.490857 11.324478 
L 71.837965 13.214958 
L 72.358626 17.620284 
L 73.052841 25.795753 
L 75.309039 54.919238 
L 75.8297 58.721139 
L 76.176808 60.155163 
L 76.523915 60.639375 
L 76.697469 60.51803 
L 77.044576 59.554272 
L 77.391684 57.663792 
L 77.912345 53.258466 
L 78.60656 45.082997 
L 80.862758 15.959512 
L 81.383419 12.157611 
L 81.730527 10.723587 
L 82.077634 10.239375 
L 82.251188 10.36072 
L 82.598295 11.324478 
L 82.945403 13.214958 
L 83.466064 17.620284 
L 84.160279 25.795753 
L 86.416477 54.919238 
L 86.937138 58.721139 
L 87.284246 60.155163 
L 87.631353 60.639375 
L 87.804907 60.51803 
L 88.152014 59.554272 
L 88.499122 57.663792 
L 89.019783 53.258466 
L 89.713998 45.082997 
L 91.970196 15.959512 
L 92.490857 12.157611 
L 92.837965 10.723587 
L 93.185072 10.239375 
L 93.358626 10.36072 
L 93.705733 11.324478 
L 94.052841 13.214958 
L 94.573502 17.620284 
L 95.267717 25.795753 
L 97.523915 54.919238 
L 98.044576 58.721139 
L 98.391684 60.155163 
L 98.738791 60.639375 
L 98.912345 60.51803 
L 99.259452 59.554272 
L 99.60656 57.663792 
L 100.127221 53.258466 
L 100.821436 45.082997 
L 103.077634 15.959512 
L 103.598295 12.157611 
L 103.945403 10.723587 
L 104.29251 10.239375 
L 104.466064 10.36072 
L 104.813171 11.324478 
L 105.160279 13.214958 
L 105.68094 17.620284 
L 106.375155 25.795753 
L 108.631353 54.919238 
L 109.152014 58.721139 
L 109.499122 60.155163 
L 109.846229 60.639375 
L 110.019783 60.51803 
L 110.36689 59.554272 
L 110.713998 57.663792 
L 111.234659 53.258466 
L 111.928874 45.082997 
L 114.185072 15.959512 
L 114.705733 12.157611 
L 115.052841 10.723587 
L 115.399948 10.239375 
L 115.573502 10.36072 
L 115.92061 11.324478 
L 116.267717 13.214958 
L 116.788378 17.620284 
L 117.482593 25.795753 
L 119.738791 54.919238 
L 120.259452 58.721139 
L 120.60656 60.155163 
L 120.953667 60.639375 
L 121.127221 60.51803 
L 121.474329 59.554272 
L 121.821436 57.663792 
L 122.342097 53.258466 
L 123.036312 45.082997 
L 125.29251 15.959512 
L 125.813171 12.157611 
L 126.160279 10.723587 
L 126.507386 10.239375 
L 126.68094 10.36072 
L 127.028048 11.324478 
L 127.375155 13.214958 
L 127.895816 17.620284 
L 128.590031 25.795753 
L 130.846229 54.919238 
L 131.36689 58.721139 
L 131.713998 60.155163 
L 132.061105 60.639375 
L 132.234659 60.51803 
L 132.581767 59.554272 
L 132.928874 57.663792 
L 133.449535 53.258466 
L 134.14375 45.082997 
L 136.399948 15.959512 
L 136.92061 12.157611 
L 137.267717 10.723587 
L 137.614824 10.239375 
L 137.788378 10.36072 
L 138.135486 11.324478 
L 138.482593 13.214958 
L 139.003254 17.620284 
L 139.697469 25.795753 
L 141.953667 54.919238 
L 142.474329 58.721139 
L 142.821436 60.155163 
L 143.168543 60.639375 
L 143.342097 60.51803 
L 143.689205 59.554272 
L 144.036312 57.663792 
L 144.556973 53.258466 
L 145.251188 45.082997 
L 147.507386 15.959512 
L 148.028048 12.157611 
L 148.375155 10.723587 
L 148.722262 10.239375 
L 148.895816 10.36072 
L 149.242924 11.324478 
L 149.590031 13.214958 
L 150.110692 17.620284 
L 150.804907 25.795753 
L 153.061105 54.919238 
L 153.581767 58.721139 
L 153.928874 60.155163 
L 154.275981 60.639375 
L 154.449535 60.51803 
L 154.796643 59.554272 
L 155.14375 57.663792 
L 155.664411 53.258466 
L 156.358626 45.082997 
L 158.614824 15.959512 
L 159.135486 12.157611 
L 159.482593 10.723587 
L 159.8297 10.239375 
L 160.003254 10.36072 
L 160.350362 11.324478 
L 160.697469 13.214958 
L 161.21813 17.620284 
L 161.912345 25.795753 
L 164.168543 54.919238 
L 164.689205 58.721139 
L 165.036312 60.155163 
L 165.383419 60.639375 
L 165.556973 60.51803 
L 165.904081 59.554272 
L 166.251188 57.663792 
L 166.771849 53.258466 
L 167.466064 45.082997 
L 169.722262 15.959512 
L 170.242924 12.157611 
L 170.590031 10.723587 
L 170.937138 10.239375 
L 171.110692 10.36072 
L 171.4578 11.324478 
L 171.804907 13.214958 
L 172.325568 17.620284 
L 173.019783 25.795753 
L 175.275981 54.919238 
L 175.796643 58.721139 
L 176.14375 60.155163 
L 176.490857 60.639375 
L 176.664411 60.51803 
L 177.011519 59.554272 
L 177.358626 57.663792 
L 177.879287 53.258466 
L 178.573502 45.082997 
L 180.8297 15.959512 
L 181.350362 12.157611 
L 181.697469 10.723587 
L 182.044576 10.239375 
L 182.21813 10.36072 
L 182.565238 11.324478 
L 182.912345 13.214958 
L 183.433006 17.620284 
L 184.127221 25.795753 
L 186.383419 54.919238 
L 186.904081 58.721139 
L 187.251188 60.155163 
L 187.598295 60.639375 
L 187.771849 60.51803 
L 188.118957 59.554272 
L 188.466064 57.663792 
L 188.986725 53.258466 
L 189.68094 45.082997 
L 191.937138 15.959512 
L 192.4578 12.157611 
L 192.804907 10.723587 
L 193.152014 10.239375 
L 193.325568 10.36072 
L 193.672676 11.324478 
L 194.019783 13.214958 
L 194.540444 17.620284 
L 195.234659 25.795753 
L 197.490857 54.919238 
L 198.011519 58.721139 
L 198.358626 60.155163 
L 198.705733 60.639375 
L 198.879287 60.51803 
L 199.226395 59.554272 
L 199.573502 57.663792 
L 200.094163 53.258466 
L 200.788378 45.082997 
L 203.044576 15.959512 
L 203.565238 12.157611 
L 203.912345 10.723587 
L 204.259452 10.239375 
L 204.433006 10.36072 
L 204.780114 11.324478 
L 205.127221 13.214958 
L 205.647882 17.620284 
L 206.342097 25.795753 
L 208.598295 54.919238 
L 209.118957 58.721139 
L 209.466064 60.155163 
L 209.813171 60.639375 
L 209.986725 60.51803 
L 210.333833 59.554272 
L 210.68094 57.663792 
L 211.201601 53.258466 
L 211.895816 45.082997 
L 212.416477 37.909407 
L 212.416477 37.909407 
" clip-path="url(#pf6661c329d)" style="fill: none; stroke: #17becf; stroke-width: 2; stroke-linecap: square"/>
   </g>
   <g id="line2d_14">
    <path d="M 34.871023 10.239375 
L 35.044576 10.723587 
L 35.391684 14.486341 
L 35.912345 25.795753 
L 37.127221 56.392409 
L 37.474329 60.155163 
L 37.647882 60.639375 
L 37.821436 60.155163 
L 38.168543 56.392409 
L 38.689205 45.082997 
L 39.904081 14.486341 
L 40.251188 10.723587 
L 40.424742 10.239375 
L 40.598295 10.723587 
L 40.945403 14.486341 
L 41.466064 25.795753 
L 42.68094 56.392409 
L 43.028048 60.155163 
L 43.201601 60.639375 
L 43.375155 60.155163 
L 43.722262 56.392409 
L 44.242924 45.082997 
L 45.4578 14.486341 
L 45.804907 10.723587 
L 45.978461 10.239375 
L 46.152014 10.723587 
L 46.499122 14.486341 
L 47.019783 25.795753 
L 48.234659 56.392409 
L 48.581767 60.155163 
L 48.75532 60.639375 
L 48.928874 60.155163 
L 49.275981 56.392409 
L 49.796643 45.082997 
L 51.011519 14.486341 
L 51.358626 10.723587 
L 51.53218 10.239375 
L 51.705733 10.723587 
L 52.052841 14.486341 
L 52.573502 25.795753 
L 53.788378 56.392409 
L 54.135486 60.155163 
L 54.309039 60.639375 
L 54.482593 60.155163 
L 54.8297 56.392409 
L 55.350362 45.082997 
L 56.565238 14.486341 
L 56.912345 10.723587 
L 57.085899 10.239375 
L 57.259452 10.723587 
L 57.60656 14.486341 
L 58.127221 25.795753 
L 59.342097 56.392409 
L 59.689205 60.155163 
L 59.862758 60.639375 
L 60.036312 60.155163 
L 60.383419 56.392409 
L 60.904081 45.082997 
L 62.118957 14.486341 
L 62.466064 10.723587 
L 62.639618 10.239375 
L 62.813171 10.723587 
L 63.160279 14.486341 
L 63.68094 25.795753 
L 64.895816 56.392409 
L 65.242924 60.155163 
L 65.416477 60.639375 
L 65.590031 60.155163 
L 65.937138 56.392409 
L 66.4578 45.082997 
L 67.672676 14.486341 
L 68.019783 10.723587 
L 68.193337 10.239375 
L 68.36689 10.723587 
L 68.713998 14.486341 
L 69.234659 25.795753 
L 70.449535 56.392409 
L 70.796643 60.155163 
L 70.970196 60.639375 
L 71.14375 60.155163 
L 71.490857 56.392409 
L 72.011519 45.082997 
L 73.226395 14.486341 
L 73.573502 10.723587 
L 73.747056 10.239375 
L 73.92061 10.723587 
L 74.267717 14.486341 
L 74.788378 25.795753 
L 76.003254 56.392409 
L 76.350362 60.155163 
L 76.523915 60.639375 
L 76.697469 60.155163 
L 77.044576 56.392409 
L 77.565238 45.082997 
L 78.780114 14.486341 
L 79.127221 10.723587 
L 79.300775 10.239375 
L 79.474329 10.723587 
L 79.821436 14.486341 
L 80.342097 25.795753 
L 81.556973 56.392409 
L 81.904081 60.155163 
L 82.077634 60.639375 
L 82.251188 60.155163 
L 82.598295 56.392409 
L 83.118957 45.082997 
L 84.333833 14.486341 
L 84.68094 10.723587 
L 84.854494 10.239375 
L 85.028048 10.723587 
L 85.375155 14.486341 
L 85.895816 25.795753 
L 87.110692 56.392409 
L 87.4578 60.155163 
L 87.631353 60.639375 
L 87.804907 60.155163 
L 88.152014 56.392409 
L 88.672676 45.082997 
L 89.887552 14.486341 
L 90.234659 10.723587 
L 90.408213 10.239375 
L 90.581767 10.723587 
L 90.928874 14.486341 
L 91.449535 25.795753 
L 92.664411 56.392409 
L 93.011519 60.155163 
L 93.185072 60.639375 
L 93.358626 60.155163 
L 93.705733 56.392409 
L 94.226395 45.082997 
L 95.441271 14.486341 
L 95.788378 10.723587 
L 95.961932 10.239375 
L 96.135486 10.723587 
L 96.482593 14.486341 
L 97.003254 25.795753 
L 98.21813 56.392409 
L 98.565238 60.155163 
L 98.738791 60.639375 
L 98.912345 60.155163 
L 99.259452 56.392409 
L 99.780114 45.082997 
L 100.99499 14.486341 
L 101.342097 10.723587 
L 101.515651 10.239375 
L 101.689205 10.723587 
L 102.036312 14.486341 
L 102.556973 25.795753 
L 103.771849 56.392409 
L 104.118957 60.155163 
L 104.29251 60.639375 
L 104.466064 60.155163 
L 104.813171 56.392409 
L 105.333833 45.082997 
L 106.548709 14.486341 
L 106.895816 10.723587 
L 107.06937 10.239375 
L 107.242924 10.723587 
L 107.590031 14.486341 
L 108.110692 25.795753 
L 109.325568 56.392409 
L 109.672676 60.155163 
L 109.846229 60.639375 
L 110.019783 60.155163 
L 110.36689 56.392409 
L 110.887552 45.082997 
L 112.102428 14.486341 
L 112.449535 10.723587 
L 112.623089 10.239375 
L 112.796643 10.723587 
L 113.14375 14.486341 
L 113.664411 25.795753 
L 114.879287 56.392409 
L 115.226395 60.155163 
L 115.399948 60.639375 
L 115.573502 60.155163 
L 115.92061 56.392409 
L 116.441271 45.082997 
L 117.656147 14.486341 
L 118.003254 10.723587 
L 118.176808 10.239375 
L 118.350362 10.723587 
L 118.697469 14.486341 
L 119.21813 25.795753 
L 120.433006 56.392409 
L 120.780114 60.155163 
L 120.953667 60.639375 
L 121.127221 60.155163 
L 121.474329 56.392409 
L 121.99499 45.082997 
L 123.209866 14.486341 
L 123.556973 10.723587 
L 123.730527 10.239375 
L 123.904081 10.723587 
L 124.251188 14.486341 
L 124.771849 25.795753 
L 125.986725 56.392409 
L 126.333833 60.155163 
L 126.507386 60.639375 
L 126.68094 60.155163 
L 127.028048 56.392409 
L 127.548709 45.082997 
L 128.763585 14.486341 
L 129.110692 10.723587 
L 129.284246 10.239375 
L 129.4578 10.723587 
L 129.804907 14.486341 
L 130.325568 25.795753 
L 131.540444 56.392409 
L 131.887552 60.155163 
L 132.061105 60.639375 
L 132.234659 60.155163 
L 132.581767 56.392409 
L 133.102428 45.082997 
L 134.317304 14.486341 
L 134.664411 10.723587 
L 134.837965 10.239375 
L 135.011519 10.723587 
L 135.358626 14.486341 
L 135.879287 25.795753 
L 137.094163 56.392409 
L 137.441271 60.155163 
L 137.614824 60.639375 
L 137.788378 60.155163 
L 138.135486 56.392409 
L 138.656147 45.082997 
L 139.871023 14.486341 
L 140.21813 10.723587 
L 140.391684 10.239375 
L 140.565238 10.723587 
L 140.912345 14.486341 
L 141.433006 25.795753 
L 142.647882 56.392409 
L 142.99499 60.155163 
L 143.168543 60.639375 
L 143.342097 60.155163 
L 143.689205 56.392409 
L 144.209866 45.082997 
L 145.424742 14.486341 
L 145.771849 10.723587 
L 145.945403 10.239375 
L 146.118957 10.723587 
L 146.466064 14.486341 
L 146.986725 25.795753 
L 148.201601 56.392409 
L 148.548709 60.155163 
L 148.722262 60.639375 
L 148.895816 60.155163 
L 149.242924 56.392409 
L 149.763585 45.082997 
L 150.978461 14.486341 
L 151.325568 10.723587 
L 151.499122 10.239375 
L 151.672676 10.723587 
L 152.019783 14.486341 
L 152.540444 25.795753 
L 153.75532 56.392409 
L 154.102428 60.155163 
L 154.275981 60.639375 
L 154.449535 60.155163 
L 154.796643 56.392409 
L 155.317304 45.082997 
L 156.53218 14.486341 
L 156.879287 10.723587 
L 157.052841 10.239375 
L 157.226395 10.723587 
L 157.573502 14.486341 
L 158.094163 25.795753 
L 159.309039 56.392409 
L 159.656147 60.155163 
L 159.8297 60.639375 
L 160.003254 60.155163 
L 160.350362 56.392409 
L 160.871023 45.082997 
L 162.085899 14.486341 
L 162.433006 10.723587 
L 162.60656 10.239375 
L 162.780114 10.723587 
L 163.127221 14.486341 
L 163.647882 25.795753 
L 164.862758 56.392409 
L 165.209866 60.155163 
L 165.383419 60.639375 
L 165.556973 60.155163 
L 165.904081 56.392409 
L 166.424742 45.082997 
L 167.639618 14.486341 
L 167.986725 10.723587 
L 168.160279 10.239375 
L 168.333833 10.723587 
L 168.68094 14.486341 
L 169.201601 25.795753 
L 170.416477 56.392409 
L 170.763585 60.155163 
L 170.937138 60.639375 
L 171.110692 60.155163 
L 171.4578 56.392409 
L 171.978461 45.082997 
L 173.193337 14.486341 
L 173.540444 10.723587 
L 173.713998 10.239375 
L 173.887552 10.723587 
L 174.234659 14.486341 
L 174.75532 25.795753 
L 175.970196 56.392409 
L 176.317304 60.155163 
L 176.490857 60.639375 
L 176.664411 60.155163 
L 177.011519 56.392409 
L 177.53218 45.082997 
L 178.747056 14.486341 
L 179.094163 10.723587 
L 179.267717 10.239375 
L 179.441271 10.723587 
L 179.788378 14.486341 
L 180.309039 25.795753 
L 181.523915 56.392409 
L 181.871023 60.155163 
L 182.044576 60.639375 
L 182.21813 60.155163 
L 182.565238 56.392409 
L 183.085899 45.082997 
L 184.300775 14.486341 
L 184.647882 10.723587 
L 184.821436 10.239375 
L 184.99499 10.723587 
L 185.342097 14.486341 
L 185.862758 25.795753 
L 187.077634 56.392409 
L 187.424742 60.155163 
L 187.598295 60.639375 
L 187.771849 60.155163 
L 188.118957 56.392409 
L 188.639618 45.082997 
L 189.854494 14.486341 
L 190.201601 10.723587 
L 190.375155 10.239375 
L 190.548709 10.723587 
L 190.895816 14.486341 
L 191.416477 25.795753 
L 192.631353 56.392409 
L 192.978461 60.155163 
L 193.152014 60.639375 
L 193.325568 60.155163 
L 193.672676 56.392409 
L 194.193337 45.082997 
L 195.408213 14.486341 
L 195.75532 10.723587 
L 195.928874 10.239375 
L 196.102428 10.723587 
L 196.449535 14.486341 
L 196.970196 25.795753 
L 198.185072 56.392409 
L 198.53218 60.155163 
L 198.705733 60.639375 
L 198.879287 60.155163 
L 199.226395 56.392409 
L 199.747056 45.082997 
L 200.961932 14.486341 
L 201.309039 10.723587 
L 201.482593 10.239375 
L 201.656147 10.723587 
L 202.003254 14.486341 
L 202.523915 25.795753 
L 203.738791 56.392409 
L 204.085899 60.155163 
L 204.259452 60.639375 
L 204.433006 60.155163 
L 204.780114 56.392409 
L 205.300775 45.082997 
L 206.515651 14.486341 
L 206.862758 10.723587 
L 207.036312 10.239375 
L 207.209866 10.723587 
L 207.556973 14.486341 
L 208.077634 25.795753 
L 209.29251 56.392409 
L 209.639618 60.155163 
L 209.813171 60.639375 
L 209.986725 60.155163 
L 210.333833 56.392409 
L 210.854494 45.082997 
L 212.06937 14.486341 
L 212.416477 10.723587 
L 212.416477 10.723587 
" clip-path="url(#pf6661c329d)" style="fill: none; stroke: #1f77b4; stroke-width: 2; stroke-linecap: square"/>
   </g>
   <g id="line2d_15">
    <path d="M 34.871023 35.439375 
L 35.565238 17.620284 
L 35.912345 12.157611 
L 36.085899 10.723587 
L 36.259452 10.239375 
L 36.433006 10.723587 
L 36.780114 14.486341 
L 37.300775 25.795753 
L 38.515651 56.392409 
L 38.862758 60.155163 
L 39.036312 60.639375 
L 39.209866 60.155163 
L 39.556973 56.392409 
L 40.077634 45.082997 
L 41.29251 14.486341 
L 41.639618 10.723587 
L 41.813171 10.239375 
L 41.986725 10.723587 
L 42.333833 14.486341 
L 42.854494 25.795753 
L 44.06937 56.392409 
L 44.416477 60.155163 
L 44.590031 60.639375 
L 44.763585 60.155163 
L 45.110692 56.392409 
L 45.631353 45.082997 
L 46.846229 14.486341 
L 47.193337 10.723587 
L 47.36689 10.239375 
L 47.540444 10.723587 
L 47.887552 14.486341 
L 48.408213 25.795753 
L 49.623089 56.392409 
L 49.970196 60.155163 
L 50.14375 60.639375 
L 50.317304 60.155163 
L 50.664411 56.392409 
L 51.185072 45.082997 
L 52.399948 14.486341 
L 52.747056 10.723587 
L 52.92061 10.239375 
L 53.094163 10.723587 
L 53.441271 14.486341 
L 53.961932 25.795753 
L 55.176808 56.392409 
L 55.523915 60.155163 
L 55.697469 60.639375 
L 55.871023 60.155163 
L 56.21813 56.392409 
L 56.738791 45.082997 
L 57.953667 14.486341 
L 58.300775 10.723587 
L 58.474329 10.239375 
L 58.647882 10.723587 
L 58.99499 14.486341 
L 59.515651 25.795753 
L 60.730527 56.392409 
L 61.077634 60.155163 
L 61.251188 60.639375 
L 61.424742 60.155163 
L 61.771849 56.392409 
L 62.29251 45.082997 
L 63.507386 14.486341 
L 63.854494 10.723587 
L 64.028048 10.239375 
L 64.201601 10.723587 
L 64.548709 14.486341 
L 65.06937 25.795753 
L 66.284246 56.392409 
L 66.631353 60.155163 
L 66.804907 60.639375 
L 66.978461 60.155163 
L 67.325568 56.392409 
L 67.846229 45.082997 
L 69.061105 14.486341 
L 69.408213 10.723587 
L 69.581767 10.239375 
L 69.75532 10.723587 
L 70.102428 14.486341 
L 70.623089 25.795753 
L 71.837965 56.392409 
L 72.185072 60.155163 
L 72.358626 60.639375 
L 72.53218 60.155163 
L 72.879287 56.392409 
L 73.399948 45.082997 
L 74.614824 14.486341 
L 74.961932 10.723587 
L 75.135486 10.239375 
L 75.309039 10.723587 
L 75.656147 14.486341 
L 76.176808 25.795753 
L 77.391684 56.392409 
L 77.738791 60.155163 
L 77.912345 60.639375 
L 78.085899 60.155163 
L 78.433006 56.392409 
L 78.953667 45.082997 
L 80.168543 14.486341 
L 80.515651 10.723587 
L 80.689205 10.239375 
L 80.862758 10.723587 
L 81.209866 14.486341 
L 81.730527 25.795753 
L 82.945403 56.392409 
L 83.29251 60.155163 
L 83.466064 60.639375 
L 83.639618 60.155163 
L 83.986725 56.392409 
L 84.507386 45.082997 
L 85.722262 14.486341 
L 86.06937 10.723587 
L 86.242924 10.239375 
L 86.416477 10.723587 
L 86.763585 14.486341 
L 87.284246 25.795753 
L 88.499122 56.392409 
L 88.846229 60.155163 
L 89.019783 60.639375 
L 89.193337 60.155163 
L 89.540444 56.392409 
L 90.061105 45.082997 
L 91.275981 14.486341 
L 91.623089 10.723587 
L 91.796643 10.239375 
L 91.970196 10.723587 
L 92.317304 14.486341 
L 92.837965 25.795753 
L 94.052841 56.392409 
L 94.399948 60.155163 
L 94.573502 60.639375 
L 94.747056 60.155163 
L 95.094163 56.392409 
L 95.614824 45.082997 
L 96.8297 14.486341 
L 97.176808 10.723587 
L 97.350362 10.239375 
L 97.523915 10.723587 
L 97.871023 14.486341 
L 98.391684 25.795753 
L 99.60656 56.392409 
L 99.953667 60.155163 
L 100.127221 60.639375 
L 100.300775 60.155163 
L 100.647882 56.392409 
L 101.168543 45.082997 
L 102.383419 14.486341 
L 102.730527 10.723587 
L 102.904081 10.239375 
L 103.077634 10.723587 
L 103.424742 14.486341 
L 103.945403 25.795753 
L 105.160279 56.392409 
L 105.507386 60.155163 
L 105.68094 60.639375 
L 105.854494 60.155163 
L 106.201601 56.392409 
L 106.722262 45.082997 
L 107.937138 14.486341 
L 108.284246 10.723587 
L 108.4578 10.239375 
L 108.631353 10.723587 
L 108.978461 14.486341 
L 109.499122 25.795753 
L 110.713998 56.392409 
L 111.061105 60.155163 
L 111.234659 60.639375 
L 111.408213 60.155163 
L 111.75532 56.392409 
L 112.275981 45.082997 
L 113.490857 14.486341 
L 113.837965 10.723587 
L 114.011519 10.239375 
L 114.185072 10.723587 
L 114.53218 14.486341 
L 115.052841 25.795753 
L 116.267717 56.392409 
L 116.614824 60.155163 
L 116.788378 60.639375 
L 116.961932 60.155163 
L 117.309039 56.392409 
L 117.8297 45.082997 
L 119.044576 14.486341 
L 119.391684 10.723587 
L 119.565238 10.239375 
L 119.738791 10.723587 
L 120.085899 14.486341 
L 120.60656 25.795753 
L 121.821436 56.392409 
L 122.168543 60.155163 
L 122.342097 60.639375 
L 122.515651 60.155163 
L 122.862758 56.392409 
L 123.383419 45.082997 
L 124.598295 14.486341 
L 124.945403 10.723587 
L 125.118957 10.239375 
L 125.29251 10.723587 
L 125.639618 14.486341 
L 126.160279 25.795753 
L 127.375155 56.392409 
L 127.722262 60.155163 
L 127.895816 60.639375 
L 128.06937 60.155163 
L 128.416477 56.392409 
L 128.937138 45.082997 
L 130.152014 14.486341 
L 130.499122 10.723587 
L 130.672676 10.239375 
L 130.846229 10.723587 
L 131.193337 14.486341 
L 131.713998 25.795753 
L 132.928874 56.392409 
L 133.275981 60.155163 
L 133.449535 60.639375 
L 133.623089 60.155163 
L 133.970196 56.392409 
L 134.490857 45.082997 
L 135.705733 14.486341 
L 136.052841 10.723587 
L 136.226395 10.239375 
L 136.399948 10.723587 
L 136.747056 14.486341 
L 137.267717 25.795753 
L 138.482593 56.392409 
L 138.8297 60.155163 
L 139.003254 60.639375 
L 139.176808 60.155163 
L 139.523915 56.392409 
L 140.044576 45.082997 
L 141.259452 14.486341 
L 141.60656 10.723587 
L 141.780114 10.239375 
L 141.953667 10.723587 
L 142.300775 14.486341 
L 142.821436 25.795753 
L 144.036312 56.392409 
L 144.383419 60.155163 
L 144.556973 60.639375 
L 144.730527 60.155163 
L 145.077634 56.392409 
L 145.598295 45.082997 
L 146.813171 14.486341 
L 147.160279 10.723587 
L 147.333833 10.239375 
L 147.507386 10.723587 
L 147.854494 14.486341 
L 148.375155 25.795753 
L 149.590031 56.392409 
L 149.937138 60.155163 
L 150.110692 60.639375 
L 150.284246 60.155163 
L 150.631353 56.392409 
L 151.152014 45.082997 
L 152.36689 14.486341 
L 152.713998 10.723587 
L 152.887552 10.239375 
L 153.061105 10.723587 
L 153.408213 14.486341 
L 153.928874 25.795753 
L 155.14375 56.392409 
L 155.490857 60.155163 
L 155.664411 60.639375 
L 155.837965 60.155163 
L 156.185072 56.392409 
L 156.705733 45.082997 
L 157.92061 14.486341 
L 158.267717 10.723587 
L 158.441271 10.239375 
L 158.614824 10.723587 
L 158.961932 14.486341 
L 159.482593 25.795753 
L 160.697469 56.392409 
L 161.044576 60.155163 
L 161.21813 60.639375 
L 161.391684 60.155163 
L 161.738791 56.392409 
L 162.259452 45.082997 
L 163.474329 14.486341 
L 163.821436 10.723587 
L 163.99499 10.239375 
L 164.168543 10.723587 
L 164.515651 14.486341 
L 165.036312 25.795753 
L 166.251188 56.392409 
L 166.598295 60.155163 
L 166.771849 60.639375 
L 166.945403 60.155163 
L 167.29251 56.392409 
L 167.813171 45.082997 
L 169.028048 14.486341 
L 169.375155 10.723587 
L 169.548709 10.239375 
L 169.722262 10.723587 
L 170.06937 14.486341 
L 170.590031 25.795753 
L 171.804907 56.392409 
L 172.152014 60.155163 
L 172.325568 60.639375 
L 172.499122 60.155163 
L 172.846229 56.392409 
L 173.36689 45.082997 
L 174.581767 14.486341 
L 174.928874 10.723587 
L 175.102428 10.239375 
L 175.275981 10.723587 
L 175.623089 14.486341 
L 176.14375 25.795753 
L 177.358626 56.392409 
L 177.705733 60.155163 
L 177.879287 60.639375 
L 178.052841 60.155163 
L 178.399948 56.392409 
L 178.92061 45.082997 
L 180.135486 14.486341 
L 180.482593 10.723587 
L 180.656147 10.239375 
L 180.8297 10.723587 
L 181.176808 14.486341 
L 181.697469 25.795753 
L 182.912345 56.392409 
L 183.259452 60.155163 
L 183.433006 60.639375 
L 183.60656 60.155163 
L 183.953667 56.392409 
L 184.474329 45.082997 
L 185.689205 14.486341 
L 186.036312 10.723587 
L 186.209866 10.239375 
L 186.383419 10.723587 
L 186.730527 14.486341 
L 187.251188 25.795753 
L 188.466064 56.392409 
L 188.813171 60.155163 
L 188.986725 60.639375 
L 189.160279 60.155163 
L 189.507386 56.392409 
L 190.028048 45.082997 
L 191.242924 14.486341 
L 191.590031 10.723587 
L 191.763585 10.239375 
L 191.937138 10.723587 
L 192.284246 14.486341 
L 192.804907 25.795753 
L 194.019783 56.392409 
L 194.36689 60.155163 
L 194.540444 60.639375 
L 194.713998 60.155163 
L 195.061105 56.392409 
L 195.581767 45.082997 
L 196.796643 14.486341 
L 197.14375 10.723587 
L 197.317304 10.239375 
L 197.490857 10.723587 
L 197.837965 14.486341 
L 198.358626 25.795753 
L 199.573502 56.392409 
L 199.92061 60.155163 
L 200.094163 60.639375 
L 200.267717 60.155163 
L 200.614824 56.392409 
L 201.135486 45.082997 
L 202.350362 14.486341 
L 202.697469 10.723587 
L 202.871023 10.239375 
L 203.044576 10.723587 
L 203.391684 14.486341 
L 203.912345 25.795753 
L 205.127221 56.392409 
L 205.474329 60.155163 
L 205.647882 60.639375 
L 205.821436 60.155163 
L 206.168543 56.392409 
L 206.689205 45.082997 
L 207.904081 14.486341 
L 208.251188 10.723587 
L 208.424742 10.239375 
L 208.598295 10.723587 
L 208.945403 14.486341 
L 209.466064 25.795753 
L 210.68094 56.392409 
L 211.028048 60.155163 
L 211.201601 60.639375 
L 211.375155 60.155163 
L 211.722262 56.392409 
L 212.242924 45.082997 
L 212.416477 40.355651 
L 212.416477 40.355651 
" clip-path="url(#pf6661c329d)" style="fill: none; stroke: #ff7f0e; stroke-width: 2; stroke-linecap: square"/>
   </g>
   <g id="patch_3">
    <path d="M 25.99375 63.159375 
L 25.99375 7.719375 
" style="fill: none; stroke: #000000; stroke-width: 0.8; stroke-linejoin: miter; stroke-linecap: square"/>
   </g>
   <g id="patch_4">
    <path d="M 25.99375 63.159375 
L 221.29375 63.159375 
" style="fill: none; stroke: #000000; stroke-width: 0.8; stroke-linejoin: miter; stroke-linecap: square"/>
   </g>
  </g>
 </g>
 <defs>
  <clipPath id="pf6661c329d">
   <rect x="25.99375" y="7.719375" width="195.3" height="55.44"/>
  </clipPath>
 </defs>
</svg>
