<?xml version="1.0" encoding="utf-8" standalone="no"?>
<!DOCTYPE svg PUBLIC "-//W3C//DTD SVG 1.1//EN"
  "http://www.w3.org/Graphics/SVG/1.1/DTD/svg11.dtd">
<svg xmlns:xlink="http://www.w3.org/1999/xlink" width="228.49375pt" height="40.7905pt" viewBox="0 0 228.49375 40.7905" xmlns="http://www.w3.org/2000/svg" version="1.1">
 <metadata>
  <rdf:RDF xmlns:dc="http://purl.org/dc/elements/1.1/" xmlns:cc="http://creativecommons.org/ns#" xmlns:rdf="http://www.w3.org/1999/02/22-rdf-syntax-ns#">
   <cc:Work>
    <dc:type rdf:resource="http://purl.org/dc/dcmitype/StillImage"/>
    <dc:date>2025-10-30T14:18:23.567784</dc:date>
    <dc:format>image/svg+xml</dc:format>
    <dc:creator>
     <cc:Agent>
      <dc:title>Matplotlib v3.10.6, https://matplotlib.org/</dc:title>
     </cc:Agent>
    </dc:creator>
   </cc:Work>
  </rdf:RDF>
 </metadata>
 <defs>
  <style type="text/css">*{stroke-linejoin: round; stroke-linecap: butt}</style>
 </defs>
 <g id="figure_1">
  <g id="patch_1">
   <path d="M 0 40.7905 
L 228.49375 40.7905 
L 228.49375 0 
L 0 0 
L 0 40.7905 
z
" style="fill: none"/>
  </g>
  <g id="axes_1">
   <g id="patch_2">
    <path d="M 25.99375 29.819775 
L 221.29375 29.819775 
L 221.29375 9.306975 
L 25.99375 9.306975 
L 25.99375 29.819775 
z
" style="fill: none"/>
   </g>
   <g id="matplotlib.axis_1">
    <g id="xtick_1"/>
    <g id="xtick_2"/>
    <g id="xtick_3"/>
    <g id="xtick_4"/>
    <g id="xtick_5"/>
    <g id="xtick_6"/>
   </g>
   <g id="matplotlib.axis_2">
    <g id="ytick_1">
     <g id="line2d_1">
      <defs>
       <path id="m7b24e03733" d="M 0 0 
L -3.5 0 
" style="stroke: #000000; stroke-width: 0.8"/>
      </defs>
      <g>
       <use xlink:href="#m7b24e03733" x="25.99375" y="28.887375" style="stroke: #000000; stroke-width: 0.8"/>
      </g>
     </g>
     <g id="text_1">
      <!-- −1 -->
      <g transform="translate(7.2 31.92675) scale(0.08 -0.08)">
       <defs>
        <path id="DejaVuSans-2212" d="M 678 2272 
L 4684 2272 
L 4684 1741 
L 678 1741 
L 678 2272 
z
" transform="scale(0.015625)"/>
        <path id="DejaVuSans-31" d="M 794 531 
L 1825 531 
L 1825 4091 
L 703 3866 
L 703 4441 
L 1819 4666 
L 2450 4666 
L 2450 531 
L 3481 531 
L 3481 0 
L 794 0 
L 794 531 
z
" transform="scale(0.015625)"/>
       </defs>
       <use xlink:href="#DejaVuSans-2212"/>
       <use xlink:href="#DejaVuSans-31" transform="translate(83.789062 0)"/>
      </g>
     </g>
    </g>
    <g id="ytick_2">
     <g id="line2d_2">
      <g>
       <use xlink:href="#m7b24e03733" x="25.99375" y="19.563375" style="stroke: #000000; stroke-width: 0.8"/>
      </g>
     </g>
     <g id="text_2">
      <!-- 0 -->
      <g transform="translate(13.90375 22.60275) scale(0.08 -0.08)">
       <defs>
        <path id="DejaVuSans-30" d="M 2034 4250 
Q 1547 4250 1301 3770 
Q 1056 3291 1056 2328 
Q 1056 1369 1301 889 
Q 1547 409 2034 409 
Q 2525 409 2770 889 
Q 3016 1369 3016 2328 
Q 3016 3291 2770 3770 
Q 2525 4250 2034 4250 
z
M 2034 4750 
Q 2819 4750 3233 4129 
Q 3647 3509 3647 2328 
Q 3647 1150 3233 529 
Q 2819 -91 2034 -91 
Q 1250 -91 836 529 
Q 422 1150 422 2328 
Q 422 3509 836 4129 
Q 1250 4750 2034 4750 
z
" transform="scale(0.015625)"/>
       </defs>
       <use xlink:href="#DejaVuSans-30"/>
      </g>
     </g>
    </g>
    <g id="ytick_3">
     <g id="line2d_3">
      <g>
       <use xlink:href="#m7b24e03733" x="25.99375" y="10.239375" style="stroke: #000000; stroke-width: 0.8"/>
      </g>
     </g>
     <g id="text_3">
      <!-- 1 -->
      <g transform="translate(13.90375 13.27875) scale(0.08 -0.08)">
       <use xlink:href="#DejaVuSans-31"/>
      </g>
     </g>
    </g>
   </g>
   <g id="line2d_4">
    <path d="M 34.871023 19.563375 
L 35.565238 12.970311 
L 35.912345 10.949123 
L 36.259452 10.239375 
L 36.433006 10.418533 
L 36.780114 11.810752 
L 37.300775 15.995235 
L 38.515651 27.315998 
L 38.862758 28.708217 
L 39.036312 28.887375 
L 39.209866 28.708217 
L 39.556973 27.315998 
L 40.077634 23.131515 
L 41.29251 11.810752 
L 41.639618 10.418533 
L 41.813171 10.239375 
L 41.986725 10.418533 
L 42.333833 11.810752 
L 42.854494 15.995235 
L 44.06937 27.315998 
L 44.416477 28.708217 
L 44.590031 28.887375 
L 44.763585 28.708217 
L 45.110692 27.315998 
L 45.631353 23.131515 
L 46.846229 11.810752 
L 47.193337 10.418533 
L 47.36689 10.239375 
L 47.540444 10.418533 
L 47.887552 11.810752 
L 48.408213 15.995235 
L 49.623089 27.315998 
L 49.970196 28.708217 
L 50.14375 28.887375 
L 50.317304 28.708217 
L 50.664411 27.315998 
L 51.185072 23.131515 
L 52.399948 11.810752 
L 52.747056 10.418533 
L 52.92061 10.239375 
L 53.094163 10.418533 
L 53.441271 11.810752 
L 53.961932 15.995235 
L 55.176808 27.315998 
L 55.523915 28.708217 
L 55.697469 28.887375 
L 55.871023 28.708217 
L 56.21813 27.315998 
L 56.738791 23.131515 
L 57.953667 11.810752 
L 58.300775 10.418533 
L 58.474329 10.239375 
L 58.647882 10.418533 
L 58.99499 11.810752 
L 59.515651 15.995235 
L 60.730527 27.315998 
L 61.077634 28.708217 
L 61.251188 28.887375 
L 61.424742 28.708217 
L 61.771849 27.315998 
L 62.29251 23.131515 
L 63.507386 11.810752 
L 63.854494 10.418533 
L 64.028048 10.239375 
L 64.201601 10.418533 
L 64.548709 11.810752 
L 65.06937 15.995235 
L 66.284246 27.315998 
L 66.631353 28.708217 
L 66.804907 28.887375 
L 66.978461 28.708217 
L 67.325568 27.315998 
L 67.846229 23.131515 
L 69.061105 11.810752 
L 69.408213 10.418533 
L 69.581767 10.239375 
L 69.75532 10.418533 
L 70.102428 11.810752 
L 70.623089 15.995235 
L 71.837965 27.315998 
L 72.185072 28.708217 
L 72.358626 28.887375 
L 72.53218 28.708217 
L 72.879287 27.315998 
L 73.399948 23.131515 
L 74.614824 11.810752 
L 74.961932 10.418533 
L 75.135486 10.239375 
L 75.309039 10.418533 
L 75.656147 11.810752 
L 76.176808 15.995235 
L 77.391684 27.315998 
L 77.738791 28.708217 
L 77.912345 28.887375 
L 78.085899 28.708217 
L 78.433006 27.315998 
L 78.953667 23.131515 
L 80.168543 11.810752 
L 80.515651 10.418533 
L 80.689205 10.239375 
L 80.862758 10.418533 
L 81.209866 11.810752 
L 81.730527 15.995235 
L 82.945403 27.315998 
L 83.29251 28.708217 
L 83.466064 28.887375 
L 83.639618 28.708217 
L 83.986725 27.315998 
L 84.507386 23.131515 
L 85.722262 11.810752 
L 86.06937 10.418533 
L 86.242924 10.239375 
L 86.416477 10.418533 
L 86.763585 11.810752 
L 87.284246 15.995235 
L 88.499122 27.315998 
L 88.846229 28.708217 
L 89.019783 28.887375 
L 89.193337 28.708217 
L 89.540444 27.315998 
L 90.061105 23.131515 
L 91.275981 11.810752 
L 91.623089 10.418533 
L 91.796643 10.239375 
L 91.970196 10.418533 
L 92.317304 11.810752 
L 92.837965 15.995235 
L 94.052841 27.315998 
L 94.399948 28.708217 
L 94.573502 28.887375 
L 94.747056 28.708217 
L 95.094163 27.315998 
L 95.614824 23.131515 
L 96.8297 11.810752 
L 97.176808 10.418533 
L 97.350362 10.239375 
L 97.523915 10.418533 
L 97.871023 11.810752 
L 98.391684 15.995235 
L 99.60656 27.315998 
L 99.953667 28.708217 
L 100.127221 28.887375 
L 100.300775 28.708217 
L 100.647882 27.315998 
L 101.168543 23.131515 
L 102.383419 11.810752 
L 102.730527 10.418533 
L 102.904081 10.239375 
L 103.077634 10.418533 
L 103.424742 11.810752 
L 103.945403 15.995235 
L 105.160279 27.315998 
L 105.507386 28.708217 
L 105.68094 28.887375 
L 105.854494 28.708217 
L 106.201601 27.315998 
L 106.722262 23.131515 
L 107.937138 11.810752 
L 108.284246 10.418533 
L 108.4578 10.239375 
L 108.631353 10.418533 
L 108.978461 11.810752 
L 109.499122 15.995235 
L 110.713998 27.315998 
L 111.061105 28.708217 
L 111.234659 28.887375 
L 111.408213 28.708217 
L 111.75532 27.315998 
L 112.275981 23.131515 
L 113.490857 11.810752 
L 113.837965 10.418533 
L 114.011519 10.239375 
L 114.185072 10.418533 
L 114.53218 11.810752 
L 115.052841 15.995235 
L 116.267717 27.315998 
L 116.614824 28.708217 
L 116.788378 28.887375 
L 116.961932 28.708217 
L 117.309039 27.315998 
L 117.8297 23.131515 
L 119.044576 11.810752 
L 119.391684 10.418533 
L 119.565238 10.239375 
L 119.738791 10.418533 
L 120.085899 11.810752 
L 120.60656 15.995235 
L 121.821436 27.315998 
L 122.168543 28.708217 
L 122.342097 28.887375 
L 122.515651 28.708217 
L 122.862758 27.315998 
L 123.383419 23.131515 
L 124.598295 11.810752 
L 124.945403 10.418533 
L 125.118957 10.239375 
L 125.29251 10.418533 
L 125.639618 11.810752 
L 126.160279 15.995235 
L 127.375155 27.315998 
L 127.722262 28.708217 
L 127.895816 28.887375 
L 128.06937 28.708217 
L 128.416477 27.315998 
L 128.937138 23.131515 
L 130.152014 11.810752 
L 130.499122 10.418533 
L 130.672676 10.239375 
L 130.846229 10.418533 
L 131.193337 11.810752 
L 131.713998 15.995235 
L 132.928874 27.315998 
L 133.275981 28.708217 
L 133.449535 28.887375 
L 133.623089 28.708217 
L 133.970196 27.315998 
L 134.490857 23.131515 
L 135.705733 11.810752 
L 136.052841 10.418533 
L 136.226395 10.239375 
L 136.399948 10.418533 
L 136.747056 11.810752 
L 137.267717 15.995235 
L 138.482593 27.315998 
L 138.8297 28.708217 
L 139.003254 28.887375 
L 139.176808 28.708217 
L 139.523915 27.315998 
L 140.044576 23.131515 
L 141.259452 11.810752 
L 141.60656 10.418533 
L 141.780114 10.239375 
L 141.953667 10.418533 
L 142.300775 11.810752 
L 142.821436 15.995235 
L 144.036312 27.315998 
L 144.383419 28.708217 
L 144.556973 28.887375 
L 144.730527 28.708217 
L 145.077634 27.315998 
L 145.598295 23.131515 
L 146.813171 11.810752 
L 147.160279 10.418533 
L 147.333833 10.239375 
L 147.507386 10.418533 
L 147.854494 11.810752 
L 148.375155 15.995235 
L 149.590031 27.315998 
L 149.937138 28.708217 
L 150.110692 28.887375 
L 150.284246 28.708217 
L 150.631353 27.315998 
L 151.152014 23.131515 
L 152.36689 11.810752 
L 152.713998 10.418533 
L 152.887552 10.239375 
L 153.061105 10.418533 
L 153.408213 11.810752 
L 153.928874 15.995235 
L 155.14375 27.315998 
L 155.490857 28.708217 
L 155.664411 28.887375 
L 155.837965 28.708217 
L 156.185072 27.315998 
L 156.705733 23.131515 
L 157.92061 11.810752 
L 158.267717 10.418533 
L 158.441271 10.239375 
L 158.614824 10.418533 
L 158.961932 11.810752 
L 159.482593 15.995235 
L 160.697469 27.315998 
L 161.044576 28.708217 
L 161.21813 28.887375 
L 161.391684 28.708217 
L 161.738791 27.315998 
L 162.259452 23.131515 
L 163.474329 11.810752 
L 163.821436 10.418533 
L 163.99499 10.239375 
L 164.168543 10.418533 
L 164.515651 11.810752 
L 165.036312 15.995235 
L 166.251188 27.315998 
L 166.598295 28.708217 
L 166.771849 28.887375 
L 166.945403 28.708217 
L 167.29251 27.315998 
L 167.813171 23.131515 
L 169.028048 11.810752 
L 169.375155 10.418533 
L 169.548709 10.239375 
L 169.722262 10.418533 
L 170.06937 11.810752 
L 170.590031 15.995235 
L 171.804907 27.315998 
L 172.152014 28.708217 
L 172.325568 28.887375 
L 172.499122 28.708217 
L 172.846229 27.315998 
L 173.36689 23.131515 
L 174.581767 11.810752 
L 174.928874 10.418533 
L 175.102428 10.239375 
L 175.275981 10.418533 
L 175.623089 11.810752 
L 176.14375 15.995235 
L 177.358626 27.315998 
L 177.705733 28.708217 
L 177.879287 28.887375 
L 178.052841 28.708217 
L 178.399948 27.315998 
L 178.92061 23.131515 
L 180.135486 11.810752 
L 180.482593 10.418533 
L 180.656147 10.239375 
L 180.8297 10.418533 
L 181.176808 11.810752 
L 181.697469 15.995235 
L 182.912345 27.315998 
L 183.259452 28.708217 
L 183.433006 28.887375 
L 183.60656 28.708217 
L 183.953667 27.315998 
L 184.474329 23.131515 
L 185.689205 11.810752 
L 186.036312 10.418533 
L 186.209866 10.239375 
L 186.383419 10.418533 
L 186.730527 11.810752 
L 187.251188 15.995235 
L 188.466064 27.315998 
L 188.813171 28.708217 
L 188.986725 28.887375 
L 189.160279 28.708217 
L 189.507386 27.315998 
L 190.028048 23.131515 
L 191.242924 11.810752 
L 191.590031 10.418533 
L 191.763585 10.239375 
L 191.937138 10.418533 
L 192.284246 11.810752 
L 192.804907 15.995235 
L 194.019783 27.315998 
L 194.36689 28.708217 
L 194.540444 28.887375 
L 194.713998 28.708217 
L 195.061105 27.315998 
L 195.581767 23.131515 
L 196.796643 11.810752 
L 197.14375 10.418533 
L 197.317304 10.239375 
L 197.490857 10.418533 
L 197.837965 11.810752 
L 198.358626 15.995235 
L 199.573502 27.315998 
L 199.92061 28.708217 
L 200.094163 28.887375 
L 200.267717 28.708217 
L 200.614824 27.315998 
L 201.135486 23.131515 
L 202.350362 11.810752 
L 202.697469 10.418533 
L 202.871023 10.239375 
L 203.044576 10.418533 
L 203.391684 11.810752 
L 203.912345 15.995235 
L 205.127221 27.315998 
L 205.474329 28.708217 
L 205.647882 28.887375 
L 205.821436 28.708217 
L 206.168543 27.315998 
L 206.689205 23.131515 
L 207.904081 11.810752 
L 208.251188 10.418533 
L 208.424742 10.239375 
L 208.598295 10.418533 
L 208.945403 11.810752 
L 209.466064 15.995235 
L 210.68094 27.315998 
L 211.028048 28.708217 
L 211.201601 28.887375 
L 211.375155 28.708217 
L 211.722262 27.315998 
L 212.242924 23.131515 
L 212.416477 21.382397 
L 212.416477 21.382397 
" clip-path="url(#pa15dbf2db1)" style="fill: none; stroke: #1f77b4; stroke-width: 2; stroke-linecap: square"/>
   </g>
   <g id="line2d_5">
    <path d="M 34.871023 10.239375 
L 39.209866 10.348861 
L 43.548709 10.67475 
L 48.061105 11.234952 
L 52.747056 12.040328 
L 57.780114 13.134099 
L 63.333833 14.575057 
L 69.928874 16.530182 
L 79.647882 19.677795 
L 91.275981 23.394077 
L 97.697469 25.20916 
L 103.251188 26.548323 
L 108.284246 27.531274 
L 112.970196 28.220766 
L 117.482593 28.660821 
L 121.821436 28.866145 
L 126.160279 28.852994 
L 130.499122 28.621677 
L 135.011519 28.155572 
L 139.697469 27.44079 
L 144.556973 26.472003 
L 149.937138 25.163523 
L 156.011519 23.446164 
L 163.821436 20.988056 
L 181.871023 15.21861 
L 187.945403 13.56029 
L 193.325568 12.319667 
L 198.185072 11.422637 
L 202.871023 10.784418 
L 207.383419 10.396899 
L 211.722262 10.243763 
L 212.416477 10.239551 
L 212.416477 10.239551 
" clip-path="url(#pa15dbf2db1)" style="fill: none; stroke: #ff7f0e; stroke-width: 2; stroke-linecap: square"/>
   </g>
   <g id="patch_3">
    <path d="M 25.99375 29.819775 
L 25.99375 9.306975 
" style="fill: none; stroke: #000000; stroke-width: 0.8; stroke-linejoin: miter; stroke-linecap: square"/>
   </g>
   <g id="patch_4">
    <path d="M 221.29375 29.819775 
L 221.29375 9.306975 
" style="fill: none; stroke: #000000; stroke-width: 0.8; stroke-linejoin: miter; stroke-linecap: square"/>
   </g>
   <g id="patch_5">
    <path d="M 25.99375 29.819775 
L 221.29375 29.819775 
" style="fill: none; stroke: #000000; stroke-width: 0.8; stroke-linejoin: miter; stroke-linecap: square"/>
   </g>
   <g id="patch_6">
    <path d="M 25.99375 9.306975 
L 221.29375 9.306975 
" style="fill: none; stroke: #000000; stroke-width: 0.8; stroke-linejoin: miter; stroke-linecap: square"/>
   </g>
  </g>
 </g>
 <defs>
  <clipPath id="pa15dbf2db1">
   <rect x="25.99375" y="9.306975" width="195.3" height="20.5128"/>
  </clipPath>
 </defs>
</svg>
