<?xml version="1.0" encoding="utf-8" standalone="no"?>
<!DOCTYPE svg PUBLIC "-//W3C//DTD SVG 1.1//EN"
  "http://www.w3.org/Graphics/SVG/1.1/DTD/svg11.dtd">
<svg xmlns:xlink="http://www.w3.org/1999/xlink" width="228.49375pt" height="73.801539pt" viewBox="0 0 228.49375 73.801539" xmlns="http://www.w3.org/2000/svg" version="1.1">
 <metadata>
  <rdf:RDF xmlns:dc="http://purl.org/dc/elements/1.1/" xmlns:cc="http://creativecommons.org/ns#" xmlns:rdf="http://www.w3.org/1999/02/22-rdf-syntax-ns#">
   <cc:Work>
    <dc:type rdf:resource="http://purl.org/dc/dcmitype/StillImage"/>
    <dc:date>2025-10-30T14:18:23.760877</dc:date>
    <dc:format>image/svg+xml</dc:format>
    <dc:creator>
     <cc:Agent>
      <dc:title>Matplotlib v3.10.6, https://matplotlib.org/</dc:title>
     </cc:Agent>
    </dc:creator>
   </cc:Work>
  </rdf:RDF>
 </metadata>
 <defs>
  <style type="text/css">*{stroke-linejoin: round; stroke-linecap: butt}</style>
 </defs>
 <g id="figure_1">
  <g id="patch_1">
   <path d="M 0 73.801539 
L 228.49375 73.801539 
L 228.49375 0 
L 0 0 
L 0 73.801539 
z
" style="fill: none"/>
  </g>
  <g id="axes_1">
   <g id="patch_2">
    <path d="M 25.99375 63.788895 
L 221.29375 63.788895 
L 221.29375 8.348895 
L 25.99375 8.348895 
L 25.99375 63.788895 
z
" style="fill: none"/>
   </g>
   <g id="matplotlib.axis_1">
    <g id="xtick_1"/>
    <g id="xtick_2"/>
    <g id="xtick_3"/>
    <g id="xtick_4"/>
    <g id="xtick_5"/>
    <g id="xtick_6"/>
   </g>
   <g id="matplotlib.axis_2">
    <g id="ytick_1">
     <g id="line2d_1">
      <defs>
       <path id="m71e9dc7d23" d="M 0 0 
L -3.5 0 
" style="stroke: #000000; stroke-width: 0.8"/>
      </defs>
      <g>
       <use xlink:href="#m71e9dc7d23" x="25.99375" y="61.898414" style="stroke: #000000; stroke-width: 0.8"/>
      </g>
     </g>
     <g id="text_1">
      <!-- −1 -->
      <g transform="translate(7.2 64.937789) scale(0.08 -0.08)">
       <defs>
        <path id="DejaVuSans-2212" d="M 678 2272 
L 4684 2272 
L 4684 1741 
L 678 1741 
L 678 2272 
z
" transform="scale(0.015625)"/>
        <path id="DejaVuSans-31" d="M 794 531 
L 1825 531 
L 1825 4091 
L 703 3866 
L 703 4441 
L 1819 4666 
L 2450 4666 
L 2450 531 
L 3481 531 
L 3481 0 
L 794 0 
L 794 531 
z
" transform="scale(0.015625)"/>
       </defs>
       <use xlink:href="#DejaVuSans-2212"/>
       <use xlink:href="#DejaVuSans-31" transform="translate(83.789062 0)"/>
      </g>
     </g>
    </g>
    <g id="ytick_2">
     <g id="line2d_2">
      <g>
       <use xlink:href="#m71e9dc7d23" x="25.99375" y="36.068895" style="stroke: #000000; stroke-width: 0.8"/>
      </g>
     </g>
     <g id="text_2">
      <!-- 0 -->
      <g transform="translate(13.90375 39.10827) scale(0.08 -0.08)">
       <defs>
        <path id="DejaVuSans-30" d="M 2034 4250 
Q 1547 4250 1301 3770 
Q 1056 3291 1056 2328 
Q 1056 1369 1301 889 
Q 1547 409 2034 409 
Q 2525 409 2770 889 
Q 3016 1369 3016 2328 
Q 3016 3291 2770 3770 
Q 2525 4250 2034 4250 
z
M 2034 4750 
Q 2819 4750 3233 4129 
Q 3647 3509 3647 2328 
Q 3647 1150 3233 529 
Q 2819 -91 2034 -91 
Q 1250 -91 836 529 
Q 422 1150 422 2328 
Q 422 3509 836 4129 
Q 1250 4750 2034 4750 
z
" transform="scale(0.015625)"/>
       </defs>
       <use xlink:href="#DejaVuSans-30"/>
      </g>
     </g>
    </g>
    <g id="ytick_3">
     <g id="line2d_3">
      <g>
       <use xlink:href="#m71e9dc7d23" x="25.99375" y="10.239375" style="stroke: #000000; stroke-width: 0.8"/>
      </g>
     </g>
     <g id="text_3">
      <!-- 1 -->
      <g transform="translate(13.90375 13.27875) scale(0.08 -0.08)">
       <use xlink:href="#DejaVuSans-31"/>
      </g>
     </g>
    </g>
   </g>
   <g id="line2d_4">
    <path d="M 34.871023 10.868895 
L 37.474329 10.975556 
L 40.077634 11.294636 
L 42.854494 11.866046 
L 45.631353 12.670541 
L 48.408213 13.700376 
L 51.358626 15.03035 
L 54.482593 16.687491 
L 57.780114 18.692473 
L 61.424742 21.18175 
L 65.416477 24.189697 
L 70.102428 28.017444 
L 76.176808 33.291295 
L 89.713998 45.13825 
L 94.399948 48.891414 
L 98.391684 51.815354 
L 102.036312 54.212958 
L 105.333833 56.123985 
L 108.4578 57.683656 
L 111.408213 58.915107 
L 114.185072 59.84745 
L 116.961932 60.550793 
L 119.738791 61.018362 
L 122.342097 61.23854 
L 124.945403 61.245653 
L 127.548709 61.039641 
L 130.152014 60.622247 
L 132.928874 59.948052 
L 135.705733 59.043887 
L 138.656147 57.841011 
L 141.60656 56.401453 
L 144.730527 54.636672 
L 148.201601 52.411458 
L 152.019783 49.681216 
L 156.185072 46.422143 
L 161.21813 42.191995 
L 169.201601 35.141353 
L 177.53218 27.871075 
L 182.391684 23.917864 
L 186.556973 20.810016 
L 190.201601 18.359475 
L 193.499122 16.394317 
L 196.623089 14.778585 
L 199.573502 13.490545 
L 202.523915 12.447952 
L 205.300775 11.701088 
L 208.077634 11.188899 
L 210.68094 10.926273 
L 212.416477 10.869369 
L 212.416477 10.869369 
" clip-path="url(#p70f385b0cc)" style="fill: none; stroke: #1f77b4; stroke-width: 2; stroke-linecap: square"/>
   </g>
   <g id="line2d_5">
    <path d="M 34.871023 36.068895 
L 44.06937 28.017444 
L 49.102428 23.917864 
L 53.267717 20.810016 
L 56.912345 18.359475 
L 60.209866 16.394317 
L 63.333833 14.778585 
L 66.284246 13.490545 
L 69.234659 12.447952 
L 72.011519 11.701088 
L 74.788378 11.188899 
L 77.391684 10.926273 
L 79.99499 10.876484 
L 82.598295 11.039954 
L 85.201601 11.415297 
L 87.978461 12.045582 
L 90.75532 12.907226 
L 93.705733 14.066901 
L 96.656147 15.465757 
L 99.780114 17.190658 
L 103.077634 19.260497 
L 106.722262 21.812453 
L 110.887552 25.015765 
L 115.747056 29.050199 
L 122.689205 35.141353 
L 133.102428 44.266714 
L 137.961932 48.219926 
L 142.127221 51.327773 
L 145.771849 53.778314 
L 149.06937 55.743473 
L 152.193337 57.359205 
L 155.14375 58.647244 
L 158.094163 59.689838 
L 160.871023 60.436702 
L 163.647882 60.94889 
L 166.251188 61.211516 
L 168.854494 61.261305 
L 171.4578 61.097836 
L 174.061105 60.722492 
L 176.837965 60.092207 
L 179.614824 59.230564 
L 182.565238 58.070888 
L 185.515651 56.672032 
L 188.639618 54.947132 
L 191.937138 52.877293 
L 195.581767 50.325336 
L 199.747056 47.122024 
L 204.60656 43.087591 
L 211.548709 36.996437 
L 212.416477 36.223519 
L 212.416477 36.223519 
" clip-path="url(#p70f385b0cc)" style="fill: none; stroke: #ff7f0e; stroke-width: 2; stroke-linecap: square"/>
   </g>
   <g id="line2d_6">
    <path d="M 34.871023 12.666883 
L 36.259452 12.77957 
L 37.647882 13.116546 
L 39.036312 13.674566 
L 40.598295 14.559782 
L 42.160279 15.707109 
L 43.895816 17.272223 
L 45.804907 19.319353 
L 47.887552 21.898718 
L 50.317304 25.291362 
L 53.267717 29.82728 
L 58.300775 38.076724 
L 62.639618 45.024457 
L 65.416477 49.070356 
L 67.672676 51.996327 
L 69.75532 54.339717 
L 71.664411 56.14147 
L 73.399948 57.463242 
L 74.961932 58.378174 
L 76.523915 59.021243 
L 77.912345 59.358219 
L 79.300775 59.470907 
L 80.689205 59.358219 
L 82.077634 59.021243 
L 83.466064 58.463224 
L 85.028048 57.578008 
L 86.590031 56.430681 
L 88.325568 54.865567 
L 90.234659 52.818436 
L 92.317304 50.239071 
L 94.747056 46.846427 
L 97.697469 42.31051 
L 102.730527 34.061065 
L 107.06937 27.113333 
L 109.846229 23.067434 
L 112.102428 20.141462 
L 114.185072 17.798073 
L 116.094163 15.99632 
L 117.8297 14.674547 
L 119.391684 13.759616 
L 120.953667 13.116546 
L 122.342097 12.77957 
L 123.730527 12.666883 
L 125.118957 12.77957 
L 126.507386 13.116546 
L 127.895816 13.674566 
L 129.4578 14.559782 
L 131.019783 15.707109 
L 132.75532 17.272223 
L 134.664411 19.319353 
L 136.747056 21.898718 
L 139.176808 25.291362 
L 142.127221 29.82728 
L 147.160279 38.076724 
L 151.499122 45.024457 
L 154.275981 49.070356 
L 156.53218 51.996327 
L 158.614824 54.339717 
L 160.523915 56.14147 
L 162.259452 57.463242 
L 163.821436 58.378174 
L 165.383419 59.021243 
L 166.771849 59.358219 
L 168.160279 59.470907 
L 169.548709 59.358219 
L 170.937138 59.021243 
L 172.325568 58.463224 
L 173.887552 57.578008 
L 175.449535 56.430681 
L 177.185072 54.865567 
L 179.094163 52.818436 
L 181.176808 50.239071 
L 183.60656 46.846427 
L 186.556973 42.31051 
L 191.590031 34.061065 
L 195.928874 27.113333 
L 198.705733 23.067434 
L 200.961932 20.141462 
L 203.044576 17.798073 
L 204.953667 15.99632 
L 206.689205 14.674547 
L 208.251188 13.759616 
L 209.813171 13.116546 
L 211.201601 12.77957 
L 212.416477 12.668645 
L 212.416477 12.668645 
" clip-path="url(#p70f385b0cc)" style="fill: none; stroke: #2ca02c; stroke-width: 2; stroke-linecap: square"/>
   </g>
   <g id="line2d_7">
    <path d="M 34.871023 36.068895 
L 40.251188 27.379325 
L 43.028048 23.307193 
L 45.284246 20.353064 
L 47.36689 17.978895 
L 49.275981 16.14547 
L 51.011519 14.792535 
L 52.573502 13.848025 
L 54.135486 13.1743 
L 55.523915 12.809472 
L 56.912345 12.668645 
L 58.300775 12.753175 
L 59.689205 13.062249 
L 61.077634 13.592888 
L 62.639618 14.448255 
L 64.201601 15.567092 
L 65.937138 17.102566 
L 67.846229 19.120056 
L 69.928874 21.671238 
L 72.358626 25.037263 
L 75.309039 29.550974 
L 79.99499 37.217177 
L 84.68094 44.758464 
L 87.4578 48.830597 
L 89.713998 51.784725 
L 91.796643 54.158894 
L 93.705733 55.992319 
L 95.441271 57.345255 
L 97.003254 58.289764 
L 98.565238 58.963489 
L 99.953667 59.328317 
L 101.342097 59.469144 
L 102.730527 59.384614 
L 104.118957 59.075541 
L 105.507386 58.544901 
L 107.06937 57.689534 
L 108.631353 56.570697 
L 110.36689 55.035224 
L 112.275981 53.017734 
L 114.358626 50.466552 
L 116.788378 47.100527 
L 119.738791 42.586816 
L 124.424742 34.920612 
L 129.110692 27.379325 
L 131.887552 23.307193 
L 134.14375 20.353064 
L 136.226395 17.978895 
L 138.135486 16.14547 
L 139.871023 14.792535 
L 141.433006 13.848025 
L 142.99499 13.1743 
L 144.383419 12.809472 
L 145.771849 12.668645 
L 147.160279 12.753175 
L 148.548709 13.062249 
L 149.937138 13.592888 
L 151.499122 14.448255 
L 153.061105 15.567092 
L 154.796643 17.102566 
L 156.705733 19.120056 
L 158.788378 21.671238 
L 161.21813 25.037263 
L 164.168543 29.550974 
L 168.854494 37.217177 
L 173.540444 44.758464 
L 176.317304 48.830597 
L 178.573502 51.784725 
L 180.656147 54.158894 
L 182.565238 55.992319 
L 184.300775 57.345255 
L 185.862758 58.289764 
L 187.424742 58.963489 
L 188.813171 59.328317 
L 190.201601 59.469144 
L 191.590031 59.384614 
L 192.978461 59.075541 
L 194.36689 58.544901 
L 195.928874 57.689534 
L 197.490857 56.570697 
L 199.226395 55.035224 
L 201.135486 53.017734 
L 203.21813 50.466552 
L 205.647882 47.100527 
L 208.598295 42.586816 
L 212.416477 36.356073 
L 212.416477 36.356073 
" clip-path="url(#p70f385b0cc)" style="fill: none; stroke: #d62728; stroke-width: 2; stroke-linecap: square"/>
   </g>
   <g id="line2d_8">
    <path d="M 34.871023 18.664307 
L 35.738791 18.795198 
L 36.60656 19.185901 
L 37.474329 19.83054 
L 38.515651 20.92539 
L 39.556973 22.34805 
L 40.771849 24.380688 
L 42.333833 27.490205 
L 44.242924 31.839925 
L 50.14375 45.738365 
L 51.705733 48.674116 
L 52.92061 50.54028 
L 53.961932 51.802455 
L 55.003254 52.724047 
L 55.871023 53.217246 
L 56.738791 53.452518 
L 57.60656 53.426324 
L 58.474329 53.139058 
L 59.342097 52.595041 
L 60.209866 51.802455 
L 61.251188 50.54028 
L 62.466064 48.674116 
L 63.854494 46.090599 
L 65.590031 42.332719 
L 68.193337 36.068895 
L 71.490857 28.243595 
L 73.226395 24.700691 
L 74.614824 22.34805 
L 75.8297 20.719419 
L 76.871023 19.681709 
L 77.738791 19.087202 
L 78.60656 18.748115 
L 79.474329 18.669549 
L 80.342097 18.852686 
L 81.209866 19.29477 
L 82.077634 19.989153 
L 83.118957 21.140482 
L 84.333833 22.889987 
L 85.722262 25.361043 
L 87.284246 28.627475 
L 89.540444 33.938387 
L 93.879287 44.27336 
L 95.614824 47.757101 
L 97.003254 50.04839 
L 98.21813 51.615095 
L 99.259452 52.595041 
L 100.127221 53.139058 
L 100.99499 53.426324 
L 101.862758 53.452518 
L 102.730527 53.217246 
L 103.598295 52.724047 
L 104.466064 51.980338 
L 105.507386 50.773223 
L 106.722262 48.964843 
L 108.110692 46.436795 
L 109.846229 42.729342 
L 112.275981 36.922897 
L 115.92061 28.243595 
L 117.656147 24.700691 
L 119.044576 22.34805 
L 120.259452 20.719419 
L 121.300775 19.681709 
L 122.168543 19.087202 
L 123.036312 18.748115 
L 123.904081 18.669549 
L 124.771849 18.852686 
L 125.639618 19.29477 
L 126.507386 19.989153 
L 127.548709 21.140482 
L 128.763585 22.889987 
L 130.152014 25.361043 
L 131.713998 28.627475 
L 133.970196 33.938387 
L 138.309039 44.27336 
L 140.044576 47.757101 
L 141.433006 50.04839 
L 142.647882 51.615095 
L 143.689205 52.595041 
L 144.556973 53.139058 
L 145.424742 53.426324 
L 146.29251 53.452518 
L 147.160279 53.217246 
L 148.028048 52.724047 
L 148.895816 51.980338 
L 149.937138 50.773223 
L 151.152014 48.964843 
L 152.540444 46.436795 
L 154.275981 42.729342 
L 156.705733 36.922897 
L 160.350362 28.243595 
L 162.085899 24.700691 
L 163.474329 22.34805 
L 164.689205 20.719419 
L 165.730527 19.681709 
L 166.598295 19.087202 
L 167.466064 18.748115 
L 168.333833 18.669549 
L 169.201601 18.852686 
L 170.06937 19.29477 
L 170.937138 19.989153 
L 171.978461 21.140482 
L 173.193337 22.889987 
L 174.581767 25.361043 
L 176.14375 28.627475 
L 178.399948 33.938387 
L 182.738791 44.27336 
L 184.474329 47.757101 
L 185.862758 50.04839 
L 187.077634 51.615095 
L 188.118957 52.595041 
L 188.986725 53.139058 
L 189.854494 53.426324 
L 190.722262 53.452518 
L 191.590031 53.217246 
L 192.4578 52.724047 
L 193.325568 51.980338 
L 194.36689 50.773223 
L 195.581767 48.964843 
L 196.970196 46.436795 
L 198.705733 42.729342 
L 201.135486 36.922897 
L 204.780114 28.243595 
L 206.515651 24.700691 
L 207.904081 22.34805 
L 209.118957 20.719419 
L 210.160279 19.681709 
L 211.028048 19.087202 
L 211.895816 18.748115 
L 212.416477 18.669549 
L 212.416477 18.669549 
" clip-path="url(#p70f385b0cc)" style="fill: none; stroke: #9467bd; stroke-width: 2; stroke-linecap: square"/>
   </g>
   <g id="line2d_9">
    <path d="M 34.871023 36.068895 
L 38.168543 28.243595 
L 39.904081 24.700691 
L 41.29251 22.34805 
L 42.507386 20.719419 
L 43.548709 19.681709 
L 44.416477 19.087202 
L 45.284246 18.748115 
L 46.152014 18.669549 
L 47.019783 18.852686 
L 47.887552 19.29477 
L 48.75532 19.989153 
L 49.796643 21.140482 
L 51.011519 22.889987 
L 52.399948 25.361043 
L 53.961932 28.627475 
L 56.21813 33.938387 
L 60.556973 44.27336 
L 62.29251 47.757101 
L 63.68094 50.04839 
L 64.895816 51.615095 
L 65.937138 52.595041 
L 66.804907 53.139058 
L 67.672676 53.426324 
L 68.540444 53.452518 
L 69.408213 53.217246 
L 70.275981 52.724047 
L 71.14375 51.980338 
L 72.185072 50.773223 
L 73.399948 48.964843 
L 74.788378 46.436795 
L 76.523915 42.729342 
L 78.953667 36.922897 
L 82.598295 28.243595 
L 84.333833 24.700691 
L 85.722262 22.34805 
L 86.937138 20.719419 
L 87.978461 19.681709 
L 88.846229 19.087202 
L 89.713998 18.748115 
L 90.581767 18.669549 
L 91.449535 18.852686 
L 92.317304 19.29477 
L 93.185072 19.989153 
L 94.226395 21.140482 
L 95.441271 22.889987 
L 96.8297 25.361043 
L 98.391684 28.627475 
L 100.647882 33.938387 
L 104.986725 44.27336 
L 106.722262 47.757101 
L 108.110692 50.04839 
L 109.325568 51.615095 
L 110.36689 52.595041 
L 111.234659 53.139058 
L 112.102428 53.426324 
L 112.970196 53.452518 
L 113.837965 53.217246 
L 114.705733 52.724047 
L 115.573502 51.980338 
L 116.614824 50.773223 
L 117.8297 48.964843 
L 119.21813 46.436795 
L 120.953667 42.729342 
L 123.383419 36.922897 
L 127.028048 28.243595 
L 128.763585 24.700691 
L 130.152014 22.34805 
L 131.36689 20.719419 
L 132.408213 19.681709 
L 133.275981 19.087202 
L 134.14375 18.748115 
L 135.011519 18.669549 
L 135.879287 18.852686 
L 136.747056 19.29477 
L 137.614824 19.989153 
L 138.656147 21.140482 
L 139.871023 22.889987 
L 141.259452 25.361043 
L 142.821436 28.627475 
L 145.077634 33.938387 
L 149.416477 44.27336 
L 151.152014 47.757101 
L 152.540444 50.04839 
L 153.75532 51.615095 
L 154.796643 52.595041 
L 155.664411 53.139058 
L 156.53218 53.426324 
L 157.399948 53.452518 
L 158.267717 53.217246 
L 159.135486 52.724047 
L 160.003254 51.980338 
L 161.044576 50.773223 
L 162.259452 48.964843 
L 163.647882 46.436795 
L 165.383419 42.729342 
L 167.813171 36.922897 
L 171.4578 28.243595 
L 173.193337 24.700691 
L 174.581767 22.34805 
L 175.796643 20.719419 
L 176.837965 19.681709 
L 177.705733 19.087202 
L 178.573502 18.748115 
L 179.441271 18.669549 
L 180.309039 18.852686 
L 181.176808 19.29477 
L 182.044576 19.989153 
L 183.085899 21.140482 
L 184.300775 22.889987 
L 185.689205 25.361043 
L 187.251188 28.627475 
L 189.507386 33.938387 
L 193.846229 44.27336 
L 195.581767 47.757101 
L 196.970196 50.04839 
L 198.185072 51.615095 
L 199.226395 52.595041 
L 200.094163 53.139058 
L 200.961932 53.426324 
L 201.8297 53.452518 
L 202.697469 53.217246 
L 203.565238 52.724047 
L 204.433006 51.980338 
L 205.474329 50.773223 
L 206.689205 48.964843 
L 208.077634 46.436795 
L 209.813171 42.729342 
L 212.242924 36.922897 
L 212.416477 36.496025 
L 212.416477 36.496025 
" clip-path="url(#p70f385b0cc)" style="fill: none; stroke: #8c564b; stroke-width: 2; stroke-linecap: square"/>
   </g>
   <g id="line2d_10">
    <path d="M 34.871023 30.744062 
L 35.565238 30.846377 
L 36.259452 31.149391 
L 37.127221 31.791949 
L 38.168543 32.896896 
L 39.556973 34.775066 
L 42.854494 39.446933 
L 43.895816 40.496331 
L 44.763585 41.082459 
L 45.4578 41.336094 
L 46.152014 41.387313 
L 46.846229 41.234149 
L 47.540444 40.882486 
L 48.408213 40.185046 
L 49.449535 39.027213 
L 50.837965 37.107718 
L 53.788378 32.896896 
L 54.8297 31.791949 
L 55.697469 31.149391 
L 56.565238 30.801695 
L 57.259452 30.750476 
L 57.953667 30.903641 
L 58.647882 31.255303 
L 59.515651 31.952743 
L 60.556973 33.110576 
L 61.945403 35.030071 
L 64.895816 39.240894 
L 65.937138 40.34584 
L 66.804907 40.988399 
L 67.672676 41.336094 
L 68.36689 41.387313 
L 69.061105 41.234149 
L 69.75532 40.882486 
L 70.623089 40.185046 
L 71.664411 39.027213 
L 73.052841 37.107718 
L 76.003254 32.896896 
L 77.044576 31.791949 
L 77.912345 31.149391 
L 78.780114 30.801695 
L 79.474329 30.750476 
L 80.168543 30.903641 
L 80.862758 31.255303 
L 81.730527 31.952743 
L 82.771849 33.110576 
L 84.160279 35.030071 
L 87.110692 39.240894 
L 88.152014 40.34584 
L 89.019783 40.988399 
L 89.887552 41.336094 
L 90.581767 41.387313 
L 91.275981 41.234149 
L 91.970196 40.882486 
L 92.837965 40.185046 
L 93.879287 39.027213 
L 95.267717 37.107718 
L 98.21813 32.896896 
L 99.259452 31.791949 
L 100.127221 31.149391 
L 100.99499 30.801695 
L 101.689205 30.750476 
L 102.383419 30.903641 
L 103.077634 31.255303 
L 103.945403 31.952743 
L 104.986725 33.110576 
L 106.375155 35.030071 
L 109.325568 39.240894 
L 110.36689 40.34584 
L 111.234659 40.988399 
L 112.102428 41.336094 
L 112.796643 41.387313 
L 113.490857 41.234149 
L 114.185072 40.882486 
L 115.052841 40.185046 
L 116.094163 39.027213 
L 117.482593 37.107718 
L 120.433006 32.896896 
L 121.474329 31.791949 
L 122.342097 31.149391 
L 123.209866 30.801695 
L 123.904081 30.750476 
L 124.598295 30.903641 
L 125.29251 31.255303 
L 126.160279 31.952743 
L 127.201601 33.110576 
L 128.590031 35.030071 
L 131.540444 39.240894 
L 132.581767 40.34584 
L 133.449535 40.988399 
L 134.317304 41.336094 
L 135.011519 41.387313 
L 135.705733 41.234149 
L 136.399948 40.882486 
L 137.267717 40.185046 
L 138.309039 39.027213 
L 139.697469 37.107718 
L 142.647882 32.896896 
L 143.689205 31.791949 
L 144.556973 31.149391 
L 145.424742 30.801695 
L 146.118957 30.750476 
L 146.813171 30.903641 
L 147.507386 31.255303 
L 148.375155 31.952743 
L 149.416477 33.110576 
L 150.804907 35.030071 
L 153.75532 39.240894 
L 154.796643 40.34584 
L 155.664411 40.988399 
L 156.53218 41.336094 
L 157.226395 41.387313 
L 157.92061 41.234149 
L 158.614824 40.882486 
L 159.482593 40.185046 
L 160.523915 39.027213 
L 161.912345 37.107718 
L 164.862758 32.896896 
L 165.904081 31.791949 
L 166.771849 31.149391 
L 167.639618 30.801695 
L 168.333833 30.750476 
L 169.028048 30.903641 
L 169.722262 31.255303 
L 170.590031 31.952743 
L 171.631353 33.110576 
L 173.019783 35.030071 
L 175.970196 39.240894 
L 177.011519 40.34584 
L 177.879287 40.988399 
L 178.747056 41.336094 
L 179.441271 41.387313 
L 180.135486 41.234149 
L 180.8297 40.882486 
L 181.697469 40.185046 
L 182.738791 39.027213 
L 184.127221 37.107718 
L 187.077634 32.896896 
L 188.118957 31.791949 
L 188.986725 31.149391 
L 189.854494 30.801695 
L 190.548709 30.750476 
L 191.242924 30.903641 
L 191.937138 31.255303 
L 192.804907 31.952743 
L 193.846229 33.110576 
L 195.234659 35.030071 
L 198.185072 39.240894 
L 199.226395 40.34584 
L 200.094163 40.988399 
L 200.961932 41.336094 
L 201.656147 41.387313 
L 202.350362 41.234149 
L 203.044576 40.882486 
L 203.912345 40.185046 
L 204.953667 39.027213 
L 206.342097 37.107718 
L 209.29251 32.896896 
L 210.333833 31.791949 
L 211.201601 31.149391 
L 212.06937 30.801695 
L 212.416477 30.750476 
L 212.416477 30.750476 
" clip-path="url(#p70f385b0cc)" style="fill: none; stroke: #e377c2; stroke-width: 2; stroke-linecap: square"/>
   </g>
   <g id="line2d_11">
    <path d="M 34.871023 36.068895 
L 36.953667 33.110576 
L 37.99499 31.952743 
L 38.862758 31.255303 
L 39.730527 30.846377 
L 40.424742 30.744062 
L 41.118957 30.846377 
L 41.813171 31.149391 
L 42.68094 31.791949 
L 43.722262 32.896896 
L 45.110692 34.775066 
L 48.408213 39.446933 
L 49.449535 40.496331 
L 50.317304 41.082459 
L 51.011519 41.336094 
L 51.705733 41.387313 
L 52.399948 41.234149 
L 53.094163 40.882486 
L 53.961932 40.185046 
L 55.003254 39.027213 
L 56.391684 37.107718 
L 59.342097 32.896896 
L 60.383419 31.791949 
L 61.251188 31.149391 
L 62.118957 30.801695 
L 62.813171 30.750476 
L 63.507386 30.903641 
L 64.201601 31.255303 
L 65.06937 31.952743 
L 66.110692 33.110576 
L 67.499122 35.030071 
L 70.449535 39.240894 
L 71.490857 40.34584 
L 72.358626 40.988399 
L 73.226395 41.336094 
L 73.92061 41.387313 
L 74.614824 41.234149 
L 75.309039 40.882486 
L 76.176808 40.185046 
L 77.21813 39.027213 
L 78.60656 37.107718 
L 81.556973 32.896896 
L 82.598295 31.791949 
L 83.466064 31.149391 
L 84.333833 30.801695 
L 85.028048 30.750476 
L 85.722262 30.903641 
L 86.416477 31.255303 
L 87.284246 31.952743 
L 88.325568 33.110576 
L 89.713998 35.030071 
L 92.664411 39.240894 
L 93.705733 40.34584 
L 94.573502 40.988399 
L 95.441271 41.336094 
L 96.135486 41.387313 
L 96.8297 41.234149 
L 97.523915 40.882486 
L 98.391684 40.185046 
L 99.433006 39.027213 
L 100.821436 37.107718 
L 103.771849 32.896896 
L 104.813171 31.791949 
L 105.68094 31.149391 
L 106.548709 30.801695 
L 107.242924 30.750476 
L 107.937138 30.903641 
L 108.631353 31.255303 
L 109.499122 31.952743 
L 110.540444 33.110576 
L 111.928874 35.030071 
L 114.879287 39.240894 
L 115.92061 40.34584 
L 116.788378 40.988399 
L 117.656147 41.336094 
L 118.350362 41.387313 
L 119.044576 41.234149 
L 119.738791 40.882486 
L 120.60656 40.185046 
L 121.647882 39.027213 
L 123.036312 37.107718 
L 125.986725 32.896896 
L 127.028048 31.791949 
L 127.895816 31.149391 
L 128.763585 30.801695 
L 129.4578 30.750476 
L 130.152014 30.903641 
L 130.846229 31.255303 
L 131.713998 31.952743 
L 132.75532 33.110576 
L 134.14375 35.030071 
L 137.094163 39.240894 
L 138.135486 40.34584 
L 139.003254 40.988399 
L 139.871023 41.336094 
L 140.565238 41.387313 
L 141.259452 41.234149 
L 141.953667 40.882486 
L 142.821436 40.185046 
L 143.862758 39.027213 
L 145.251188 37.107718 
L 148.201601 32.896896 
L 149.242924 31.791949 
L 150.110692 31.149391 
L 150.978461 30.801695 
L 151.672676 30.750476 
L 152.36689 30.903641 
L 153.061105 31.255303 
L 153.928874 31.952743 
L 154.970196 33.110576 
L 156.358626 35.030071 
L 159.309039 39.240894 
L 160.350362 40.34584 
L 161.21813 40.988399 
L 162.085899 41.336094 
L 162.780114 41.387313 
L 163.474329 41.234149 
L 164.168543 40.882486 
L 165.036312 40.185046 
L 166.077634 39.027213 
L 167.466064 37.107718 
L 170.416477 32.896896 
L 171.4578 31.791949 
L 172.325568 31.149391 
L 173.193337 30.801695 
L 173.887552 30.750476 
L 174.581767 30.903641 
L 175.275981 31.255303 
L 176.14375 31.952743 
L 177.185072 33.110576 
L 178.573502 35.030071 
L 181.523915 39.240894 
L 182.565238 40.34584 
L 183.433006 40.988399 
L 184.300775 41.336094 
L 184.99499 41.387313 
L 185.689205 41.234149 
L 186.383419 40.882486 
L 187.251188 40.185046 
L 188.29251 39.027213 
L 189.68094 37.107718 
L 192.631353 32.896896 
L 193.672676 31.791949 
L 194.540444 31.149391 
L 195.408213 30.801695 
L 196.102428 30.750476 
L 196.796643 30.903641 
L 197.490857 31.255303 
L 198.358626 31.952743 
L 199.399948 33.110576 
L 200.788378 35.030071 
L 203.738791 39.240894 
L 204.780114 40.34584 
L 205.647882 40.988399 
L 206.515651 41.336094 
L 207.209866 41.387313 
L 207.904081 41.234149 
L 208.598295 40.882486 
L 209.466064 40.185046 
L 210.507386 39.027213 
L 211.895816 37.107718 
L 212.416477 36.330172 
L 212.416477 36.330172 
" clip-path="url(#p70f385b0cc)" style="fill: none; stroke: #7f7f7f; stroke-width: 2; stroke-linecap: square"/>
   </g>
   <g id="line2d_12">
    <path d="M 34.871023 36.022242 
L 123.036312 36.025793 
L 127.548709 36.094813 
L 131.713998 36.077996 
L 136.92061 36.051042 
L 142.647882 36.082437 
L 148.028048 36.051042 
L 153.75532 36.082437 
L 159.135486 36.051042 
L 164.862758 36.082437 
L 170.242924 36.051042 
L 175.970196 36.082437 
L 181.350362 36.051042 
L 187.077634 36.082437 
L 192.4578 36.051042 
L 198.185072 36.082437 
L 203.565238 36.051042 
L 209.29251 36.082437 
L 212.416477 36.022467 
L 212.416477 36.022467 
" clip-path="url(#p70f385b0cc)" style="fill: none; stroke: #bcbd22; stroke-width: 2; stroke-linecap: square"/>
   </g>
   <g id="line2d_13">
    <path d="M 34.871023 36.068895 
L 39.730527 36.051042 
L 45.4578 36.082437 
L 50.837965 36.051042 
L 56.565238 36.082437 
L 61.945403 36.051042 
L 67.672676 36.082437 
L 73.052841 36.051042 
L 78.780114 36.082437 
L 84.160279 36.051042 
L 89.887552 36.082437 
L 95.267717 36.051042 
L 100.99499 36.082437 
L 106.375155 36.051042 
L 112.102428 36.082437 
L 117.482593 36.051042 
L 123.209866 36.082437 
L 128.590031 36.051042 
L 134.317304 36.082437 
L 139.697469 36.051042 
L 145.424742 36.082437 
L 150.804907 36.051042 
L 156.53218 36.082437 
L 161.912345 36.051042 
L 167.639618 36.082437 
L 173.019783 36.051042 
L 178.747056 36.082437 
L 184.127221 36.051042 
L 189.854494 36.082437 
L 195.234659 36.051042 
L 200.961932 36.082437 
L 206.342097 36.051042 
L 212.06937 36.082437 
L 212.416477 36.073467 
L 212.416477 36.073467 
" clip-path="url(#p70f385b0cc)" style="fill: none; stroke: #17becf; stroke-width: 2; stroke-linecap: square"/>
   </g>
   <g id="line2d_14">
    <path d="M 34.871023 36.068895 
L 212.416477 36.068895 
L 212.416477 36.068895 
" clip-path="url(#p70f385b0cc)" style="fill: none; stroke: #1f77b4; stroke-width: 2; stroke-linecap: square"/>
   </g>
   <g id="line2d_15">
    <path d="M 34.871023 36.068895 
L 212.416477 36.068895 
L 212.416477 36.068895 
" clip-path="url(#p70f385b0cc)" style="fill: none; stroke: #ff7f0e; stroke-width: 2; stroke-linecap: square"/>
   </g>
   <g id="patch_3">
    <path d="M 25.99375 63.788895 
L 25.99375 8.348895 
" style="fill: none; stroke: #000000; stroke-width: 0.8; stroke-linejoin: miter; stroke-linecap: square"/>
   </g>
   <g id="patch_4">
    <path d="M 25.99375 63.788895 
L 221.29375 63.788895 
" style="fill: none; stroke: #000000; stroke-width: 0.8; stroke-linejoin: miter; stroke-linecap: square"/>
   </g>
  </g>
 </g>
 <defs>
  <clipPath id="p70f385b0cc">
   <rect x="25.99375" y="8.348895" width="195.3" height="55.44"/>
  </clipPath>
 </defs>
</svg>
